<svg width="240" height="152" viewBox="0 0 240 152" fill="none" xmlns="http://www.w3.org/2000/svg">
<g filter="url(#filter0_g_863_5230)">
<rect x="2" y="2" width="236" height="148" rx="8" fill="white"/>
<g clip-path="url(#clip0_863_5230)">
<g filter="url(#filter1_g_863_5230)">
<path d="M93.6782 124.636C93.4148 123.927 93.9042 122.827 94.002 121.844C94.1931 119.978 93.9787 117.869 94.0836 115.974C94.9155 112.549 94.7431 109.091 94.8293 105.586C95.6145 102.615 95.4351 99.4787 95.5144 96.4005C96.0922 93.376 96.5793 90.0227 95.9664 87.0214C95.3442 86.4086 94.361 87.3966 93.5966 87.6646C91.6672 88.7248 89.5677 89.2258 87.3493 89.5333C79.2752 90.4725 70.9051 85.3157 67.9248 77.7681C67.2886 76.2419 66.7667 74.7576 66.7993 73.0845C66.7084 69.3701 66.6455 65.77 68.3395 62.3889C69.2879 60.5993 70.5835 58.9308 71.9304 57.3883C72.8695 56.2278 74.3631 55.7082 74.6055 54.1703C74.2326 43.0714 81.0648 32.1288 91.5716 28.2374C92.83 27.811 94.2049 27.261 95.4515 26.9535C98.1708 26.5364 102.789 26.8742 105.327 26.7717C114.958 28.1698 123.549 35.743 126.229 45.1034C127.622 48.0208 126.968 51.8494 127.128 55.0021C126.874 57.9895 132.984 58.2038 134.797 67.6644C136.824 81.7669 119.557 90.9572 109.151 81.0561C108.063 79.7466 105.367 78.1387 105.609 81.0491C105.644 83.0927 105.702 86.2875 105.749 88.2845C106.156 91.2578 106.455 94.1752 106.357 97.2162C106.173 99.3832 106.97 101.126 107.035 103.209C107.093 104.829 106.928 106.805 107.189 108.417C107.802 110.212 107.804 112.048 107.767 113.996C107.543 117.412 108.799 120.597 108.452 123.985C108.449 124.894 108.163 125.151 107.382 125.12C105.066 125.132 97.9495 125.139 95.1276 125.144C94.6103 125.153 93.9252 125.148 93.6829 124.657L93.6735 124.636H93.6782Z" fill="#171717"/>
<path d="M141.945 113.943C142.931 116.832 143.746 119.803 144.627 122.732C144.856 123.564 145.154 124.79 144.024 125.006C142.889 125.204 141.442 125.267 140.533 124.687C139.734 124.109 139.72 123.026 139.361 122.166C138.69 120.283 138.133 118.267 137.557 116.347C137.299 115.285 136.938 114.248 136.6 113.258C136.178 112.346 135.584 112.242 134.386 112.2C130.154 112.47 128.143 110.806 127.144 116.04C126.489 118.288 125.839 120.451 125.098 122.676C124.797 123.886 124.033 125.041 122.672 125.088C118.38 125.703 120.181 122.303 120.833 119.901C121.749 116.452 122.975 113.129 123.947 109.69C124.357 108.105 124.848 107.022 126.68 107.173C128.348 107.164 131.163 107.157 132.853 107.15C134.001 107.257 134.798 106.831 135.036 105.726C135.299 104.694 135.698 103.708 136.012 102.709C136.889 99.3882 138.105 96.1469 139.056 92.8356C139.487 91.857 139.536 89.9531 140.817 89.9322C144.816 89.9322 164.306 89.9275 172.431 89.9298C173.636 89.9229 172.995 91.5564 172.858 92.3206C171.865 95.2358 170.921 98.1531 170.092 101.122C169.348 104.035 167.657 106.989 168.938 110.005C170.231 114.611 171.972 119.19 173.133 123.834C173.228 125.489 170.993 125.235 169.786 125.069C167.615 124.573 167.633 121.795 166.92 120.059C166.158 117.834 165.531 115.513 164.807 113.299C164.247 111.633 160.372 112.447 158.865 112.246C156.59 111.962 156.486 113.901 156.029 115.539C155.418 117.813 154.621 120.031 153.873 122.259C153.321 124.175 152.827 125.195 150.578 125.086C148.062 125.156 147.943 124.291 148.856 121.944C149.432 120.038 149.984 118.044 150.623 116.14C151.079 114.651 152.415 111.922 149.793 112.19C148.111 112.202 145.105 112.242 143.397 112.262C142.178 112.232 141.486 112.568 141.929 113.903L141.938 113.94L141.945 113.943ZM163.781 105.242C163.991 104.505 164.322 103.531 164.418 102.967C164.59 102.268 164.343 102.189 163.777 102.203C160.295 102.205 148.041 102.21 142.817 102.212C142.159 102.184 141.528 102.224 141.171 102.837C140.71 103.475 139.303 106.777 140.442 107.127C142.409 107.271 147.134 107.127 152.34 107.164C156.131 107.157 159.533 107.159 162.6 107.145C163.469 107.155 163.551 105.927 163.77 105.279L163.781 105.239V105.242Z" fill="#171717"/>
</g>
</g>
</g>
<defs>
<filter id="filter0_g_863_5230" x="0" y="0" width="240" height="152" filterUnits="userSpaceOnUse" color-interpolation-filters="sRGB">
<feFlood flood-opacity="0" result="BackgroundImageFix"/>
<feBlend mode="normal" in="SourceGraphic" in2="BackgroundImageFix" result="shape"/>
<feTurbulence type="fractalNoise" baseFrequency="0.011312217451632023 0.0099999997764825821" numOctaves="3" seed="9234" />
<feDisplacementMap in="shape" scale="4" xChannelSelector="R" yChannelSelector="G" result="displacedImage" width="100%" height="100%" />
<feMerge result="effect1_texture_863_5230">
<feMergeNode in="displacedImage"/>
</feMerge>
</filter>
<filter id="filter1_g_863_5230" x="65.9106" y="25.8877" width="108.091" height="100.154" filterUnits="userSpaceOnUse" color-interpolation-filters="sRGB">
<feFlood flood-opacity="0" result="BackgroundImageFix"/>
<feBlend mode="normal" in="SourceGraphic" in2="BackgroundImageFix" result="shape"/>
<feTurbulence type="fractalNoise" baseFrequency="0.098229184746742249 0.070715919137001038" numOctaves="3" seed="9234" />
<feDisplacementMap in="shape" scale="1.7021678686141968" xChannelSelector="R" yChannelSelector="G" result="displacedImage" width="100%" height="100%" />
<feMerge result="effect1_texture_863_5230">
<feMergeNode in="displacedImage"/>
</feMerge>
</filter>
<clipPath id="clip0_863_5230">
<rect width="107.955" height="100" fill="white" transform="translate(66.0234 26)"/>
</clipPath>
</defs>
</svg>
