<svg width="240" height="152" viewBox="0 0 240 152" fill="none" xmlns="http://www.w3.org/2000/svg">
<g filter="url(#filter0_g_863_5198)">
<rect x="2" y="2" width="236" height="148" rx="8" fill="white"/>
<g clip-path="url(#clip0_863_5198)">
<g filter="url(#filter1_g_863_5198)">
<path d="M164.762 69.8279C162.879 68.006 161.05 66.3493 158.737 65.1462C157.664 73.1659 154.413 80.1447 149.361 85.6828C145.823 89.5631 141.835 92.7318 137.353 95.0406C130.237 98.7057 122.968 100.536 115.025 100.705C118.736 105.698 123.325 108.492 128.277 110.738C132.806 112.482 137.501 113.278 142.214 113.145L151.938 125.24L156.292 109.76C159.969 107.957 163.345 105.564 166.171 102.295C174.721 92.4016 173.811 78.5837 164.762 69.8289V69.8279Z" fill="#171717"/>
</g>
<path d="M86.4099 36.2771C96.5844 28.1861 109.223 25.3833 121.641 27.2244C131.944 28.7512 142.776 34.3539 149.321 43.6209C155.882 52.9105 157.27 64.3484 152.071 74.826C151.066 76.8503 150.048 78.8286 148.65 80.5418C146.187 83.5623 143.559 86.292 140.411 88.4539L140.41 88.4549C129.459 95.9768 116.481 98.2805 104.073 95.406L104.126 95.4285L92.5525 106.42L89.9285 89.5486L90.2 89.6599C81.5262 84.1324 74.0787 74.4463 73.6902 63.1004C73.5139 57.9747 74.2871 53.2141 76.4724 48.7957C78.9712 43.7436 82.1632 39.6545 86.4099 36.2771ZM94.9148 51.4519C93.9646 51.3536 92.1946 51.0257 91.5721 51.9431C90.884 52.9589 89.7379 56.4981 89.2137 57.907C88.8861 58.7915 88.5584 59.6759 88.198 60.5603C87.6738 61.8709 87.1494 63.215 86.7234 64.5584L86.658 64.7547C86.0683 66.5894 85.3475 68.4243 84.6922 70.2918C84.5611 70.7177 83.5125 73.143 83.5125 73.3396C83.4475 74.5514 85.3145 74.2898 86.1336 74.2898C88.1976 74.3553 88.2302 74.1254 88.8855 72.1267C89.6719 69.8005 89.9342 70.03 92.326 70.0955C92.9811 70.0955 97.1078 70.4228 97.5027 70.5867C98.2563 70.9143 98.9117 73.2408 99.3377 73.9617C99.7309 74.4204 100.517 74.2566 101.107 74.2566H103.696C104.024 74.2565 104.318 74.1251 104.482 73.8631C104.875 73.2407 104.482 72.6183 104.253 71.9959C103.27 69.5712 102.32 67.1134 101.402 64.656C100.583 62.4281 100.092 60.2981 99.1414 58.0701C98.3551 56.3009 97.6995 54.8917 97.0769 53.0242C96.5529 51.452 96.5854 51.5174 94.9148 51.4519ZM126.407 51.2224C125.817 51.1897 124.637 50.9928 124.179 51.4187C123.753 51.7791 123.95 52.5985 123.95 53.1883C123.917 54.4988 123.786 55.3181 123.95 56.6941C124.147 58.234 123.262 58.1361 122.18 57.6775C118.413 56.1048 115.103 57.3495 112.744 60.5603C110.876 63.0833 110.647 66.9828 112.055 69.7351C112.35 70.3575 112.678 70.8488 113.071 71.3728C114.644 73.3715 117.331 74.5189 119.821 73.8308C120.542 73.6342 122.082 72.6838 122.541 72.7166C123.065 72.7167 123.458 73.0114 123.622 73.5027C123.95 74.3546 124.933 74.2566 125.686 74.2566C126.243 74.2566 127.587 74.2893 128.012 73.9617C128.602 73.503 128.438 72.5853 128.438 71.8972C128.438 69.4727 128.504 67.0806 128.537 64.656C128.602 61.8711 128.111 59.4137 128.438 56.6287C128.635 55.1543 128.864 53.8761 128.668 52.3689C128.504 51.0915 127.39 51.288 126.407 51.2224ZM140.15 57.1531C138.708 56.8256 136.415 57.2516 135.039 57.6775C133.663 58.0707 132.385 58.8893 131.533 60.0359L131.402 60.2C130.321 61.8055 129.535 63.7389 129.666 65.7049C129.83 68.3588 130.321 70.128 132.451 71.8318C135.138 73.9287 136.841 74.6495 140.249 73.7976C142.149 73.3061 144.213 72.3886 145.36 70.7176C146.179 69.5382 144.934 68.9483 143.984 68.4568C141.887 67.3428 142.215 69.3422 139.888 69.8992C138.873 70.1285 136.416 70.423 136.088 69.0144C135.891 68.0315 137.202 67.8672 137.857 67.7361C139.496 67.2773 143.853 66.0656 145.098 65.1482C145.524 64.8534 145.753 64.5907 145.982 64.0994C146.277 62.8215 145.949 61.2156 145.032 60.2654C143.983 59.2169 141.592 57.4807 140.15 57.1531ZM107.658 57.3172C106.184 57.1861 105.299 56.5305 105.201 58.824C105.103 60.8881 105.43 62.9195 105.299 65.0164C105.2 66.5891 105.168 67.6707 105.233 69.2762C105.266 70.4229 105.299 71.5698 105.299 72.7166V73.1424C105.299 73.6666 105.758 74.0926 106.282 74.0926H109.002C110.213 73.994 109.985 72.815 109.952 71.9305C109.886 69.8335 109.689 68.4571 109.886 66.2947C110.049 64.4598 110.115 63.0505 110.05 61.2156C110.05 60.5925 110.049 58.038 109.886 57.6775C109.623 57.0878 108.313 57.3827 107.658 57.3172ZM118.216 61.8709C119.624 61.3795 121.066 62.3304 121.656 63.6082C122.016 64.3288 122.18 65.2459 122.246 66.032C122.475 68.8826 122.606 70.194 119.166 69.6043C116.741 69.2111 115.103 68.5877 115.3 65.3767C115.431 63.7387 116.676 62.3623 118.216 61.8709ZM91.409 62.6902C91.8023 61.6741 93.0473 57.9728 93.9646 60.7576C94.3249 61.8387 94.5868 63.2145 94.8816 64.3611C95.3731 66.2943 94.1934 65.9993 92.7517 65.9666C90.1636 65.8682 90.6554 64.6561 91.409 62.6902ZM135.596 60.8885C136.645 60.2987 139.56 59.6107 140.445 60.7244C141.068 61.5108 140.216 62.101 139.495 62.2976C138.708 62.527 136.056 63.1487 135.302 62.9197L135.203 62.8865C134.089 62.4605 134.843 61.3144 135.596 60.8885ZM108.804 51.2224C108.247 51.2224 106.218 51.157 105.856 51.3533C105.103 51.7792 105.462 53.4829 105.594 54.2039C105.692 54.9247 105.757 55.679 106.609 55.9412C107.133 56.105 109.231 56.137 109.689 55.8094C110.344 55.3178 110.05 53.352 110.017 52.5984C109.985 51.7139 109.82 51.2224 108.804 51.2224Z" fill="#171717"/>
</g>
</g>
<defs>
<filter id="filter0_g_863_5198" x="0" y="0" width="240" height="152" filterUnits="userSpaceOnUse" color-interpolation-filters="sRGB">
<feFlood flood-opacity="0" result="BackgroundImageFix"/>
<feBlend mode="normal" in="SourceGraphic" in2="BackgroundImageFix" result="shape"/>
<feTurbulence type="fractalNoise" baseFrequency="0.011312217451632023 0.0099999997764825821" numOctaves="3" seed="9234" />
<feDisplacementMap in="shape" scale="4" xChannelSelector="R" yChannelSelector="G" result="displacedImage" width="100%" height="100%" />
<feMerge result="effect1_texture_863_5198">
<feMergeNode in="displacedImage"/>
</feMerge>
</filter>
<filter id="filter1_g_863_5198" x="114.256" y="64.3769" width="58.6071" height="61.6322" filterUnits="userSpaceOnUse" color-interpolation-filters="sRGB">
<feFlood flood-opacity="0" result="BackgroundImageFix"/>
<feBlend mode="normal" in="SourceGraphic" in2="BackgroundImageFix" result="shape"/>
<feTurbulence type="fractalNoise" baseFrequency="0.1086636409163475 0.078227773308753967" numOctaves="3" seed="9234" />
<feDisplacementMap in="shape" scale="1.5387165546417236" xChannelSelector="R" yChannelSelector="G" result="displacedImage" width="100%" height="100%" />
<feMerge result="effect1_texture_863_5198">
<feMergeNode in="displacedImage"/>
</feMerge>
</filter>
<clipPath id="clip0_863_5198">
<rect width="105.767" height="100" fill="white" transform="translate(67.1172 26)"/>
</clipPath>
</defs>
</svg>
