<svg width="240" height="152" viewBox="0 0 240 152" fill="none" xmlns="http://www.w3.org/2000/svg">
<g filter="url(#filter0_g_863_4990)">
<rect x="2" y="2" width="236" height="148" rx="8" fill="white"/>
<g clip-path="url(#clip0_863_4990)">
<path d="M130.955 26.1273C143.13 25.8409 147.478 26.1273 159.509 26.1273C165.954 26.1273 165.095 30.8539 164.952 35.7238C164.808 44.8905 163.949 48.3282 164.952 58.2111C166.098 68.3804 165.811 71.1019 165.238 80.8414C164.952 87.5734 164.952 95.5943 165.095 102.326C165.095 105.477 165.811 120.66 165.095 122.378C163.949 126.102 161.225 125.243 157.93 125.243C155.53 125.243 148.908 126.078 146.251 125.965C146.174 125.961 146.098 125.949 146.023 125.93C141.574 124.739 142.7 120.342 142.7 116.649C142.7 108.342 141.984 97.5995 142.987 89.5786L144.554 45.1103C144.559 44.965 144.539 44.8172 144.487 44.6816C143.089 41.0599 138.199 42.026 134.966 42.026C129.38 42.026 125.799 42.026 120.213 42.1692C113.489 42.5294 111.959 41.0778 111.64 45.2398C111.592 45.8638 112.058 46.4039 112.676 46.5036C116.428 47.1089 119.921 48.3124 123.577 50.7398C134.76 58.2964 139.174 59.1352 132.574 69.5012C132.54 69.5551 132.509 69.6134 132.483 69.672C131.357 72.2522 129.636 76.1028 126.762 76.0322C121.28 75.8746 120.02 76.468 114.452 76.5037C108.718 76.5371 103.487 76.3053 97.7544 76.2218C92.0214 76.1774 86.2901 76.0161 80.5578 75.9326C78.2316 75.8988 75.8183 76.1362 74.7564 74.8748C74.1036 74.0993 74.3179 68.994 74.4194 67.9554C74.4275 67.8732 74.4472 67.7957 74.4749 67.718C74.7529 66.938 74.9249 66.4523 75.0706 66.1519C75.1176 66.055 75.1604 65.9557 75.189 65.8519C77.513 57.428 83.6391 50.5748 92.728 47.5395C93.1656 47.3935 93.4926 47.0209 93.5765 46.5672C95.1664 37.9686 98.7158 33.3085 107.179 29.2785C114.913 25.5545 122.648 26.2705 130.955 26.1273ZM103.27 115.263C104.625 115.084 107.166 114.536 107.157 116.101C107.153 116.721 107.238 117.207 107.279 118.081C107.308 118.677 107.23 119.697 107.277 121.99C107.288 122.539 107.123 122.548 107.134 123.104C107.153 124.011 107.446 124.935 106.247 125.452C106.186 125.478 106.121 125.497 106.056 125.51C105.428 125.632 104.764 125.67 104.099 125.677C103.111 125.668 101.711 125.65 101.322 124.775C101.235 124.514 100.835 123.065 100.82 122.367C100.773 120.041 100.631 121.159 100.75 118.889C100.769 118.525 100.555 117.387 100.542 116.754C100.47 115.227 101.914 115.409 103.27 115.263ZM75.8812 113.922C76.2623 112.402 77.5912 112.854 78.9317 112.967C80.2813 113.046 82.8751 112.986 82.4048 114.528C82.2183 115.139 82.1561 115.635 81.9378 116.505C81.789 117.099 81.414 118.089 80.7823 120.361C80.6311 120.904 80.4709 120.883 80.3179 121.433C80.0676 122.333 80.0759 123.3 78.7728 123.583C78.7086 123.596 78.6424 123.603 78.5767 123.603C77.94 123.605 77.2928 123.516 76.6539 123.398C75.7106 123.202 74.3758 122.92 74.2624 121.983C74.2555 121.709 74.2999 120.204 74.4922 119.513C75.133 117.209 74.6676 118.285 75.4504 116.068C75.5761 115.712 75.7066 114.549 75.8812 113.922ZM126.819 113.174C128.141 112.895 130.581 112.164 130.86 113.707C130.971 114.318 131.146 114.792 131.348 115.65C131.486 116.236 131.597 117.247 132.066 119.504C132.179 120.045 132.016 120.067 132.13 120.613C132.315 121.505 132.777 122.391 131.683 122.991C131.622 123.025 131.555 123.051 131.487 123.069C130.885 123.236 130.23 123.322 129.569 123.379C128.579 123.445 127.175 123.533 126.625 122.699C126.489 122.448 125.822 121.05 125.679 120.363C125.203 118.073 125.267 119.186 124.967 116.94C124.919 116.579 124.495 115.473 124.365 114.849C124.012 113.35 125.49 113.42 126.819 113.174ZM103.411 98.1463C104.766 97.9674 107.308 97.4196 107.298 98.9839C107.294 99.604 107.379 100.09 107.421 100.965C107.449 101.561 107.371 102.58 107.418 104.873C107.429 105.422 107.264 105.432 107.276 105.987C107.294 106.895 107.587 107.818 106.388 108.335C106.327 108.362 106.262 108.38 106.197 108.393C105.57 108.515 104.905 108.553 104.24 108.56C103.252 108.551 101.852 108.533 101.463 107.658C101.376 107.397 100.976 105.948 100.962 105.25C100.914 102.924 100.773 104.042 100.891 101.773C100.91 101.408 100.696 100.271 100.683 99.6369C100.611 98.1106 102.055 98.2923 103.411 98.1463ZM81.0644 97.0609C81.4455 95.5414 82.7744 95.9936 84.1149 96.106C85.4645 96.1855 88.0584 96.1253 87.588 97.6668C87.4015 98.2779 87.3393 98.7739 87.121 99.6442C86.9722 100.238 86.5972 101.229 85.9655 103.5C85.8142 104.044 85.6541 104.022 85.501 104.572C85.2508 105.472 85.2591 106.439 83.956 106.722C83.8918 106.736 83.8256 106.742 83.7599 106.742C83.1232 106.744 82.476 106.656 81.837 106.537C80.8938 106.342 79.559 106.059 79.4456 105.122C79.4387 104.848 79.4831 103.343 79.6754 102.652C80.3162 100.348 79.8508 101.424 80.6336 99.2073C80.7593 98.8514 80.8898 97.6885 81.0644 97.0609ZM123.803 96.2867C125.125 96.0079 127.565 95.2762 127.844 96.8192C127.955 97.4309 128.13 97.9041 128.332 98.763C128.471 99.3486 128.581 100.359 129.05 102.617C129.163 103.157 129 103.179 129.114 103.726C129.299 104.617 129.761 105.503 128.667 106.104C128.606 106.138 128.539 106.163 128.471 106.182C127.869 106.348 127.214 106.435 126.553 106.492C125.563 106.558 124.159 106.646 123.609 105.812C123.473 105.561 122.806 104.163 122.663 103.476C122.187 101.186 122.251 102.299 121.951 100.052C121.903 99.6913 121.479 98.5858 121.349 97.9619C120.995 96.4625 122.474 96.5326 123.803 96.2867ZM103.552 81.0297C104.907 80.8506 107.449 80.3028 107.439 81.8671C107.435 82.4872 107.52 82.9736 107.562 83.8479C107.59 84.4439 107.512 85.4632 107.559 87.7561C107.57 88.3052 107.405 88.3149 107.417 88.8702C107.435 89.7779 107.728 90.7012 106.529 91.2184C106.468 91.2447 106.403 91.2636 106.338 91.2763C105.71 91.3987 105.046 91.436 104.381 91.4433C103.393 91.4345 101.993 91.4166 101.604 90.541C101.517 90.28 101.117 88.8316 101.103 88.1337C101.055 85.8076 100.914 86.9252 101.032 84.6558C101.051 84.2913 100.837 83.1539 100.824 82.5201C100.752 80.9939 102.197 81.1755 103.552 81.0297ZM86.2473 80.1997C86.6284 78.6803 87.9573 79.1326 89.2978 79.2449C90.6475 79.3244 93.2412 79.2642 92.7709 80.8057C92.5845 81.4168 92.5222 81.9128 92.3039 82.7832C92.1552 83.3766 91.7802 84.3675 91.1484 86.6386C90.9971 87.1824 90.837 87.1609 90.684 87.7109C90.4338 88.6107 90.442 89.5778 89.139 89.8606C89.0748 89.8744 89.0086 89.8808 88.9428 89.881C88.3061 89.8832 87.6589 89.7944 87.02 89.6758C86.0767 89.4804 84.7419 89.198 84.6285 88.2607C84.6216 87.9866 84.666 86.482 84.8583 85.7908C85.4991 83.4869 85.0337 84.5627 85.8165 82.3462C85.9422 81.9903 86.0727 80.8274 86.2473 80.1997ZM120.786 79.3988C122.108 79.1201 124.549 78.3883 124.828 79.9314C124.939 80.5431 125.113 81.0162 125.316 81.8752C125.454 82.4608 125.565 83.4716 126.034 85.729C126.146 86.2695 125.984 86.2915 126.097 86.8382C126.283 87.7296 126.744 88.6157 125.651 89.216C125.589 89.2498 125.523 89.2752 125.455 89.294C124.852 89.4606 124.197 89.547 123.536 89.6041C122.546 89.67 121.143 89.7579 120.593 88.924C120.457 88.6731 119.79 87.2751 119.647 86.5882C119.171 84.2981 119.235 85.4108 118.935 83.1643C118.887 82.8036 118.463 81.698 118.333 81.0742C117.979 79.5747 119.457 79.6449 120.786 79.3988ZM119.509 65.7198C120.188 65.7141 120.745 65.1459 120.6 64.4824C119.246 58.3148 108.761 57.0671 100.052 60.6603C96.7979 62.0373 94.2167 63.0298 92.542 64.2273C91.8896 64.6939 92.2788 65.5462 93.0808 65.5578C98.8962 65.6425 103.886 65.3647 109.533 65.6027C112.988 65.7517 116.252 65.7473 119.509 65.7198Z" fill="#171717"/>
</g>
</g>
<defs>
<filter id="filter0_g_863_4990" x="0" y="0" width="240" height="152" filterUnits="userSpaceOnUse" color-interpolation-filters="sRGB">
<feFlood flood-opacity="0" result="BackgroundImageFix"/>
<feBlend mode="normal" in="SourceGraphic" in2="BackgroundImageFix" result="shape"/>
<feTurbulence type="fractalNoise" baseFrequency="0.011312217451632023 0.0099999997764825821" numOctaves="3" seed="9234" />
<feDisplacementMap in="shape" scale="4" xChannelSelector="R" yChannelSelector="G" result="displacedImage" width="100%" height="100%" />
<feMerge result="effect1_texture_863_4990">
<feMergeNode in="displacedImage"/>
</feMerge>
</filter>
<clipPath id="clip0_863_4990">
<rect width="91.478" height="100" fill="white" transform="translate(74.2617 26)"/>
</clipPath>
</defs>
</svg>
