<svg width="240" height="152" viewBox="0 0 240 152" fill="none" xmlns="http://www.w3.org/2000/svg">
<g filter="url(#filter0_g_1222_312)">
<rect x="2" y="2" width="236" height="148" rx="8" fill="white"/>
<g clip-path="url(#clip0_1222_312)">
<path d="M117.108 78.9868L104.3 91.5311C103.371 92.4417 101.808 92.0644 101.397 90.8298C101.315 90.5844 101.288 90.324 101.318 90.0671L102.288 81.829V71.5767L101.309 60.6153C101.286 60.3523 101.357 60.0898 101.51 59.8751C101.914 59.3106 102.731 59.2532 103.209 59.7561L108.175 64.9787L117.784 73.9417C119.105 75.1739 119.069 77.2785 117.707 78.4649L117.108 78.9868Z" fill="#171717"/>
<path d="M104.679 72.2053C104.844 73.4244 104.877 74.7232 104.864 76.023C104.821 77.8589 104.752 80.4599 103.559 81.1778C103.205 81.3395 95.7827 82.0607 94.8421 82.0844C91.7066 82.163 89.0363 82.9179 85.9827 82.6887C82.3001 82.3989 79.0494 83.2448 75.4212 83.3358C73.3627 83.4638 73.654 80.7809 73.5012 78.2619C73.3036 75.7441 72.6473 71.0207 74.7545 71.0444C77.7147 71.123 80.2211 70.9838 83.2165 70.6794C86.3014 70.3727 89.131 70.6074 92.2216 70.53C95.3105 70.3762 98.405 70.4515 101.496 70.3739C102.75 70.3425 104.035 69.7751 104.679 72.2053Z" fill="#171717"/>
<path d="M130.329 26C130.649 26 130.968 26.0511 131.272 26.1504L162.635 36.373C162.804 36.428 162.967 36.4975 163.124 36.5811L164.514 37.3213C165.402 37.7954 165.999 38.6792 166.107 39.6807L166.848 46.5049V111.691C166.848 112.275 166.68 112.848 166.364 113.339L165.574 114.566C165.215 115.125 164.682 115.552 164.059 115.78L152.535 119.996L132.759 125.859C132.478 125.943 132.186 125.985 131.894 125.985H130.203C128.522 125.985 127.158 124.621 127.158 122.939V29.2861C127.158 28.9253 127.222 28.5669 127.348 28.2285L127.438 27.9873C127.88 26.7929 129.019 26 130.293 26H130.329ZM134.171 69.9883C133.649 69.9894 133.104 69.8316 133.077 70.5576C133.003 71.8351 133.094 72.9958 132.939 74.2842C132.814 75.353 132.9 76.3081 132.836 77.4121C132.817 77.7433 132.774 80.3682 132.798 80.4961C132.915 80.9301 133.449 81.0088 133.825 81.0625C134.092 81.0939 136.261 81.1233 136.517 81.0908C137.033 80.9152 136.95 80.4513 136.976 80.0098C137.039 78.9215 137.134 77.8353 137.182 76.7461C137.245 75.658 137.366 74.668 137.382 73.5771C137.396 72.5177 137.432 71.6328 137.524 70.5938C137.582 69.8537 134.694 69.9714 134.171 69.9883Z" fill="#171717"/>
<path d="M101.138 99.2993H98.1905H95.3222C94.631 99.2993 93.9628 99.5479 93.4397 99.9997L93.1363 100.262C92.5027 100.809 92.1387 101.604 92.1387 102.441V112.197C92.1387 112.366 92.1536 112.535 92.1831 112.702L92.7616 115.956C92.8564 116.489 93.0995 116.984 93.4631 117.386L94.8333 118.898C95.3792 119.5 96.1544 119.844 96.9674 119.844H113.813C115.082 119.844 116.202 119.012 116.569 117.797L117.075 116.123C117.157 115.853 117.199 115.572 117.199 115.29V113.385C117.199 112.177 116.445 111.097 115.31 110.681L114.924 110.54C114.525 110.394 114.099 110.337 113.677 110.375L105.966 111.063C104.162 111.224 102.659 109.701 102.845 107.899L103.465 101.878C103.516 101.388 103.41 100.893 103.163 100.467C102.744 99.7442 101.973 99.2993 101.138 99.2993Z" fill="#171717"/>
<path d="M102.576 51.1181L102.871 50.9515C103.66 50.5055 104.193 49.7137 104.31 48.8146L104.796 45.0588L105.005 42.146C105.036 41.7204 105.334 41.3615 105.747 41.253C105.829 41.2313 105.914 41.2203 106 41.2203H115.133C116.667 41.2203 117.932 40.0178 118.01 38.4858L118.21 34.528C118.24 33.9462 118.092 33.3691 117.787 32.873L117.563 32.5093C117.039 31.6575 116.11 31.1387 115.11 31.1387H100.652C100.171 31.1387 99.6979 31.259 99.2757 31.4886L95.8347 33.36C94.9703 33.8301 94.4057 34.709 94.3377 35.6906L93.5206 47.4556C93.4983 47.7756 93.5297 48.0969 93.6134 48.4066L93.8718 49.3623C94.2112 50.6185 95.3508 51.4909 96.652 51.4909H101.159C101.655 51.4909 102.144 51.3625 102.576 51.1181Z" fill="#171717"/>
</g>
</g>
<defs>
<filter id="filter0_g_1222_312" x="0" y="0" width="240" height="152" filterUnits="userSpaceOnUse" color-interpolation-filters="sRGB">
<feFlood flood-opacity="0" result="BackgroundImageFix"/>
<feBlend mode="normal" in="SourceGraphic" in2="BackgroundImageFix" result="shape"/>
<feTurbulence type="fractalNoise" baseFrequency="0.011312217451632023 0.0099999997764825821" numOctaves="3" seed="9234" />
<feDisplacementMap in="shape" scale="4" xChannelSelector="R" yChannelSelector="G" result="displacedImage" width="100%" height="100%" />
<feMerge result="effect1_texture_1222_312">
<feMergeNode in="displacedImage"/>
</feMerge>
</filter>
<clipPath id="clip0_1222_312">
<rect width="93.6913" height="100" fill="white" transform="translate(73.1543 26)"/>
</clipPath>
</defs>
</svg>
