<svg width="240" height="152" viewBox="0 0 240 152" fill="none" xmlns="http://www.w3.org/2000/svg">
<g filter="url(#filter0_g_863_5309)">
<rect x="2" y="2" width="236" height="148" rx="8" fill="white"/>
<g clip-path="url(#clip0_863_5309)">
<path d="M152.318 63.577C151.242 64.1623 150.036 64.6171 148.81 65.0194C147.069 65.5567 144.598 66.3092 143.425 65.1347C143.125 64.7689 139.347 56.2555 138.932 55.1548C137.549 51.486 135.724 48.5818 134.664 44.9108C133.397 40.4792 131.245 36.9205 129.644 32.675C128.663 30.2908 131.304 29.7737 133.605 28.7861C135.887 27.746 140.048 25.4584 140.906 27.9486C142.069 31.4613 143.247 34.3697 144.784 37.8012C146.361 41.3374 147.322 44.7464 148.686 48.363C150.121 51.9527 151.343 55.6227 152.707 59.2393C153.261 60.7068 154.33 62.0396 152.318 63.577Z" fill="#171717"/>
<path d="M178.57 43.5016C180.556 43.4133 182.214 44.9987 182.214 46.9859V122.016C182.214 123.943 180.652 125.504 178.726 125.504H61.1699C59.2436 125.504 57.6816 123.942 57.6816 122.016V52.2066C57.6816 50.3404 59.1512 48.805 61.0156 48.7223L178.57 43.5016ZM125.783 66.6646C125.859 64.0319 121.159 64.7036 118.657 64.8717C116.156 64.9838 113.502 64.5361 113.578 67.1129C113.578 71.2825 114.216 75.0735 114.025 79.2252C113.653 79.2364 113.276 79.2447 112.894 79.2447C111.716 79.2448 102.422 79.7663 101.971 79.9156C100.458 80.5871 100.29 83.1241 100.178 84.9146C100.122 86.183 100.122 87.4514 100.29 88.6451C101.018 91.0324 102.643 90.5104 104.211 90.5103C107.582 90.5103 110.954 90.6236 114.325 90.6031C114.331 90.8743 114.336 91.148 114.336 91.4244C114.336 92.6011 114.867 101.896 115.019 102.347C115.701 103.86 118.278 104.028 120.098 104.14C121.386 104.196 122.675 104.196 123.888 104.028C126.314 103.3 125.783 101.676 125.783 100.107C125.783 96.9752 125.88 93.8433 125.878 90.7115C126.271 90.6986 126.667 90.6829 127.066 90.6598C130.819 90.4359 133.956 90.3612 137.653 90.5103C140.286 90.585 139.614 85.9597 139.446 83.4977C139.334 81.0356 139.782 78.4241 137.205 78.4986C133.342 78.4987 129.804 79.0368 126.003 78.9674C125.99 78.4016 125.969 77.8302 125.935 77.2516C125.707 73.4986 125.632 70.3617 125.783 66.6646Z" fill="#171717"/>
<path d="M96.8475 36.7221C96.6582 35.536 96.6582 34.2759 96.7213 33.0157C96.8475 31.2366 97.0369 28.7163 98.7407 28.0491C99.2455 27.9009 109.721 27.382 111.046 27.382C115.464 27.382 119.25 26.7148 123.541 27.0113C128.716 27.382 133.323 26.6407 138.434 26.6407C141.337 26.5666 140.832 29.1611 140.959 31.6073C141.148 34.0535 141.905 38.6494 138.939 38.5753C134.774 38.427 131.24 38.5011 127.012 38.7235C122.658 38.9459 118.682 38.6494 114.328 38.6494C109.973 38.7235 105.619 38.5753 101.265 38.5753C99.498 38.5753 97.6678 39.0942 96.8475 36.7221Z" fill="#171717"/>
<path d="M87.7587 65.1144C88.8631 65.6432 90.091 66.0351 91.3358 66.3735C93.103 66.82 95.6097 67.4437 96.7196 66.2102C97.0002 65.8294 100.333 57.1322 100.691 56.0115C101.883 52.2759 103.555 49.2816 104.424 45.5605C105.46 41.0693 107.425 37.4041 108.805 33.0816C109.661 30.6498 106.997 30.27 104.647 29.4026C102.315 28.4819 98.0419 26.4124 97.3136 28.9436C96.334 32.5118 95.3078 35.4771 93.9501 38.9834C92.5582 42.5965 91.7741 46.0506 90.5989 49.7329C89.3514 53.392 88.3206 57.1203 87.1454 60.8024C86.6686 62.2966 85.6691 63.6829 87.7587 65.1144Z" fill="#171717"/>
</g>
</g>
<defs>
<filter id="filter0_g_863_5309" x="0" y="0" width="240" height="152" filterUnits="userSpaceOnUse" color-interpolation-filters="sRGB">
<feFlood flood-opacity="0" result="BackgroundImageFix"/>
<feBlend mode="normal" in="SourceGraphic" in2="BackgroundImageFix" result="shape"/>
<feTurbulence type="fractalNoise" baseFrequency="0.011312217451632023 0.0099999997764825821" numOctaves="3" seed="9234" />
<feDisplacementMap in="shape" scale="4" xChannelSelector="R" yChannelSelector="G" result="displacedImage" width="100%" height="100%" />
<feMerge result="effect1_texture_863_5309">
<feMergeNode in="displacedImage"/>
</feMerge>
</filter>
<clipPath id="clip0_863_5309">
<rect width="125.331" height="100" fill="white" transform="translate(57.334 26)"/>
</clipPath>
</defs>
</svg>
