<svg width="240" height="152" viewBox="0 0 240 152" fill="none" xmlns="http://www.w3.org/2000/svg">
<g filter="url(#filter0_g_863_5182)">
<rect x="2" y="2" width="236" height="148" rx="8" fill="white"/>
<g clip-path="url(#clip0_863_5182)">
<path d="M166.245 26.2969C167.807 26.2969 169.073 27.5625 169.073 29.124V122.854C169.073 124.415 167.807 125.681 166.245 125.681H73.6475C72.086 125.681 70.8204 124.415 70.8203 122.854V29.124C70.8204 27.5625 72.0859 26.2969 73.6475 26.2969H166.245ZM121.895 49.416C114.697 49.2467 108.091 49.332 100.978 49.332C97.1676 49.3322 97.675 52.1259 97.7598 55.0049C97.8445 60.4244 98.3525 62.4571 97.7598 68.2998C97.0824 74.3121 97.252 75.9216 97.5908 81.6797C97.7601 85.6596 97.7605 90.4019 97.6758 94.3818C97.6758 96.2448 97.2525 105.221 97.6758 106.237C98.3533 108.439 100.808 108.016 102.756 108.016C104.195 108.016 111.393 108.524 112.918 108.439C115.628 107.762 114.95 105.136 114.95 102.935C114.95 98.0231 115.374 91.6718 114.781 86.9297C114.358 82.6962 117.915 83.6279 120.963 83.6279C124.943 83.6279 127.738 83.5427 131.718 83.458C136.036 83.3731 136.46 80.8327 140.017 78.377C145.944 74.2276 145.013 68.8929 144.166 62.542C143.319 56.7837 141.286 53.8197 135.951 51.2793C131.379 49.0777 126.806 49.5007 121.895 49.416ZM113.85 60.5098C114.612 58.2234 117.576 58.8164 119.523 58.8164C122.826 58.8164 124.943 58.8157 128.245 58.9004C132.987 59.1545 133.58 62.457 133.58 67.1143C133.58 71.7717 129.516 74.0587 125.197 74.1436C121.725 74.1436 123.249 74.2276 119.777 73.9736C118.846 73.8889 118.083 73.9744 117.236 73.8896C112.41 73.1271 112.918 63.0503 113.85 60.5098Z" fill="#171717"/>
</g>
</g>
<defs>
<filter id="filter0_g_863_5182" x="0" y="0" width="240" height="152" filterUnits="userSpaceOnUse" color-interpolation-filters="sRGB">
<feFlood flood-opacity="0" result="BackgroundImageFix"/>
<feBlend mode="normal" in="SourceGraphic" in2="BackgroundImageFix" result="shape"/>
<feTurbulence type="fractalNoise" baseFrequency="0.011312217451632023 0.0099999997764825821" numOctaves="3" seed="9234" />
<feDisplacementMap in="shape" scale="4" xChannelSelector="R" yChannelSelector="G" result="displacedImage" width="100%" height="100%" />
<feMerge result="effect1_texture_863_5182">
<feMergeNode in="displacedImage"/>
</feMerge>
</filter>
<clipPath id="clip0_863_5182">
<rect width="98.9542" height="100" fill="white" transform="translate(70.5234 26)"/>
</clipPath>
</defs>
</svg>
