<svg width="240" height="152" viewBox="0 0 240 152" fill="none" xmlns="http://www.w3.org/2000/svg">
<g filter="url(#filter0_g_863_5148)">
<rect x="2" y="2" width="236" height="148" rx="8" fill="white"/>
<g clip-path="url(#clip0_863_5148)">
<path d="M99.4857 30.8407C118.986 22.1673 131.987 25.7213 149.085 36.954C159.471 43.787 162.457 51.8894 166.432 62.6747C166.675 63.3334 166.921 64.0024 167.173 64.6815C169.01 69.5159 169.858 73.2127 169.999 78.4735C169.717 92.4079 164.63 104.636 151.912 112.314C148.654 114.275 146.007 116.146 143.611 117.84C136.447 122.905 131.517 126.391 119.128 125.965C100.334 125.254 85.3552 116.865 76.0287 100.228C67.6914 85.1565 68.1156 67.5255 76.5941 52.5956C81.6812 43.78 90.1594 35.1065 99.4857 30.8407ZM112.36 68.2821C112.033 68.264 111.379 68.1546 111.124 68.3905C110.888 68.5904 110.996 69.0449 110.996 69.372C110.978 70.0987 110.906 70.5533 110.996 71.3163C111.105 72.1698 110.615 72.1155 110.016 71.8612C107.926 70.9891 106.091 71.6793 104.783 73.4599C103.747 74.8589 103.62 77.0216 104.402 78.5478C104.565 78.8927 104.746 79.1654 104.964 79.456C105.836 80.5643 107.327 81.1998 108.707 80.8183C109.107 80.7093 109.96 80.1834 110.215 80.2011C110.506 80.2011 110.724 80.3643 110.815 80.6366C110.996 81.109 111.542 81.0546 111.96 81.0546C112.269 81.0546 113.014 81.0731 113.25 80.8915C113.577 80.6372 113.486 80.1284 113.486 79.747C113.486 78.4025 113.522 77.0758 113.54 75.7314C113.577 74.187 113.304 72.8236 113.486 71.2792C113.595 70.4618 113.723 69.7534 113.614 68.9179C113.523 68.2094 112.905 68.3184 112.36 68.2821ZM101.037 71.9335C99.6204 71.2251 98.3666 71.4791 96.9496 72.0605C96.0957 72.4238 95.4598 73.1691 94.933 73.914C94.3515 74.7316 94.1154 75.6588 94.1517 76.6581C94.2246 79.0926 96.1687 80.8372 98.5306 81.037C99.0391 81.0733 99.4569 81.0367 99.9291 80.8915C101.891 80.2738 102.872 79.1466 103.472 77.2206C103.872 75.9126 103.418 75.1134 102.891 73.9325C102.473 72.9695 101.982 72.4059 101.037 71.9335ZM149.726 71.9335C148.309 71.225 147.055 71.4791 145.638 72.0605C144.784 72.4238 144.148 73.1691 143.621 73.914C143.04 74.7316 142.804 75.6588 142.84 76.6581C142.913 79.0925 144.856 80.837 147.218 81.037C147.727 81.0734 148.145 81.0368 148.618 80.8915C150.58 80.2738 151.561 79.1466 152.16 77.2206C152.56 75.9127 152.106 75.1133 151.579 73.9325C151.162 72.9695 150.671 72.4059 149.726 71.9335ZM78.6703 68.3544C77.8528 68.3544 77.9616 68.9536 77.9798 69.5712C77.998 70.734 78.107 71.171 77.9798 72.4247C77.8345 73.7143 77.871 74.0596 77.9437 75.2948C77.98 76.1488 77.9794 77.1665 77.9613 78.0204C77.9613 78.4201 77.8704 80.3463 77.9613 80.5644C78.1067 81.0364 78.6333 80.9463 79.0511 80.9462C79.36 80.9462 80.9045 81.0552 81.2318 81.037C81.8132 80.8917 81.6683 80.3278 81.6683 79.8554C81.6683 78.8016 81.7583 77.4392 81.6312 76.4218C81.5404 75.5133 82.3042 75.7128 82.9583 75.7128C83.8119 75.7128 84.4114 75.6948 85.265 75.6767C86.1916 75.6585 86.2832 75.1137 87.0462 74.5868C88.3181 73.6965 88.1176 72.5511 87.9359 71.1884C87.7542 69.9532 87.3185 69.3174 86.1742 68.7724C85.193 68.3 84.2114 68.3911 83.1576 68.373C81.6134 68.3366 80.1963 68.3544 78.6703 68.3544ZM116.383 71.498C116.092 71.498 114.857 71.4796 114.675 71.5341C114.221 71.734 114.385 72.152 114.403 72.5517C114.421 73.0784 114.367 73.5869 114.367 74.1317C114.385 74.604 114.312 75.0222 114.348 75.5126C114.366 75.8942 114.348 76.258 114.367 76.6396C114.367 77.1119 114.494 77.5842 114.603 78.0565C114.803 78.9287 115.057 79.3646 115.711 79.9823C116.474 80.6363 117.437 80.928 118.436 80.9462C118.926 80.9462 119.508 80.8552 119.89 80.5282C120.144 80.3102 120.253 80.1824 120.617 80.3095C121.053 80.5093 120.726 80.9999 122.088 80.9999C122.361 81.0181 123.179 81.0181 123.361 80.9091C123.742 80.6729 123.633 80.2734 123.651 79.8739C123.651 79.2926 123.687 78.7111 123.687 78.1298C123.705 77.3304 123.778 76.6577 123.724 75.8583C123.669 75.277 123.669 75.0226 123.724 74.4413C123.778 73.7872 123.742 73.3327 123.651 72.6786C123.614 72.5331 123.542 71.9696 123.505 71.8788C123.342 71.4796 122.978 71.5337 122.633 71.5155C122.378 71.5155 121.598 71.4614 121.398 71.5341C120.98 71.6977 121.053 72.1336 121.053 72.497C121.053 73.3691 120.998 74.0413 121.125 74.9315C121.18 75.4766 121.125 77.0396 120.944 77.5302C120.726 78.0749 120.072 77.9658 119.527 78.1474C118.818 78.3654 118.327 78.0381 117.819 77.5839C117.274 77.0934 117.237 76.3127 117.164 75.6405C117.11 75.2228 117.02 74.8229 117.001 74.4052C117.001 74.1691 117.019 73.9689 117.001 73.7148C116.947 73.1878 116.91 73.478 116.91 72.9511V72.0429C116.91 71.7522 116.674 71.498 116.383 71.498ZM91.4964 72.1513C90.915 71.9514 91.1144 71.243 89.4974 71.5155C88.6071 71.6609 88.5888 72.1338 88.5707 72.9696V73.7685C88.5343 74.5496 88.5349 75.1495 88.5531 75.9306C88.5712 76.5665 88.5341 77.2028 88.516 77.8388C88.4796 78.7109 88.5894 79.5649 88.6439 80.4189C88.6984 81.0365 89.025 81.0187 89.5882 80.9823C89.9334 80.946 91.0239 80.9818 91.2601 80.8183C91.5687 80.6365 91.5873 80.1823 91.5873 79.8554C91.6054 77.9116 91.0782 77.5298 91.8773 75.6044C92.3133 74.5507 92.6224 74.5681 93.6214 74.1503C94.4572 73.8051 94.3121 73.351 94.2757 72.5517C94.2576 71.5525 94.0216 71.3703 93.0589 71.6972C92.623 71.8425 91.9325 72.2419 91.4964 72.1513ZM161.012 72.6972C159.886 71.4798 158.395 71.2434 156.832 71.6249C155.852 71.861 155.996 71.7878 155.034 71.5517C154.234 71.3702 153.271 71.5703 153.053 72.4784C152.762 73.6231 152.944 76.1491 152.926 77.4755C152.908 78.3839 152.945 79.2927 152.945 80.2011V80.4374C152.945 80.7279 153.181 80.9638 153.49 80.9638C153.799 80.9638 154.762 81.0181 154.98 80.9091C155.379 80.7091 155.271 80.1465 155.252 79.747C155.234 78.5841 155.052 75.5492 155.488 74.6044C156.305 72.842 158.323 73.0967 159.013 74.8046C159.34 75.6222 159.212 76.8036 159.267 77.6757C159.321 78.5658 159.395 79.2928 159.395 80.2011V80.4374C159.395 80.7279 159.649 80.9638 159.94 80.9638C160.267 80.9638 161.757 81.0181 161.956 80.9091C162.338 80.691 162.229 80.2008 162.229 79.8192C162.193 78.5837 162.119 77.2569 162.21 75.9306C162.283 74.5683 161.902 73.6962 161.012 72.6972ZM136.071 68.373C135.725 68.3185 134.908 68.336 134.618 68.5175C134.2 68.8627 134.236 69.3717 134.2 69.8622C134.163 70.2618 134.163 71.1697 133.8 71.37C133.564 71.5154 133.454 71.4981 133.364 71.8251C133.255 72.2251 133.255 73.2417 133.655 73.496C133.727 73.5323 133.782 73.5505 133.855 73.5868C134.2 73.6412 134.236 73.6054 134.254 74.0048C134.291 74.4408 134.308 74.9135 134.327 75.3495C134.345 76.0398 134.291 76.6757 134.345 77.4023C134.454 78.6559 134.654 79.9099 135.944 80.455C136.107 80.5276 136.289 80.5821 136.452 80.6366C137.107 80.8546 137.524 80.9274 138.197 80.9638C138.342 80.9638 138.488 80.9091 138.597 80.8183C138.851 80.4914 138.742 80.2368 138.796 79.8554C138.833 79.5643 138.978 78.1659 138.705 77.9843C138.269 77.7118 137.452 77.7841 137.198 77.0937C137.034 76.6939 137.107 76.0035 137.071 75.5312C137.052 74.9499 137.07 75.5491 137.107 74.9677C137.125 74.7133 137.107 74.0966 137.27 73.8964C137.579 73.5875 138.415 74.0777 138.724 73.2421C138.797 72.9879 138.815 71.9894 138.724 71.7343C138.252 70.9348 137.307 72.0972 137.198 70.3349C137.179 70.0079 137.143 69.7716 137.107 69.4628C137.089 69.3174 137.089 69.1716 137.071 69.0263C136.962 68.4451 136.579 68.4456 136.071 68.373ZM140.91 71.661C140.092 71.5883 139.602 71.2253 139.547 72.497C139.493 73.6415 139.675 74.7679 139.602 75.9306C139.547 76.8027 139.529 77.4026 139.566 78.2929C139.584 78.9288 139.602 79.5652 139.602 80.2011V80.4374C139.602 80.7279 139.856 80.9638 140.147 80.9638H141.655C142.327 80.9093 142.2 80.2551 142.182 79.7646C142.146 78.6018 142.036 77.8387 142.145 76.6396C142.236 75.6221 142.273 74.8406 142.237 73.8232C142.237 73.4776 142.236 72.0611 142.145 71.8612C142 71.5342 141.273 71.6974 140.91 71.661ZM131.438 72.1513C129.53 71.0612 126.713 71.4614 125.296 73.1874C124.461 74.223 124.388 75.1865 124.352 76.4765C124.407 78.9654 126.26 80.5826 128.621 80.8915C130.111 81.055 132.31 80.528 133.019 79.0927C133.4 78.3296 132.909 78.1299 132.346 77.6757C131.292 76.7854 131.038 78.0201 129.584 78.329C128.676 78.5106 127.549 77.9478 127.04 76.8759C126.259 75.1861 128.113 73.0964 130.021 73.8232C130.638 74.0774 130.729 74.2775 131.238 74.6044C131.746 74.9496 132.147 74.5687 132.637 74.3144C132.964 74.1327 133.128 74.0049 133 73.6415C132.837 73.278 131.819 72.3875 131.438 72.1513ZM97.0218 76.9853C96.3859 75.1502 98.1307 73.1508 100.038 74.0409C100.238 74.1318 100.348 74.2233 100.511 74.3505C101.492 75.2408 101.764 76.6575 100.856 77.7294C99.6567 79.1102 97.6579 78.8201 97.0218 76.9853ZM145.71 76.9853C145.074 75.1502 146.819 73.1506 148.727 74.0409C148.927 74.1317 149.035 74.2234 149.199 74.3505C150.18 75.2407 150.453 76.6574 149.544 77.7294C148.345 79.1102 146.346 78.8201 145.71 76.9853ZM107.817 74.1864C108.598 73.9139 109.398 74.4409 109.725 75.1493C109.925 75.549 110.016 76.058 110.052 76.494C110.179 78.0748 110.252 78.8016 108.344 78.4745C107 78.2565 106.092 77.9113 106.201 76.1308C106.273 75.2225 106.963 74.4591 107.817 74.1864ZM81.432 70.7528C81.5955 70.2624 82.2309 70.3895 82.6488 70.3896C83.3574 70.3896 83.8122 70.389 84.5208 70.4071C85.538 70.4618 85.6654 71.1707 85.6654 72.1698C85.6654 73.1691 84.7931 73.6594 83.8666 73.6776C83.1216 73.6776 83.4484 73.696 82.7035 73.6415C82.5037 73.6234 82.3402 73.6421 82.1585 73.6239C81.1229 73.4604 81.2321 71.298 81.432 70.7528ZM141.546 68.2821C141.237 68.2821 140.11 68.2454 139.91 68.3544C139.493 68.5906 139.692 69.5357 139.765 69.9355C139.819 70.3351 139.856 70.753 140.328 70.8983C140.619 70.9892 141.782 71.0068 142.036 70.8251C142.4 70.5523 142.236 69.4627 142.218 69.0448C142.2 68.5544 142.109 68.2823 141.546 68.2821Z" fill="#171717"/>
</g>
</g>
<defs>
<filter id="filter0_g_863_5148" x="0" y="0" width="240" height="152" filterUnits="userSpaceOnUse" color-interpolation-filters="sRGB">
<feFlood flood-opacity="0" result="BackgroundImageFix"/>
<feBlend mode="normal" in="SourceGraphic" in2="BackgroundImageFix" result="shape"/>
<feTurbulence type="fractalNoise" baseFrequency="0.011312217451632023 0.0099999997764825821" numOctaves="3" seed="9234" />
<feDisplacementMap in="shape" scale="4" xChannelSelector="R" yChannelSelector="G" result="displacedImage" width="100%" height="100%" />
<feMerge result="effect1_texture_863_5148">
<feMergeNode in="displacedImage"/>
</feMerge>
</filter>
<clipPath id="clip0_863_5148">
<rect width="100" height="100" fill="white" transform="translate(70 26)"/>
</clipPath>
</defs>
</svg>
