<svg width="240" height="152" viewBox="0 0 240 152" fill="none" xmlns="http://www.w3.org/2000/svg">
<g filter="url(#filter0_g_863_4897)">
<rect x="2" y="2" width="236" height="148" rx="8" fill="white"/>
<g clip-path="url(#clip0_863_4897)">
<g filter="url(#filter1_g_863_4897)">
<path d="M133.918 107.09L133.364 79.8259C133.493 78.7124 129.954 78.6771 128.828 77.9111C127.902 77.2811 127.337 76.4227 127.245 75.5059L126.3 66.0605C126.275 65.8101 126.232 65.5619 126.171 65.3178L124.217 57.4497C124.133 57.1133 124.087 56.7727 124.077 56.4309L123.676 42.5346C123.638 41.2296 124.142 39.9463 125.122 38.85L131.046 32.2243C131.71 31.4817 132.575 30.8442 133.59 30.3501L140.202 27.1301C141.608 26.445 143.484 26.5552 144.719 27.3954C145.429 27.8784 145.84 28.5474 145.86 29.2518L146.377 47.5555L145.86 80.8855L145.173 113.206C145.286 114.713 144.674 116.202 143.441 117.421L142.623 118.228C141.03 119.803 138.415 120.661 135.726 120.493C132.628 120.3 134.065 120 134.022 118.198C134.009 117.679 133.941 117.157 133.985 116.64C134.241 113.659 137.27 110.57 135.143 108.466C134.484 107.813 133.899 107.257 133.918 107.09Z" fill="#171717"/>
</g>
<path d="M97.2929 52.1784C96.7684 52.2872 96.2111 52.2872 95.6538 52.251C94.8671 52.1784 93.7525 52.0695 93.4575 51.0897C93.3919 50.7994 93.1625 44.7754 93.1625 44.0133C93.1625 41.473 92.8675 39.2958 92.9986 36.8281C93.1625 33.8524 92.8347 31.2033 92.8347 28.2639C92.8019 26.5946 93.9492 26.8849 95.031 26.8123C96.1128 26.7034 98.1452 26.268 98.1124 27.9736C98.0469 30.3687 98.0796 32.4008 98.178 34.8322C98.2763 37.3362 98.1452 39.6224 98.1452 42.1263C98.178 44.6303 98.1124 47.1342 98.1124 49.6381C98.1124 50.6543 98.3419 51.7066 97.2929 52.1784Z" fill="#171717"/>
<path d="M104.904 52.1784C104.38 52.2872 103.822 52.2872 103.265 52.251C102.478 52.1784 101.364 52.0695 101.069 51.0897C101.003 50.7994 100.774 44.7754 100.774 44.0133C100.774 41.4732 100.479 39.2958 100.61 36.8281C100.774 33.8524 100.446 31.2033 100.446 28.2639C100.413 26.5946 101.561 26.8849 102.642 26.8123C103.724 26.7034 105.757 26.268 105.724 27.9736C105.658 30.3687 105.691 32.4008 105.789 34.8322C105.888 37.3362 105.757 39.6224 105.757 42.1263C105.789 44.6303 105.724 47.1342 105.724 49.6381C105.724 50.6543 105.953 51.7066 104.904 52.1784Z" fill="#171717"/>
<path d="M111.861 52.1784C111.337 52.2872 110.78 52.2872 110.222 52.251C109.435 52.1784 108.321 52.0695 108.026 51.0897C107.96 50.7994 107.731 44.7754 107.731 44.0133C107.731 41.473 107.436 39.2958 107.567 36.8281C107.731 33.8524 107.403 31.2033 107.403 28.2639C107.37 26.5946 108.518 26.8849 109.599 26.8123C110.681 26.7034 112.714 26.268 112.681 27.9736C112.615 30.3687 112.648 32.4008 112.746 34.8322C112.845 37.3362 112.714 39.6224 112.714 42.1263C112.746 44.6303 112.681 47.1342 112.681 49.6381C112.681 50.6543 112.91 51.7066 111.861 52.1784Z" fill="#171717"/>
<path d="M118.792 53.0936C118.255 53.2064 117.684 53.2064 117.113 53.1688C116.307 53.0937 115.166 52.9809 114.863 51.966C114.796 51.6652 114.561 45.4249 114.561 44.6355C114.561 42.004 114.259 39.7485 114.393 37.1923C114.561 34.1098 114.225 31.3656 114.225 28.3207C114.192 26.5914 115.367 26.8922 116.475 26.817C117.583 26.7042 119.665 26.2531 119.632 28.0199C119.565 30.501 119.598 32.6061 119.699 35.1248C119.8 37.7186 119.665 40.0868 119.665 42.6807C119.699 45.2745 119.632 47.8685 119.632 50.4623C119.632 51.5148 119.867 52.6049 118.792 53.0936Z" fill="#171717"/>
<path d="M143.949 125.672C142.567 125.929 141.099 125.929 139.631 125.843C137.559 125.672 134.623 125.414 133.846 123.098C133.673 122.412 133.068 108.17 133.068 106.369C133.068 100.363 132.291 95.2159 132.637 89.3822C133.068 82.3473 132.205 76.0846 132.205 69.1355C132.119 65.189 135.141 65.8754 137.99 65.7037C140.84 65.4464 146.194 64.417 146.107 68.4491C145.935 74.1113 146.021 78.9157 146.28 84.6636C146.539 90.5833 146.194 95.9881 146.194 101.908C146.28 107.827 146.107 113.747 146.107 119.666C146.107 122.069 146.712 124.556 143.949 125.672Z" fill="#171717"/>
<path d="M111.558 125.672C110.19 125.929 108.735 125.929 107.281 125.843C105.228 125.672 102.319 125.414 101.549 123.098C101.378 122.412 100.779 108.17 100.779 106.369C100.779 100.363 100.009 95.2159 100.351 89.3822C100.779 82.3473 99.9237 76.0846 99.9237 69.1355C99.8381 65.189 102.832 65.8754 105.656 65.7037C108.479 65.4464 113.783 64.417 113.697 68.4491C113.526 74.1113 113.612 78.9157 113.868 84.6636C114.125 90.5833 113.783 95.9881 113.783 101.908C113.868 107.827 113.697 113.747 113.697 119.666C113.697 122.069 114.296 124.556 111.558 125.672Z" fill="#171717"/>
<path d="M111.304 47.9142C111.81 47.5572 112.443 47.553 112.953 47.9036L117.641 51.1202C118.841 51.9436 119.605 53.4242 119.67 55.0524C119.689 55.5181 119.65 55.9843 119.554 56.4364L118.733 60.3117C118.524 61.3004 118.093 62.2046 117.486 62.9309L115.83 64.9113C115.568 65.2244 115.362 65.5966 115.225 66.0054C114.846 67.1414 113.978 67.9512 112.949 68.1296L112.704 68.1722L106.666 69.2188C106.144 69.3093 105.613 69.2995 105.093 69.1901L100.577 68.2383L99.2054 67.9491C98.2982 67.758 97.5609 66.9781 97.3041 65.9382C97.1939 65.492 96.9876 65.0866 96.7052 64.7609L94.9608 62.7488C94.2089 61.8815 93.7155 60.7524 93.5546 59.5305L93.3769 58.1817L93.3763 58.1771L93.3762 58.1722L93.2602 51.2107C93.2412 50.0692 93.8721 49.055 94.8032 48.7302L97.4101 47.8212C97.5261 47.7807 97.6423 47.8848 97.6401 48.0271C97.6395 48.0676 97.6689 48.1 97.7034 48.0969L101.274 47.763C101.855 47.7088 102.44 47.8307 102.97 48.1154L102.974 48.1172L102.977 48.1197L105.594 50.0408C105.791 50.1859 106.019 50.2628 106.252 50.2628C106.469 50.2628 106.682 50.1957 106.87 50.0685L108.164 49.1918L108.168 49.1891L109.443 48.4696C109.741 48.3012 110.065 48.2021 110.395 48.1782L110.627 48.1614C110.866 48.1441 111.099 48.0593 111.304 47.9142Z" fill="#171717"/>
<path d="M112.781 48.9917H100.445V52.2725H112.781V48.9917Z" fill="#171717"/>
</g>
</g>
<defs>
<filter id="filter0_g_863_4897" x="0" y="0" width="240" height="152" filterUnits="userSpaceOnUse" color-interpolation-filters="sRGB">
<feFlood flood-opacity="0" result="BackgroundImageFix"/>
<feBlend mode="normal" in="SourceGraphic" in2="BackgroundImageFix" result="shape"/>
<feTurbulence type="fractalNoise" baseFrequency="0.011312217451632023 0.0099999997764825821" numOctaves="3" seed="9234" />
<feDisplacementMap in="shape" scale="4" xChannelSelector="R" yChannelSelector="G" result="displacedImage" width="100%" height="100%" />
<feMerge result="effect1_texture_863_4897">
<feMergeNode in="displacedImage"/>
</feMerge>
</filter>
<filter id="filter1_g_863_4897" x="123.278" y="26.2864" width="23.4946" height="94.6235" filterUnits="userSpaceOnUse" color-interpolation-filters="sRGB">
<feFlood flood-opacity="0" result="BackgroundImageFix"/>
<feBlend mode="normal" in="SourceGraphic" in2="BackgroundImageFix" result="shape"/>
<feTurbulence type="fractalNoise" baseFrequency="0.21126057207584381 0.15208804607391357" numOctaves="3" seed="9234" />
<feDisplacementMap in="shape" scale="0.79145181179046631" xChannelSelector="R" yChannelSelector="G" result="displacedImage" width="100%" height="100%" />
<feMerge result="effect1_texture_863_4897">
<feMergeNode in="displacedImage"/>
</feMerge>
</filter>
<clipPath id="clip0_863_4897">
<rect width="54.3307" height="100" fill="white" transform="translate(92.834 26)"/>
</clipPath>
</defs>
</svg>
