<svg width="240" height="152" viewBox="0 0 240 152" fill="none" xmlns="http://www.w3.org/2000/svg">
<g filter="url(#filter0_g_863_4943)">
<rect x="2" y="2" width="236" height="148" rx="8" fill="white"/>
<g clip-path="url(#clip0_863_4943)">
<path d="M108.596 36.8034C108.083 38.1536 107.846 39.1861 107.807 40.6554C107.886 44.5473 109.306 47.9625 112.858 50.1069C116.489 52.2911 117.397 54.0782 122.015 53.9193C127.264 53.7207 131.447 51.3778 134.052 46.7315C136.38 42.5219 136.262 37.5976 133.894 33.4278C132.473 30.9657 130.105 28.5432 127.501 27.3519C122.054 24.9294 118.423 25.9222 113.648 29.0595C110.569 31.0848 109.819 33.5072 108.596 36.8034Z" fill="#171717"/>
<path d="M103.911 58.6963C106.119 58.5959 108.84 58.4717 111.005 58.6553C114.061 58.4412 117.695 58.6367 120.691 58.7979C121.43 58.8376 122.13 58.8754 122.773 58.9043C123.765 58.9341 124.767 58.9408 125.75 58.9473C128.287 58.9641 130.703 58.9794 132.522 59.3897C133.708 59.4123 134.893 59.4658 135.96 59.5137C136.464 59.5363 136.942 59.5578 137.381 59.5743C138.057 59.5912 138.74 59.595 139.411 59.5987C143.056 59.6187 146.335 59.6373 146.223 61.7539C146.223 63.5296 146.009 65.2348 145.797 66.9297C145.481 69.4469 145.169 71.9416 145.563 74.6114C145.872 76.7762 145.594 78.7926 145.31 80.8555C145.108 82.3226 144.903 83.8136 144.903 85.3985C144.903 86.5426 143.98 95.5861 143.716 96.0225C142.528 97.4935 138.04 97.6567 134.873 97.7657C134.656 97.7709 134.439 97.7761 134.221 97.7803C133.992 99.8674 133.797 101.997 133.797 104.233C133.797 106.241 132.443 122.113 132.056 122.882C130.316 125.464 123.74 125.751 119.098 125.942C115.811 126.038 112.523 126.038 109.429 125.751C104.19 124.699 104.356 122.55 104.53 120.291C104.562 119.881 104.594 119.468 104.594 119.057C104.594 116.417 104.531 113.778 104.47 111.139C104.377 107.18 104.284 103.22 104.4 99.2608C104.4 98.4751 104.389 97.6972 104.371 96.9258C101.304 96.8125 97.3499 96.5814 96.2517 95.2041C95.9908 94.7623 95.0791 85.7264 95.0789 84.5811C95.0789 82.9963 94.8769 81.5051 94.6775 80.0381C94.3972 77.975 94.1229 75.958 94.4275 73.793C94.8168 71.1233 94.5085 68.6285 94.1971 66.1114C93.9873 64.4165 93.7762 62.7113 93.7762 60.9356C93.6662 58.819 96.9024 58.8014 100.502 58.7813C101.164 58.7776 101.839 58.7738 102.508 58.7569C102.941 58.7404 103.413 58.719 103.911 58.6963ZM129.069 65.0508C128.279 65.0508 127.557 65.3423 126.987 65.7735C126.607 66.0608 126.123 66.395 125.641 66.6582C125.313 66.8377 124.811 66.9558 124.282 67.0098C123.383 67.1015 122.15 67.6213 121.948 69.0371C121.903 69.3532 121.866 69.7239 121.846 70.1475C121.75 72.2248 122.285 73.4215 122.954 75.2452C123.342 76.302 124.106 77.7303 125.244 78.9151C126.388 80.1054 127.998 81.1348 130.043 81.1348C130.08 81.1348 130.117 81.1326 130.154 81.1289C130.843 81.0624 131.496 80.76 132.051 80.419C132.619 80.069 133.171 79.6232 133.67 79.168C134.667 78.2574 135.544 77.2252 136.036 76.6104C136.457 76.0838 136.8 75.2528 137.062 74.4522C137.339 73.6073 137.578 72.6344 137.737 71.709C137.894 70.7983 137.985 69.8633 137.933 69.1172C137.909 68.7584 137.844 68.3324 137.662 67.959C137.464 67.5534 137.019 67.0352 136.257 67.0352C135.686 67.0352 135.401 66.9905 135.168 66.9307C134.843 66.8469 134.687 66.767 134.065 66.5703C134.064 66.5699 134.047 66.565 134.013 66.5508C133.979 66.5363 133.936 66.5163 133.883 66.4903C133.775 66.4378 133.644 66.3674 133.498 66.2842C133.204 66.1176 132.875 65.9127 132.589 65.7159C132.033 65.3343 131.332 65.0509 130.554 65.0508H129.069ZM130.554 67.3672C130.765 67.3673 131.018 67.4462 131.278 67.625C131.619 67.859 132.003 68.0993 132.354 68.2989C132.678 68.4825 133.06 68.6814 133.366 68.7784C133.738 68.8962 134.214 69.0768 134.591 69.1739C134.907 69.255 135.232 69.3076 135.626 69.333C135.651 69.8097 135.592 70.5114 135.454 71.3164C135.313 72.1384 135.1 73.0009 134.861 73.7305C134.607 74.5042 134.369 74.9872 134.227 75.1641C133.772 75.7333 132.98 76.6613 132.108 77.4571C131.672 77.8549 131.239 78.1987 130.837 78.4463C130.454 78.6817 130.168 78.7877 129.979 78.8174C129.958 78.817 129.937 78.8161 129.916 78.8155L130.084 73.4082V73.4034L129.915 67.3672H130.554Z" fill="#171717"/>
</g>
</g>
<defs>
<filter id="filter0_g_863_4943" x="0" y="0" width="240" height="152" filterUnits="userSpaceOnUse" color-interpolation-filters="sRGB">
<feFlood flood-opacity="0" result="BackgroundImageFix"/>
<feBlend mode="normal" in="SourceGraphic" in2="BackgroundImageFix" result="shape"/>
<feTurbulence type="fractalNoise" baseFrequency="0.011312217451632023 0.0099999997764825821" numOctaves="3" seed="9234" />
<feDisplacementMap in="shape" scale="4" xChannelSelector="R" yChannelSelector="G" result="displacedImage" width="100%" height="100%" />
<feMerge result="effect1_texture_863_4943">
<feMergeNode in="displacedImage"/>
</feMerge>
</filter>
<clipPath id="clip0_863_4943">
<rect width="52.4523" height="100" fill="white" transform="translate(93.7734 26)"/>
</clipPath>
</defs>
</svg>
