<svg width="240" height="152" viewBox="0 0 240 152" fill="none" xmlns="http://www.w3.org/2000/svg">
<g filter="url(#filter0_g_1222_1295)">
<rect x="2" y="2" width="236" height="148" rx="8" fill="white"/>
<g clip-path="url(#clip0_1222_1295)">
<path d="M163.7 78.9875L150.892 91.5318C149.962 92.4424 148.4 92.0651 147.989 90.8305C147.907 90.5851 147.88 90.3247 147.91 90.0678L148.88 81.8297V71.5775L147.901 60.616C147.877 60.353 147.949 60.0905 148.102 59.8759C148.505 59.3113 149.323 59.254 149.801 59.7568L154.767 64.9795L164.376 73.9424C165.697 75.1746 165.661 77.2792 164.299 78.4657L163.7 78.9875Z" fill="#171717"/>
<path d="M151.269 72.2053C151.434 73.4244 151.466 74.7232 151.454 76.023C151.411 77.8589 151.341 80.4599 150.149 81.1778C149.795 81.3395 142.373 82.0607 141.432 82.0844C138.296 82.163 135.626 82.9179 132.573 82.6887C128.89 82.3989 125.639 83.2448 122.011 83.3358C119.952 83.4638 120.244 80.7809 120.091 78.2619C119.893 75.7441 119.237 71.0207 121.344 71.0444C124.305 71.123 126.811 70.9838 129.806 70.6794C132.891 70.3727 135.721 70.6074 138.812 70.53C141.9 70.3762 144.995 70.4515 148.086 70.3739C149.34 70.3425 150.625 69.7751 151.269 72.2053Z" fill="#171717"/>
<path d="M109.709 26C110.983 26 112.122 26.7929 112.564 27.9873L112.654 28.2285C112.78 28.5669 112.844 28.9253 112.844 29.2861V122.939C112.844 124.621 111.481 125.985 109.799 125.985H108.108C107.815 125.985 107.524 125.943 107.243 125.859L87.4668 119.996L75.9434 115.78C75.3195 115.552 74.787 115.125 74.4277 114.566L73.6377 113.339C73.3219 112.848 73.1543 112.275 73.1543 111.691V46.5049L73.8945 39.6807C74.0031 38.6792 74.5995 37.7954 75.4883 37.3213L76.8779 36.5811C77.0346 36.4975 77.1984 36.4281 77.3672 36.373L108.729 26.1504C109.034 26.0511 109.352 26 109.673 26H109.709ZM105.831 69.9893C105.308 69.9723 102.418 69.8543 102.478 70.5947C102.57 71.6337 102.606 72.5178 102.62 73.5771C102.636 74.668 102.757 75.6581 102.82 76.7461C102.868 77.8354 102.964 78.9224 103.027 80.0107C103.053 80.4522 102.969 80.9162 103.485 81.0918C103.741 81.1243 105.91 81.0939 106.177 81.0625C106.553 81.0088 107.087 80.9303 107.204 80.4961C107.228 80.3647 107.185 77.743 107.166 77.4121C107.102 76.3083 107.188 75.3538 107.062 74.2852C106.908 72.9967 106.999 71.8361 106.925 70.5586C106.898 69.8322 106.353 69.9905 105.831 69.9893Z" fill="#171717"/>
<path d="M138.863 99.2993H141.811H144.679C145.371 99.2993 146.039 99.5479 146.562 99.9997L146.865 100.262C147.499 100.809 147.863 101.604 147.863 102.441V112.197C147.863 112.366 147.848 112.535 147.818 112.702L147.24 115.956C147.145 116.489 146.902 116.984 146.538 117.386L145.168 118.898C144.622 119.5 143.847 119.844 143.034 119.844H126.189C124.919 119.844 123.799 119.012 123.432 117.797L122.926 116.123C122.844 115.853 122.803 115.572 122.803 115.29V113.385C122.803 112.177 123.557 111.097 124.691 110.681L125.077 110.54C125.476 110.394 125.902 110.337 126.325 110.375L134.036 111.063C135.839 111.224 137.342 109.701 137.157 107.899L136.536 101.878C136.486 101.388 136.592 100.893 136.839 100.467C137.257 99.7442 138.029 99.2993 138.863 99.2993Z" fill="#171717"/>
<path d="M137.425 51.1181L137.13 50.9515C136.341 50.5055 135.808 49.7137 135.691 48.8146L135.204 45.0588L134.995 42.146C134.965 41.7204 134.667 41.3615 134.254 41.253C134.172 41.2313 134.086 41.2203 134.001 41.2203H124.867C123.333 41.2203 122.069 40.0178 121.991 38.4858L121.791 34.528C121.761 33.9462 121.909 33.3691 122.214 32.873L122.438 32.5093C122.962 31.6575 123.891 31.1387 124.891 31.1387H139.349C139.83 31.1387 140.303 31.259 140.725 31.4886L144.166 33.36C145.031 33.8301 145.595 34.709 145.663 35.6906L146.48 47.4556C146.502 47.7756 146.471 48.0969 146.387 48.4066L146.129 49.3623C145.79 50.6185 144.65 51.4909 143.349 51.4909H138.842C138.345 51.4909 137.857 51.3625 137.425 51.1181Z" fill="#171717"/>
</g>
</g>
<defs>
<filter id="filter0_g_1222_1295" x="0" y="0" width="240" height="152" filterUnits="userSpaceOnUse" color-interpolation-filters="sRGB">
<feFlood flood-opacity="0" result="BackgroundImageFix"/>
<feBlend mode="normal" in="SourceGraphic" in2="BackgroundImageFix" result="shape"/>
<feTurbulence type="fractalNoise" baseFrequency="0.011312217451632023 0.0099999997764825821" numOctaves="3" seed="9234" />
<feDisplacementMap in="shape" scale="4" xChannelSelector="R" yChannelSelector="G" result="displacedImage" width="100%" height="100%" />
<feMerge result="effect1_texture_1222_1295">
<feMergeNode in="displacedImage"/>
</feMerge>
</filter>
<clipPath id="clip0_1222_1295">
<rect width="93.6913" height="100" fill="white" transform="translate(73.1543 26)"/>
</clipPath>
</defs>
</svg>
