<svg width="240" height="152" viewBox="0 0 240 152" fill="none" xmlns="http://www.w3.org/2000/svg">
<g filter="url(#filter0_g_863_4969)">
<rect x="2" y="2" width="236" height="148" rx="8" fill="white"/>
<g clip-path="url(#clip0_863_4969)">
<path d="M150.681 125.582C153.914 125.879 157.349 125.879 160.784 125.78C165.634 125.582 172.504 125.286 174.323 122.618C174.727 121.827 176.141 105.423 176.141 103.348C176.141 96.4302 177.96 90.501 177.152 83.7812C176.141 75.6779 178.162 68.464 178.162 60.4595C178.364 55.9138 171.292 56.7043 164.623 56.5066C157.955 56.2101 145.427 55.0243 145.629 59.6689C146.033 66.191 145.831 71.725 145.225 78.346C144.619 85.1647 145.427 91.3903 145.427 98.209C145.225 105.028 145.629 111.846 145.629 118.665C145.629 121.432 144.215 124.298 150.681 125.582Z" fill="#171717"/>
<path d="M169.302 92.3261C171.223 92.4774 173.263 92.4774 175.303 92.427C178.184 92.3261 182.264 92.1746 183.345 90.8114C183.585 90.4075 184.425 82.0268 184.425 80.9667C184.425 77.4326 185.505 74.4035 185.025 70.9704C184.425 66.8305 185.625 63.145 185.625 59.0557C185.745 56.7333 181.544 57.1371 177.584 57.0362C173.623 56.8848 166.182 56.279 166.302 58.6518C166.542 61.9839 166.422 64.811 166.062 68.1937C165.702 71.6772 166.182 74.8578 166.182 78.3413C166.062 81.8249 166.302 85.3084 166.302 88.7919C166.302 90.2056 165.461 91.6697 169.302 92.3261Z" fill="#171717"/>
<path d="M154.034 91.6137C152.113 91.7652 150.073 91.7652 148.032 91.7147C145.152 91.6137 141.071 91.4622 139.991 90.0991C139.751 89.6953 138.911 81.3146 138.911 80.2543C138.911 76.7203 137.831 73.6911 138.311 70.2582C138.911 66.1182 137.711 62.4328 137.711 58.3433C137.591 56.021 141.791 56.4249 145.752 56.3238C149.713 56.1725 157.154 55.5666 157.034 57.9394C156.794 61.2715 156.914 64.0988 157.274 67.4813C157.634 70.9648 157.154 74.1456 157.154 77.6291C157.274 81.1126 157.034 84.5962 157.034 88.0797C157.034 89.4934 157.874 90.9575 154.034 91.6137Z" fill="#171717"/>
<path d="M121.631 123.011C122.093 123.405 122.585 123.405 123.077 123.274C123.771 123.011 124.754 122.617 125.014 119.073C125.072 118.023 125.275 96.2334 125.275 93.4768C125.275 84.2884 125.535 76.4126 125.419 67.4866C125.275 56.7229 125.564 47.1408 125.564 36.5083C125.593 30.4702 124.581 31.5203 123.626 31.2577C122.672 30.864 120.879 29.2888 120.908 35.4582C120.965 44.1217 120.937 51.4725 120.85 60.267C120.763 69.3243 120.879 77.594 120.879 86.6511C120.85 95.7084 120.908 104.766 120.908 113.823C120.908 117.498 120.705 121.305 121.631 123.011Z" fill="#171717"/>
<path d="M73.3336 125.023C76.5667 125.32 80.0018 125.32 83.437 125.221C88.2865 125.023 95.1568 124.727 96.9753 122.058C97.3795 121.268 98.7941 104.864 98.7941 102.788C98.7941 95.8711 100.613 89.9418 99.8044 83.2219C98.7941 75.1187 100.815 67.9047 100.815 59.9003C101.017 55.3544 93.9443 56.145 87.2762 55.9474C80.6081 55.6509 68.0799 54.4651 68.282 59.1096C68.6861 65.6318 68.484 71.1658 67.8778 77.7868C67.2716 84.6054 68.0799 90.8311 68.0799 97.6497C67.8778 104.468 68.282 111.287 68.282 118.106C68.282 120.873 66.8675 123.738 73.3336 125.023Z" fill="#171717"/>
<path d="M72.5349 105.668C75.7785 105.881 79.2247 105.881 82.6709 105.81C87.5363 105.668 110.263 106.437 112.088 104.513C112.493 103.942 106.501 89.7027 106.501 88.2059C106.501 83.2169 104.143 80.0969 103.332 75.2505C102.318 69.4062 103.332 68.17 100.105 58.6994C100.308 55.4209 93.2125 55.9912 86.5226 55.8486C79.8329 55.6348 67.2642 54.7794 67.467 58.1292C67.8724 62.8332 65.1824 67.7735 64.5742 72.5488C63.9661 77.4665 61.2239 83.0682 60.1024 88.2059C58.9808 93.3437 54.3262 99.5948 54.3262 104.513C54.3262 106.508 63.9379 105.81 72.5349 105.668Z" fill="#171717"/>
<path d="M151.672 35.5481C151.219 36.7415 151.009 37.654 150.975 38.9527C151.044 42.3923 152.3 45.4107 155.439 47.306C158.649 49.2364 159.451 50.8158 163.532 50.6755C168.171 50.5 171.868 48.4291 174.171 44.3226C176.229 40.6023 176.124 36.2501 174.031 32.5648C172.775 30.3887 170.682 28.2477 168.38 27.1948C163.567 25.0538 160.358 25.9313 156.137 28.704C153.416 30.494 152.754 32.635 151.672 35.5481Z" fill="#171717"/>
<path d="M76.1584 38.356C76.0538 36.2852 77.3095 34.425 78.9838 33.2317C81.1115 31.7225 83.2742 30.9152 85.7507 31.933C89.4132 33.3721 91.4015 36.5309 90.3899 40.3215C89.8666 42.3221 88.7854 44.5333 86.8321 45.4809C84.6346 46.569 82.0533 46.92 79.8558 45.5511C77.484 44.0419 76.7514 41.6552 76.2631 39.058C76.2281 38.8123 76.1932 38.6017 76.1584 38.356ZM72.6355 35.5481C72.182 36.7415 71.9728 37.654 71.9377 38.9527C72.0076 42.3923 73.2633 45.4107 76.4025 47.306C79.6116 49.2364 80.4139 50.8158 84.495 50.6755C89.1342 50.5 92.8316 48.4291 95.1337 44.3226C97.1917 40.6023 97.0871 36.2501 94.9943 32.5648C93.7384 30.3887 91.6456 28.2477 89.3435 27.1948C84.5299 25.0538 81.3207 25.9313 77.1003 28.704C74.3794 30.494 73.7167 32.635 72.6355 35.5481Z" fill="#171717"/>
<path d="M83.4493 47.1239C78.927 47.1239 75.2609 43.4578 75.2609 38.9354C75.2609 34.413 78.927 30.7469 83.4493 30.7469C87.9717 30.7469 91.6378 34.413 91.6378 38.9354C91.6378 43.4578 87.9717 47.1239 83.4493 47.1239Z" fill="#171717"/>
</g>
</g>
<defs>
<filter id="filter0_g_863_4969" x="0" y="0" width="240" height="152" filterUnits="userSpaceOnUse" color-interpolation-filters="sRGB">
<feFlood flood-opacity="0" result="BackgroundImageFix"/>
<feBlend mode="normal" in="SourceGraphic" in2="BackgroundImageFix" result="shape"/>
<feTurbulence type="fractalNoise" baseFrequency="0.011312217451632023 0.0099999997764825821" numOctaves="3" seed="9234" />
<feDisplacementMap in="shape" scale="4" xChannelSelector="R" yChannelSelector="G" result="displacedImage" width="100%" height="100%" />
<feMerge result="effect1_texture_863_4969">
<feMergeNode in="displacedImage"/>
</feMerge>
</filter>
<clipPath id="clip0_863_4969">
<rect width="131.349" height="100" fill="white" transform="translate(54.3262 26)"/>
</clipPath>
</defs>
</svg>
