<svg width="27" height="26" viewBox="0 0 27 26" fill="none" xmlns="http://www.w3.org/2000/svg">
<g filter="url(#filter0_g_1190_1400)">
<path d="M25.5948 11.9238C24.82 10.5262 23.7854 9.29334 22.4322 8.15518C19.8797 6.00855 16.7639 4.8024 13.3946 4.65148L12.5832 0.679714C12.5476 0.506003 12.4502 0.354694 12.3122 0.259585C12.2136 0.191987 12.1008 0.156616 11.9864 0.156616C11.9404 0.156616 11.8944 0.162118 11.8488 0.173909L10.4801 0.519758C10.153 0.602291 9.94769 0.958359 10.021 1.31679L10.7217 4.74266C8.79943 4.96747 6.93971 5.62222 5.30361 6.65545C3.44245 7.83095 1.85919 9.50439 0.724956 11.4958C0.238546 12.3498 -0.0296444 12.8198 0.305414 13.6829C0.376596 13.8672 0.472943 14.068 0.601286 14.3314C0.666716 14.4658 0.73682 14.599 0.80908 14.7271C0.923043 14.9287 1.12221 15.0443 1.32928 15.0443C1.40118 15.0443 1.47416 15.0305 1.54463 15.0014C1.81821 14.889 1.98071 14.5805 1.93217 14.2653L1.89227 14.0063C1.9861 13.7399 2.40636 12.9747 2.69073 12.5097L3.7243 17.5088C3.75882 17.6755 3.85013 17.8209 3.97955 17.9164L4.68993 18.4383C4.79311 18.5142 4.91211 18.5519 5.0311 18.5519C5.1501 18.5519 5.27161 18.513 5.37551 18.4356C5.58222 18.2815 5.68217 18.0056 5.62788 17.7388L4.17261 10.5663C4.31245 10.4032 4.44691 10.2609 4.59718 10.1191L6.50292 19.4216C6.54821 19.6425 6.69238 19.8233 6.88651 19.9023L7.55267 20.1731C7.62205 20.2014 7.69396 20.2151 7.7655 20.2151C7.9111 20.2151 8.05454 20.1581 8.16778 20.0504C8.33675 19.8893 8.41153 19.6401 8.36263 19.4008L6.20309 8.85002L6.80814 8.48177L9.26104 20.4325C9.31604 20.7013 9.51628 20.9052 9.76542 20.9469L10.3899 21.0511C10.4208 21.0562 10.4514 21.0585 10.4823 21.0585C10.6502 21.0585 10.8123 20.9831 10.9288 20.8467C11.0665 20.6856 11.1229 20.4608 11.0794 20.2458L10.5445 17.6004L11.2836 17.982L11.8725 20.9237C11.934 21.2299 12.1817 21.4484 12.4682 21.4492C12.4682 21.4492 13.0801 21.4507 13.0804 21.4507C13.2652 21.4507 13.4399 21.3596 13.556 21.2024C13.6725 21.0448 13.7171 20.838 13.6776 20.64L13.203 18.2607L13.8738 18.1593L15.2827 25.0142C15.3467 25.3251 15.5991 25.5361 15.8788 25.5361C15.923 25.5361 15.968 25.531 16.0129 25.52L16.5913 25.3785C16.9192 25.2983 17.1263 24.9442 17.0555 24.5854L16.3541 21.0302C18.6204 20.68 20.9374 19.1772 22.2618 17.9651C22.8003 17.4723 23.2026 16.9111 23.6283 16.3168L23.6455 16.2929C23.7627 16.1298 23.8832 15.962 24.0058 15.7973L24.7697 15.3937C24.8484 15.352 24.9182 15.2927 24.9739 15.2188L25.4661 14.5711C25.6059 14.3868 25.7166 14.1887 25.7943 13.9835C26.0409 13.3355 25.9697 12.6049 25.5933 11.9261L25.5948 11.9238ZM17.7741 10.775C18.6545 13.2808 18.2386 16.7016 15.7749 18.2351C15.6487 17.9247 15.6149 17.6024 15.5858 17.2656C17.1015 16.0103 17.7633 13.9788 17.315 11.9324C16.9027 10.0511 15.4995 8.59142 13.7207 8.17837L13.5061 7.14475C15.6264 7.67688 17.136 8.95732 17.7741 10.775ZM20.3147 12.9971C20.2748 11.699 20.0307 10.5144 19.5864 9.45408C21.0794 10.4048 22.3589 11.6844 23.2591 13.1484C22.8503 13.8814 22.3431 14.5868 21.6517 15.3901C20.9313 16.1207 20.2306 16.7138 19.5224 17.187C20.0962 15.9293 20.3618 14.5275 20.3147 12.9967V12.9971ZM9.5738 9.58456C9.37284 9.79443 9.2312 10.007 9.08272 10.2299C9.08272 10.2299 9.06834 10.2515 9.06367 10.2582L8.5014 7.69182C8.71639 7.59514 8.91987 7.52675 9.12406 7.48156L9.5738 9.58495V9.58456ZM10.9245 7.12352C11.1369 7.06654 11.3465 7.03706 11.5939 7.0292L11.8437 8.21688C11.6392 8.26954 11.4382 8.32928 11.197 8.43107L10.9241 7.12313L10.9245 7.12352Z" fill="#171717"/>
</g>
<defs>
<filter id="filter0_g_1190_1400" x="-0.000360385" y="5.82635e-06" width="26.0954" height="25.6927" filterUnits="userSpaceOnUse" color-interpolation-filters="sRGB">
<feFlood flood-opacity="0" result="BackgroundImageFix"/>
<feBlend mode="normal" in="SourceGraphic" in2="BackgroundImageFix" result="shape"/>
<feTurbulence type="fractalNoise" baseFrequency="0.53381699323654175 0.38429880142211914" numOctaves="3" seed="9234" />
<feDisplacementMap in="shape" scale="0.31322076916694641" xChannelSelector="R" yChannelSelector="G" result="displacedImage" width="100%" height="100%" />
<feMerge result="effect1_texture_1190_1400">
<feMergeNode in="displacedImage"/>
</feMerge>
</filter>
</defs>
</svg>
