<svg width="22" height="27" viewBox="0 0 22 27" fill="none" xmlns="http://www.w3.org/2000/svg">
<path fill-rule="evenodd" clip-rule="evenodd" d="M11.2036 22.1259C12.5238 21.8433 13.4803 20.7335 13.9463 19.4707C14.24 18.6691 14.3142 17.8398 14.2108 17.0494C14.6703 17.0214 15.0899 17.004 15.5096 16.9994C15.6127 17.1791 15.7179 17.359 15.8259 17.5382C15.9636 17.7769 16.101 18.0312 16.2422 18.2927L16.2424 18.293L16.2426 18.2935C16.5052 18.7797 16.7814 19.2909 17.0978 19.7725L17.0981 19.773L17.0985 19.7735L17.1076 19.7872L17.1155 19.7993L17.1291 19.82L17.1366 19.8314C17.1353 19.8355 17.1341 19.8395 17.1328 19.8435L17.1292 19.8547C17.1241 19.8705 17.119 19.8863 17.1138 19.9022C16.4887 21.8122 15.3571 22.6159 13.8495 23.6868C13.7571 23.7524 13.6633 23.819 13.5682 23.8869C12.8947 24.3756 12.3564 24.6621 11.5456 24.903C9.37051 25.4384 7.2588 25.1507 5.53337 23.4793C5.09238 23.0507 4.69096 22.7144 4.32744 22.4097C3.24068 21.4991 2.4927 20.8723 2.03921 18.9152C1.36126 15.9436 2.03532 13.2499 4.22674 11.0979C4.82695 10.5152 5.44962 10.053 6.08324 9.69983C6.07872 9.84049 6.06925 9.98128 6.05356 10.1234L6.0534 10.1247L6.05328 10.126C5.99277 10.6939 6.03208 11.2177 6.07911 11.6963C6.08752 11.7819 6.09609 11.8655 6.10452 11.9477C6.14465 12.339 6.18148 12.698 6.18147 13.0843C6.18148 13.2449 6.21792 13.7946 6.26091 14.3541C5.60268 14.9491 5.0733 15.6876 4.90898 16.5578C4.59811 18.1347 4.81599 19.8307 6.05027 20.9937C7.40248 22.2435 9.02796 22.3059 10.7444 22.1779C10.8246 22.1682 10.8994 22.1601 10.9741 22.1519C11.0488 22.1437 11.1234 22.1356 11.2036 22.1259Z" fill="#171717"/>
<path fill-rule="evenodd" clip-rule="evenodd" d="M10.1864 16.3632L10.1858 16.3633C10.1854 16.3634 10.185 16.3635 10.1847 16.3636C10.1844 16.3637 10.1842 16.3637 10.1839 16.3638C10.1837 16.3638 10.1834 16.3639 10.1832 16.3639L10.1839 16.3638L10.1847 16.3636C10.185 16.3635 10.1854 16.3634 10.1858 16.3633C10.186 16.3633 10.1862 16.3632 10.1864 16.3632Z" fill="white"/>
<path d="M10.1085 3.16371C10.2252 2.80262 10.0891 2.41366 9.8466 2.12256C9.53809 1.75392 9.19009 1.50771 8.69956 1.56915C7.97728 1.64828 7.47255 2.11159 7.47365 2.83015C7.47232 3.20887 7.56069 3.65154 7.86466 3.91255C8.20559 4.21007 8.64996 4.39564 9.10727 4.2588C9.60238 4.10549 9.84626 3.7186 10.0565 3.2828C10.0744 3.24103 10.0906 3.20547 10.1085 3.16371ZM10.8707 2.83589C10.8951 3.06857 10.8893 3.23991 10.834 3.47117C10.6586 4.07592 10.2913 4.54947 9.64087 4.73431C8.9763 4.92202 8.7582 5.16285 8.03598 4.94274C7.21575 4.6897 6.6535 4.14667 6.43687 3.31051C6.24556 2.55429 6.47042 1.78987 7.01878 1.23849C7.34613 0.913872 7.82133 0.635517 8.28237 0.559534C9.24348 0.411379 9.77504 0.720073 10.3975 1.41225C10.7986 1.85891 10.8155 2.26913 10.8707 2.83589Z" fill="#171717"/>
<path d="M10.1979 3.29274C9.98335 4.09347 9.15366 4.56689 8.34475 4.35014C7.53583 4.1334 7.05401 3.30856 7.26857 2.50783C7.48313 1.70709 8.31282 1.23367 9.12173 1.45042C9.93065 1.66716 10.4125 2.492 10.1979 3.29274Z" fill="#171717"/>
<path d="M6.6815 8.14204C6.7195 8.54764 6.7573 8.95105 6.76414 9.36381C6.76865 9.63653 6.75965 9.91333 6.72827 10.1975C6.66655 10.7769 6.72205 11.3164 6.77885 11.8684C6.81924 12.261 6.86028 12.6599 6.86028 13.0841C6.86028 13.1786 6.87791 13.475 6.90385 13.8428C6.96186 14.6656 7.06137 15.8461 7.09787 15.9268C7.20478 16.1039 7.44534 16.2102 7.73533 16.2762C7.8724 16.36 8.0359 16.3583 8.20553 16.3496C8.43279 16.373 8.6634 16.384 8.86681 16.3934C9.31564 16.4079 9.76446 16.4079 10.1869 16.3642L10.1877 16.364L10.1885 16.3638L10.1896 16.3636L10.1901 16.3635L10.1905 16.3634L10.1918 16.363L10.1922 16.3629L10.1926 16.3628L10.1934 16.3627C10.5564 16.3669 10.9193 16.368 11.2823 16.3605C11.6314 16.3605 11.9694 16.3711 12.3045 16.3816C12.8828 16.3997 13.4523 16.4175 14.0549 16.3802L14.08 16.3786C14.7285 16.3376 15.3032 16.3161 15.905 16.3211C16.0702 16.6147 16.2377 16.907 16.4118 17.1955C16.5714 17.472 16.7182 17.7443 16.8637 18.0141L16.8947 18.0717C17.0494 18.3586 17.2036 18.643 17.3714 18.9272C17.4644 19.0848 17.5616 19.2424 17.6653 19.4003C18.1316 20.1072 18.4994 20.7108 18.8868 21.4488C19.1404 21.9181 19.8328 21.439 20.3045 21.1127L20.3242 21.099C20.3699 21.0675 20.4133 21.0375 20.4539 21.0102C20.5264 20.9638 20.6012 20.9196 20.6746 20.8763C20.7245 20.8468 20.7737 20.8177 20.8212 20.7886C21.1535 20.5844 21.3998 20.3766 21.1746 20.0113C20.969 19.6552 20.7481 19.3267 20.5284 19.0003C20.2022 18.5155 19.8789 18.0349 19.6131 17.4744C19.3963 17.0205 19.1323 16.6338 18.8622 16.238C18.6701 15.9566 18.4749 15.6706 18.2913 15.3527C18.1588 15.1232 17.0099 13.368 16.9304 13.2973C16.917 13.2876 16.9032 13.2788 16.8891 13.2709C16.8106 13.206 16.7021 13.1708 16.5516 13.1755C16.5202 13.1755 16.4889 13.1756 16.4577 13.1759C16.0937 13.1794 15.7409 13.2025 15.391 13.2279C15.341 13.2316 15.291 13.2353 15.2411 13.2389C14.6038 13.2859 13.9722 13.3325 13.2962 13.2738C12.7769 13.2302 12.2914 13.265 11.7976 13.3047C11.78 13.3061 11.7624 13.3075 11.7448 13.3089L11.7324 13.3099L11.731 13.3101L11.7244 13.3106L11.7149 13.3114L11.7128 13.3115L11.7087 13.3119L11.7082 13.3119L11.705 13.3122L11.6805 13.3141L11.6791 13.3143C11.6652 13.3154 11.6513 13.3165 11.6375 13.3176L11.634 13.3179L11.6122 13.3196C11.3721 13.3389 11.1289 13.3571 10.8777 13.3661C10.8795 13.2173 10.8807 13.0684 10.8807 12.9196C10.8806 12.7217 10.8785 12.5239 10.8733 12.326C10.8733 12.1222 10.8777 11.922 10.884 11.7239C11.0041 11.7263 11.1234 11.7291 11.2423 11.7318C11.7714 11.7443 12.2926 11.7565 12.844 11.7309C13.6893 11.6904 14.3959 11.6769 15.2286 11.7039C15.302 11.7056 15.3639 11.6943 15.4161 11.6723C14.6886 10.8223 13.8102 10.1187 12.8403 9.61934C12.6144 9.62095 12.3851 9.61607 12.15 9.60076C11.7223 9.57388 11.3197 9.59054 10.9141 9.61402C10.9102 9.54167 10.9055 9.46892 10.8997 9.39572C10.8867 9.23433 10.875 9.07733 10.8649 8.92332C10.814 8.14521 10.8029 7.44359 10.8469 6.64039C10.8707 6.02427 9.54954 6.10362 8.64949 6.15767C8.5486 6.16373 8.453 6.16947 8.36517 6.17388C8.22976 6.17841 8.09305 6.17942 7.95885 6.18042C7.22962 6.1858 6.57396 6.19065 6.59626 6.75703C6.59626 7.2322 6.63901 7.68849 6.6815 8.14204Z" fill="#171717"/>
</svg>
