<svg width="21" height="27" viewBox="0 0 21 27" fill="none" xmlns="http://www.w3.org/2000/svg">
<g filter="url(#filter0_g_1190_954)">
<mask id="path-1-inside-1_1190_954" fill="white">
<path fill-rule="evenodd" clip-rule="evenodd" d="M16.9887 20.1539L16.9882 20.1156C16.9879 20.0951 16.9876 20.0746 16.9873 20.0543C16.9878 20.0874 16.9882 20.1205 16.9887 20.1539Z"/>
</mask>
<path fill-rule="evenodd" clip-rule="evenodd" d="M16.9887 20.1539L16.9882 20.1156C16.9879 20.0951 16.9876 20.0746 16.9873 20.0543C16.9878 20.0874 16.9882 20.1205 16.9887 20.1539Z" fill="#171717"/>
<path d="M16.9887 20.1539L16.9586 20.1543L17.0188 20.1534L16.9887 20.1539ZM16.9882 20.1156L17.0183 20.1151L17.0183 20.1151L16.9882 20.1156ZM16.9873 20.0543L17.0174 20.0539L16.9572 20.0548L16.9873 20.0543ZM16.9887 20.1539L17.0188 20.1534L17.0183 20.1151L16.9882 20.1156L16.9581 20.116L16.9586 20.1543L16.9887 20.1539ZM16.9882 20.1156L17.0183 20.1151C17.018 20.0946 17.0177 20.0742 17.0174 20.0539L16.9873 20.0543L16.9572 20.0548C16.9575 20.075 16.9578 20.0955 16.9581 20.116L16.9882 20.1156ZM16.9873 20.0543L16.9572 20.0548C16.9577 20.0878 16.9581 20.1209 16.9586 20.1543L16.9887 20.1539L17.0188 20.1534C17.0183 20.1201 17.0179 20.087 17.0174 20.0539L16.9873 20.0543Z" fill="#171717" mask="url(#path-1-inside-1_1190_954)"/>
<path d="M8.11523 0.386108C10.9404 -0.17394 13.9935 0.378244 16.4717 1.85779C18.5878 3.12134 19.9008 5.4086 20.2305 7.77087C20.4208 9.1341 20.084 10.4048 19.5293 11.5912L18.1592 14.5238C17.9063 15.0651 17.6389 16.0077 17.4434 16.9945C17.2478 17.9811 17.122 19.0138 17.1533 19.7357V19.7367L17.1562 19.7426C17.1841 19.7976 17.188 19.8393 17.1807 19.8666C17.1735 19.8929 17.1558 19.9067 17.1348 19.9086C17.1127 19.9103 17.0832 19.8997 17.0566 19.8695C17.0303 19.8394 17.0067 19.7906 16.9961 19.7201L16.9668 19.723C16.9697 19.8629 16.9716 20.0063 16.9736 20.1527V20.1791C16.9855 21.0332 16.9989 21.9817 17.1777 22.848C17.3554 23.7083 17.6975 24.4889 18.3652 25.017C17.9819 25.3855 17.5885 25.5318 17.1094 25.6527C13.8875 26.4675 10.6082 26.5792 7.31836 25.7924C6.90285 25.6929 6.60142 25.596 6.33203 25.3539C6.83119 24.0523 7.16047 22.7422 7.23242 21.2875L7.2334 21.2699L7.2168 21.2719C6.90617 21.2966 6.60111 21.3275 6.30469 21.3578C5.38266 21.452 4.5433 21.5377 3.8584 21.3978C3.51636 21.3279 3.21311 21.2016 2.95801 20.9926C2.70299 20.7836 2.49434 20.4913 2.34277 20.0873C1.83808 18.742 1.62069 17.3291 1.41309 15.8851C1.37733 15.636 1.27202 15.4832 1.13574 15.3822C1.00041 15.2819 0.83487 15.2328 0.681641 15.1869C0.594604 15.1608 0.511765 15.1353 0.438477 15.1029C0.365155 15.0705 0.301795 15.0314 0.255859 14.9769C0.164991 14.869 0.134682 14.6963 0.227539 14.3861L1.20703 11.1136H1.20801V11.1107C1.25405 10.5716 1.17207 10.0358 1.09082 9.50232C0.997216 8.88773 0.905002 8.2757 1.00488 7.65955L1.00391 7.65857C1.40096 6.01805 2.10966 4.57359 3.01074 3.13025C4.52588 1.92875 6.14172 0.77725 8.11523 0.386108ZM14.6582 2.56287C14.5429 3.32629 14.3584 4.4944 14.1797 5.51599C14.0904 6.02662 14.0028 6.5007 13.9258 6.86951C13.8873 7.05396 13.8512 7.21233 13.8193 7.33533C13.7873 7.45879 13.7595 7.54604 13.7373 7.58923C13.6214 7.81512 13.3421 8.51205 13.0518 9.27478C12.7612 10.0382 12.4583 10.8694 12.2949 11.3636C12.177 11.7204 12.0338 12.0119 11.9189 12.2455C11.8686 12.3479 11.824 12.4398 11.7891 12.5209C11.7541 12.6021 11.728 12.6736 11.7178 12.7357C11.7075 12.7978 11.7128 12.8518 11.7393 12.8969C11.7658 12.9419 11.8125 12.9758 11.8818 12.9994C11.9264 13.0146 12.0057 13.0511 12.1123 13.1039C12.2186 13.1565 12.3515 13.2247 12.5039 13.3031C13.056 13.587 13.8634 14.0029 14.5801 14.2767C14.9383 14.4136 15.2749 14.515 15.5459 14.5472C15.6814 14.5634 15.8018 14.562 15.9004 14.5385C15.999 14.5149 16.0773 14.4691 16.127 14.3949C16.2274 14.2446 16.3865 14.0267 16.5771 13.767C16.9363 13.2776 17.4053 12.6386 17.7939 12.0189C17.9883 11.7091 18.1633 11.4039 18.2939 11.1244C18.4245 10.8451 18.512 10.5897 18.5312 10.3812C18.5793 9.86011 18.6509 8.96119 18.5908 8.04626C18.5307 7.13184 18.339 6.19749 17.8555 5.60974C17.553 5.24213 17.2692 4.87832 17.0107 4.54626C16.7299 4.18548 16.478 3.86203 16.2637 3.61365C16.1566 3.48957 16.0586 3.38362 15.9707 3.30115C15.883 3.21882 15.8043 3.15812 15.7363 3.12634C15.4296 2.98294 14.9048 2.68387 14.6807 2.55212L14.6611 2.54138L14.6582 2.56287ZM4.02539 10.1049C3.49801 10.105 3.07035 10.5303 3.07031 11.0551C3.07031 11.2498 3.12946 11.4307 3.23047 11.5814C3.34964 11.7591 3.52742 11.8953 3.73633 11.9613C3.82751 11.9901 3.92469 12.0052 4.02539 12.0052C4.5529 12.0052 4.98047 11.5799 4.98047 11.0551C4.98045 10.8106 4.88776 10.5877 4.73535 10.4193C4.61024 10.2812 4.44497 10.1797 4.25781 10.1332C4.18346 10.1147 4.10545 10.1049 4.02539 10.1049ZM11.6807 1.49158C11.1068 3.40161 10.6826 4.94062 10.2598 6.47595C9.8354 8.01672 9.41196 9.55392 8.83887 11.4594L8.83594 11.4701L8.84473 11.476L9.51562 11.9594L9.51367 11.9633H9.52539L10.3164 11.9467H10.3281L10.3311 11.9359C10.7233 10.4965 11.0928 9.28545 11.4434 8.13611C12.0463 6.15952 12.5934 4.36338 13.1074 1.89685L13.1094 1.88708L13.1016 1.88123C12.8916 1.74204 12.7109 1.64775 12.4971 1.58533C12.2833 1.52297 12.0365 1.4932 11.6953 1.48083L11.6836 1.47986L11.6807 1.49158ZM7.58789 2.11169L7.58496 2.10681L7.58105 2.12244L5.74707 9.58142L5.74512 9.59021L5.75195 9.59705L6.40918 10.1322L6.41895 10.1205L6.4082 10.1342L6.41504 10.1351L7.10449 10.3119L7.11914 10.3158L7.12305 10.3011L8.33691 5.8158L8.33789 5.81482L9.14258 1.85974L9.14551 1.84607L9.13086 1.84216L8.4082 1.6615L8.4043 1.67615L8.40918 1.65662L8.39746 1.66345L7.58789 2.11169ZM5.47754 3.2699L4.33789 3.50427L4.34082 3.51892L4.33594 3.49548L4.32812 3.51208L3.09863 5.93982L3.11133 5.94666L3.09766 5.93982L3.09668 5.9447L2.68066 8.58826L2.67871 8.60583H4.17188L4.1748 8.59412L4.91602 5.95056V5.94958L5.49512 3.28845L5.5 3.26599L5.47754 3.2699Z" fill="#171717" stroke="#171717" stroke-width="0.0301174"/>
</g>
<defs>
<filter id="filter0_g_1190_954" x="-0.000360385" y="5.82635e-06" width="20.4558" height="26.4984" filterUnits="userSpaceOnUse" color-interpolation-filters="sRGB">
<feFlood flood-opacity="0" result="BackgroundImageFix"/>
<feBlend mode="normal" in="SourceGraphic" in2="BackgroundImageFix" result="shape"/>
<feTurbulence type="fractalNoise" baseFrequency="0.53381699323654175 0.38429880142211914" numOctaves="3" seed="9234" />
<feDisplacementMap in="shape" scale="0.31322076916694641" xChannelSelector="R" yChannelSelector="G" result="displacedImage" width="100%" height="100%" />
<feMerge result="effect1_texture_1190_954">
<feMergeNode in="displacedImage"/>
</feMerge>
</filter>
</defs>
</svg>
