<svg width="28" height="28" viewBox="0 0 28 28" fill="none" xmlns="http://www.w3.org/2000/svg">
<g filter="url(#filter0_g_1190_355)">
<path d="M10.7566 5.70872C12.8814 4.88822 15.684 4.65347 18.4184 6.73293C19.7834 7.77097 20.5146 8.9821 20.7958 10.2418C21.0703 11.4713 20.9085 12.7108 20.5497 13.8354L20.5325 13.8889C19.7958 16.151 18.2335 18.0546 17.5184 18.7034C16.5387 19.5923 16.2965 20.1547 14.9803 22.4235C14.2504 23.6817 13.0495 24.1185 11.9276 24.1347C10.8362 24.1506 9.77174 23.7745 9.15804 23.3485C8.76722 23.0772 8.80315 22.5582 9.13185 22.3001L9.93918 21.6661L9.95487 21.6541C10.207 21.4657 10.5469 21.4726 10.7908 21.6345L10.8066 21.6452L10.8293 21.6608L10.8303 21.6615L10.8314 21.6622C11.1256 21.8616 11.3635 21.9449 11.5458 21.9731C11.7312 22.0018 11.8842 21.9775 12.0134 21.9302C12.2881 21.8297 12.4764 21.6189 12.5764 21.5018C12.5769 21.5012 12.5773 21.5008 12.5775 21.5006C12.5784 21.4996 12.579 21.4989 12.5794 21.4984C12.5794 21.4984 12.5794 21.4984 12.5794 21.4984C12.5794 21.4984 12.5794 21.4984 12.5794 21.4984L12.5794 21.4984C12.5794 21.4983 12.5794 21.4983 12.5794 21.4983L12.3114 21.2877C12.2767 21.2604 12.271 21.2101 12.2982 21.1754C12.3314 21.1332 12.3755 21.0764 12.4302 21.0055C12.4606 20.9662 12.5199 20.9663 12.5438 21.0099C12.6413 21.1878 12.647 21.3862 12.633 21.418C12.6259 21.4313 12.6144 21.4508 12.6103 21.4571C12.6079 21.4609 12.6036 21.467 12.6019 21.4695C12.5966 21.477 12.592 21.4829 12.5919 21.483C12.5906 21.4847 12.5896 21.486 12.5891 21.4866C12.5885 21.4874 12.5879 21.4881 12.5875 21.4886C12.5878 21.4882 12.5881 21.4879 12.5884 21.4875C12.5906 21.4848 12.5939 21.4808 12.5983 21.4752C12.6071 21.4642 12.6206 21.4472 12.6399 21.4226C12.674 21.3791 12.7189 21.3213 12.7739 21.2501C12.8839 21.1077 13.032 20.9146 13.2109 20.6807C13.5652 20.2174 14.0509 19.5807 14.5862 18.881C15.6627 17.4739 16.9783 15.7616 18.0367 14.4228C18.9184 13.3075 18.8901 11.4342 17.9195 9.8371C16.9716 8.27736 15.1778 7.09015 12.6919 7.33185C10.7657 7.51915 9.59271 8.39742 8.88376 9.42894C8.16087 10.4808 7.90833 11.7141 7.89783 12.5764C7.89253 13.0116 7.46053 13.3426 7.00654 13.2231L6.11384 12.9879L6.09787 12.9835C5.80138 12.899 5.59171 12.6345 5.59778 12.3286C5.63564 10.4213 6.5085 8.9283 6.90003 8.31774C6.98554 8.1844 7.15177 8.00732 7.34452 7.82626C7.55031 7.63296 7.82256 7.40165 8.15105 7.15701C8.80685 6.66862 9.70158 6.11615 10.7566 5.70872ZM12.5862 21.4902C12.5858 21.4907 12.5864 21.4899 12.5872 21.489C12.5873 21.4889 12.5874 21.4888 12.5875 21.4886C12.5869 21.4893 12.5864 21.4899 12.5862 21.4902ZM6.17137 13.0076C6.29056 13.0573 6.37226 13.1528 6.40744 13.262C6.37196 13.1527 6.28986 13.0572 6.17137 13.0076ZM5.6611 13.1312C5.64283 13.1535 5.62745 13.177 5.61485 13.2012C5.61483 13.2013 5.61479 13.2013 5.61477 13.2012C5.61474 13.2012 5.61473 13.2012 5.61475 13.2012C5.62736 13.177 5.64273 13.1536 5.66103 13.1313L5.6611 13.1312Z" fill="#171717"/>
</g>
<g filter="url(#filter1_g_1190_355)">
<path d="M10.4966 17.0603C10.7997 17.306 11.2132 17.6068 11.4876 17.9197C11.6249 18.0764 11.7056 18.2131 11.729 18.3237C11.7483 18.4155 11.7298 18.4844 11.6496 18.5594C10.7896 19.3444 10.1045 20.0524 9.3177 20.9237C8.51359 21.8112 7.69335 22.4942 6.81359 23.3622L6.81181 23.364L6.81009 23.3658C5.96869 24.2275 5.09429 25.027 4.22459 25.8851C4.17266 25.9364 4.0747 26.0029 3.93439 26.0776C3.7987 26.1499 3.64083 26.2208 3.48379 26.2854C3.1902 26.4061 2.91306 26.4988 2.81673 26.5302C2.80642 26.5335 2.79589 26.5359 2.78513 26.5375L1.50125 26.7203C1.37629 26.7381 1.27025 26.6329 1.29348 26.5136C1.35107 26.2182 1.42718 25.8376 1.50533 25.4754C1.60288 25.0233 1.69856 24.6248 1.7627 24.4446C1.76508 24.4379 1.76845 24.4317 1.77289 24.4261C1.78831 24.4065 1.81068 24.3793 1.83998 24.3445C1.89833 24.2752 1.97945 24.1815 2.07704 24.0705C2.27197 23.8488 2.52899 23.5618 2.79259 23.2703C3.32317 22.6834 3.86906 22.0905 3.99273 21.9685C4.43629 21.5308 4.81177 21.0878 5.17957 20.6704C5.55004 20.2499 5.91665 19.8505 6.3564 19.4775C6.92173 19.0006 7.39283 18.4949 7.8438 17.9906C8.29784 17.4829 8.72674 16.9822 9.22225 16.4933L9.22492 16.4907L9.22755 16.488C9.3351 16.3757 9.41363 16.3468 9.46895 16.3408C9.53138 16.3339 9.61216 16.3509 9.72171 16.4129C9.83108 16.4747 9.94754 16.5689 10.079 16.6858C10.2032 16.7962 10.3505 16.9362 10.493 17.0573L10.4948 17.0588L10.4966 17.0603Z" fill="#171717"/>
</g>
<g filter="url(#filter2_g_1190_355)">
<path d="M25.9681 1.12268C26.2405 1.05115 26.4912 1.29058 26.4181 1.55259C26.297 1.9868 26.1606 2.45897 26.0254 2.89101C25.9069 3.26996 25.7935 3.6048 25.6958 3.85187C25.6731 3.90944 25.6525 3.95885 25.6342 4.0005C25.6115 4.0522 25.5742 4.09645 25.5284 4.13119C25.0078 4.52609 24.5897 4.92376 24.1449 5.40023C23.9532 5.60433 23.7373 5.78268 23.4794 5.98057C23.2374 6.16632 22.9201 6.39682 22.6263 6.64605L22.6129 6.65742L22.6 6.66925C22.3625 6.88673 22.1076 7.09534 21.8328 7.31548C21.6043 7.49852 21.3555 7.69471 21.1112 7.89777C21.0633 7.93766 20.9925 7.9405 20.9432 7.90174C20.653 7.62725 20.363 7.31278 20.0726 6.98265C19.8672 6.74463 19.6404 6.4806 19.4655 6.23434C19.3978 6.13903 19.3436 6.05412 19.3036 5.98135C19.3024 5.97932 19.3027 5.97687 19.3043 5.97514C19.4199 5.84653 19.5642 5.6904 19.7105 5.53477C19.8566 5.37933 20.0017 5.22752 20.1184 5.10789C20.2467 4.97634 20.3065 4.91915 20.3084 4.91712C20.647 4.62982 20.9196 4.29956 21.1108 4.08437C21.3216 3.84706 21.4757 3.69582 21.6564 3.58428C21.6565 3.58427 21.6565 3.58425 21.6565 3.58423C21.6565 3.58422 21.6565 3.5842 21.6565 3.58419C22.1379 3.28977 22.49 2.92807 22.7709 2.62109C23.0555 2.31019 23.247 2.08196 23.484 1.87314C23.487 1.87049 23.4904 1.86825 23.4941 1.86659C23.551 1.84108 23.64 1.80602 23.764 1.76237C24.0096 1.67589 24.3383 1.57443 24.7088 1.46752C25.1144 1.35046 25.5558 1.23097 25.9681 1.12268Z" fill="#171717"/>
</g>
<g filter="url(#filter3_g_1190_355)">
<path d="M11.6012 8.66126C12.7668 8.15585 14.4196 7.99491 15.7589 9.15589C16.8353 10.089 17.2076 11.1784 17.1328 12.1979C17.0621 13.1613 16.6017 13.9734 16.1752 14.4855C15.7201 15.0319 14.9413 15.081 14.4108 14.7351L14.1966 14.5954C13.5547 14.1769 13.458 13.371 13.847 12.8198L13.8476 12.819L13.8482 12.8181L13.8671 12.7909L13.8699 12.7869L13.8715 12.7844C13.9766 12.6301 14.0708 12.4572 14.1368 12.2829C14.204 12.1054 14.2327 11.9512 14.2323 11.8266L14.2319 11.8021L14.2312 11.7879C14.2223 11.642 14.155 11.5128 14.0564 11.4202L14.0563 11.4202C13.9743 11.3431 13.8489 11.2575 13.6572 11.1731C13.3529 11.0392 13.1387 11.0126 12.9995 11.0177C12.9548 11.0194 12.8953 11.0249 12.8284 11.0434L12.8149 11.0473C12.7419 11.0691 12.6874 11.0987 12.6551 11.1178C12.5503 11.1797 12.446 11.2739 12.3501 11.3989C12.2541 11.5238 12.1801 11.6621 12.1308 11.7867C11.865 12.459 10.9732 12.905 10.1798 12.4541L9.95239 12.3248C9.95236 12.3248 9.95231 12.3247 9.95228 12.3247C9.64403 12.1495 9.2967 11.7732 9.31835 11.2285L9.31977 11.1988C9.35578 10.5761 9.73987 10.0414 10.0961 9.67844C10.4907 9.27645 11.0151 8.91541 11.6012 8.66126Z" fill="#171717"/>
</g>
<defs>
<filter id="filter0_g_1190_355" x="5.44105" y="4.956" width="15.6492" height="19.3358" filterUnits="userSpaceOnUse" color-interpolation-filters="sRGB">
<feFlood flood-opacity="0" result="BackgroundImageFix"/>
<feBlend mode="normal" in="SourceGraphic" in2="BackgroundImageFix" result="shape"/>
<feTurbulence type="fractalNoise" baseFrequency="0.53381699323654175 0.38429880142211914" numOctaves="3" seed="9234" />
<feDisplacementMap in="shape" scale="0.31322076916694641" xChannelSelector="R" yChannelSelector="G" result="displacedImage" width="100%" height="100%" />
<feMerge result="effect1_texture_1190_355">
<feMergeNode in="displacedImage"/>
</feMerge>
</filter>
<filter id="filter1_g_1190_355" x="1.13343" y="16.1827" width="10.7595" height="10.6962" filterUnits="userSpaceOnUse" color-interpolation-filters="sRGB">
<feFlood flood-opacity="0" result="BackgroundImageFix"/>
<feBlend mode="normal" in="SourceGraphic" in2="BackgroundImageFix" result="shape"/>
<feTurbulence type="fractalNoise" baseFrequency="0.53381699323654175 0.38429880142211914" numOctaves="3" seed="9234" />
<feDisplacementMap in="shape" scale="0.31322076916694641" xChannelSelector="R" yChannelSelector="G" result="displacedImage" width="100%" height="100%" />
<feMerge result="effect1_texture_1190_355">
<feMergeNode in="displacedImage"/>
</feMerge>
</filter>
<filter id="filter2_g_1190_355" x="19.1461" y="0.953253" width="7.44115" height="7.13268" filterUnits="userSpaceOnUse" color-interpolation-filters="sRGB">
<feFlood flood-opacity="0" result="BackgroundImageFix"/>
<feBlend mode="normal" in="SourceGraphic" in2="BackgroundImageFix" result="shape"/>
<feTurbulence type="fractalNoise" baseFrequency="0.53381699323654175 0.38429880142211914" numOctaves="3" seed="9234" />
<feDisplacementMap in="shape" scale="0.31322076916694641" xChannelSelector="R" yChannelSelector="G" result="displacedImage" width="100%" height="100%" />
<feMerge result="effect1_texture_1190_355">
<feMergeNode in="displacedImage"/>
</feMerge>
</filter>
<filter id="filter3_g_1190_355" x="9.16077" y="8.12067" width="8.13744" height="6.99028" filterUnits="userSpaceOnUse" color-interpolation-filters="sRGB">
<feFlood flood-opacity="0" result="BackgroundImageFix"/>
<feBlend mode="normal" in="SourceGraphic" in2="BackgroundImageFix" result="shape"/>
<feTurbulence type="fractalNoise" baseFrequency="0.53381699323654175 0.38429880142211914" numOctaves="3" seed="9234" />
<feDisplacementMap in="shape" scale="0.31322076916694641" xChannelSelector="R" yChannelSelector="G" result="displacedImage" width="100%" height="100%" />
<feMerge result="effect1_texture_1190_355">
<feMergeNode in="displacedImage"/>
</feMerge>
</filter>
</defs>
</svg>
