<svg width="27" height="26" viewBox="0 0 27 26" fill="none" xmlns="http://www.w3.org/2000/svg">
<path fill-rule="evenodd" clip-rule="evenodd" d="M11.1534 0.00012207L11.1668 0.0641345C11.216 0.0787754 11.2647 0.0966131 11.3128 0.117734C11.632 0.25792 11.852 0.511278 12.0001 0.765659C12.7011 1.96957 13.36 3.24787 13.6574 4.69238L13.6713 4.76126L13.6736 4.77361C13.6758 4.78596 13.6774 4.79837 13.6787 4.81083L13.8341 6.34041C13.9035 7.02268 14.0521 7.67342 14.229 8.38801L14.6024 9.89596L14.8237 10.494L15.4965 12.0256L15.5208 12.0822C15.7664 12.6662 15.8337 13.2273 15.8348 13.8134L15.8346 13.8482C15.8263 14.5663 15.5162 15.2593 14.7831 15.6693L14.7473 15.6889C14.5403 15.8 14.3242 15.8524 14.1446 15.8853C14.1924 16.2442 14.2031 16.6501 14.073 17.0379C13.9655 17.358 13.7801 17.6158 13.5234 17.7996C13.5078 17.8108 13.4724 17.7944 13.4281 17.7739C13.337 17.7318 13.2085 17.6723 13.139 17.7996C13.054 17.6678 12.994 17.6651 12.911 17.6613C12.8473 17.6585 12.77 17.655 12.6574 17.5922C12.2665 17.3741 11.8283 17.2873 11.4593 17.2711C11.4466 17.2663 11.4102 17.2518 11.343 17.2137C11.2855 17.1811 11.2231 17.1414 11.1475 17.0919C11.143 17.0889 11.1384 17.0859 11.1336 17.0828C11.1232 17.0759 11.1122 17.0687 11.1008 17.0611C11.0407 17.0215 10.9684 16.9738 10.903 16.9333C10.1109 16.443 9.27793 16.3827 8.83169 17.0611C8.70631 17.2518 8.73954 17.2788 8.8222 17.346C8.87703 17.3905 8.95361 17.4528 9.02007 17.5922C9.04225 17.6387 9.06169 17.6811 9.07961 17.7201C9.19077 17.9624 9.24344 18.0772 9.52758 18.2601C9.78866 18.4282 10.1231 18.6427 10.47 18.817C10.8084 18.987 11.2445 19.1637 11.6991 19.1864L11.7024 19.1866C11.7553 19.1893 11.8083 19.1937 11.8774 19.1995C11.8984 19.2013 11.9209 19.2032 11.9454 19.2052C11.9791 19.208 12.0221 19.2065 12.067 19.205C12.1509 19.2022 12.2412 19.1992 12.288 19.2232C12.3463 19.2236 12.3982 19.292 12.4517 19.3626C12.5138 19.4445 12.5781 19.5293 12.6574 19.5145C12.7595 19.9849 12.6602 20.1438 12.5199 20.3679C12.4974 20.4039 12.4739 20.4415 12.45 20.4823C12.3965 20.5737 12.3163 20.6952 12.2636 20.7751L12.2633 20.7755C12.2417 20.8082 12.2247 20.8339 12.2162 20.8476C12.2151 20.8493 12.2141 20.851 12.2131 20.8526C12.2125 20.8536 12.2119 20.8546 12.2113 20.8556C12.2225 20.948 12.2341 21.041 12.2458 21.1345C12.3144 21.6819 12.3856 22.2496 12.3844 22.8571C12.3822 24.0252 11.5981 25.0832 10.3171 25.3441C8.48323 25.7176 6.49275 25.5252 4.77012 24.758C3.69756 24.2803 2.72073 23.7362 1.78547 23.0472C1.78518 23.047 1.78482 23.0467 1.78448 23.0465L1.78406 23.0462C1.78354 23.0459 1.78302 23.0455 1.78252 23.0451C1.24863 22.6516 0.835238 22.1688 0.465325 21.7369L0.464035 21.7354C0.418358 21.6821 0.37334 21.6295 0.328834 21.578C0.0698341 21.2781 -0.038179 20.9057 0.0119438 20.5529V0.00012207H11.1534ZM8.67581 7.45726C9.10013 7.45918 9.56775 7.52995 9.95552 7.7376C10.3695 7.9593 10.6942 8.34432 10.7237 8.89814L10.7251 8.93297C10.7363 9.29205 10.6226 9.61748 10.3647 9.86455C10.1193 10.0996 9.80098 10.2074 9.51929 10.2618C9.00785 10.3606 8.36753 10.3243 7.84787 10.2948C7.8097 10.2926 7.77219 10.2905 7.73542 10.2885L7.72678 10.288C7.65553 10.2842 7.5752 10.2819 7.48838 10.2795C7.1629 10.2703 6.74624 10.2586 6.37514 10.1546C5.77018 9.98503 5.39504 9.43958 5.45501 8.87218C5.50993 8.35215 5.85017 7.8837 6.44569 7.71622C7.18276 7.50885 7.94674 7.45398 8.67581 7.45726Z" fill="#171717"/>
<path d="M21.4625 0.760688C21.7152 0.663611 22.0358 0.634871 22.3316 0.702491C22.6382 0.772605 23.0045 0.973747 23.1443 1.40183L23.7956 3.39582C24.0331 4.12279 24.1047 4.86962 24.1208 5.59487C24.1316 6.08534 24.1161 6.62187 24.106 7.12632C24.485 7.12037 24.8859 7.17227 25.2665 7.36092C25.9606 7.7049 26.182 8.45102 26.0473 9.061L25.7811 10.2661C25.7451 10.4292 25.6933 10.5861 25.6597 10.6969C25.6256 10.8097 25.6012 10.9012 25.5879 10.9954L25.5854 11.0142C25.5513 11.2859 25.446 11.6221 25.4026 11.8021C25.3595 11.9812 25.3454 12.1045 25.354 12.1981C25.6125 12.613 25.6539 13.1202 25.6314 13.5476C25.6073 14.0057 25.5035 14.4743 25.391 14.8616L25.3684 14.938C25.1908 15.5277 24.7577 16.0005 24.1204 16.1532C24.068 16.8423 24.0035 17.5383 23.8115 18.253C23.8107 18.4325 23.7764 18.5892 23.7416 18.7153C23.7218 18.7875 23.6986 18.8605 23.6815 18.9159C23.6676 18.961 23.6561 18.9992 23.6467 19.0348L23.6378 19.0695C23.1419 21.1408 22.456 22.659 20.8395 24.2203L20.8395 24.2204C20.1942 24.8437 19.4167 25.3302 18.5604 25.6437L18.5196 25.6585C18.2428 25.7577 17.802 25.9177 17.3614 25.9174L12.7266 25.9151L13.1517 25.5099C12.9257 25.2698 12.8028 24.9551 12.7966 24.6565C12.7826 23.9817 13.3332 23.3819 14.1032 23.3791L14.1401 23.3794L14.1767 23.3802L14.5737 23.4378C14.9176 23.4381 15.2572 23.4528 15.5729 23.4643C15.9082 23.4766 16.2196 23.4856 16.5195 23.4756C17.1156 23.4557 17.6241 23.3611 18.0831 23.0961L18.5769 22.811C19.3384 22.1967 19.9616 21.4598 20.3954 20.5951C20.9497 19.4903 21.1651 18.2918 21.437 16.9805L21.4438 16.9467C21.4769 16.7775 21.4956 16.6066 21.5119 16.4191C21.5285 16.2275 21.5438 16.0004 21.5722 15.7756C21.609 15.4833 21.627 15.2053 21.628 14.9121C21.6307 14.1299 22.2441 13.5918 22.9761 13.5624C22.9565 13.5313 22.9297 13.4886 22.9046 13.4427C22.8378 13.3206 22.7714 13.1597 22.7587 12.9514C22.7052 12.0742 22.8682 11.2554 23.0555 10.4727L23.2434 9.68719L22.8998 9.69604C22.4363 9.70795 22.0848 9.48665 21.8682 9.294L21.8476 9.27545C21.4452 8.90656 21.4866 8.39554 21.4927 8.18538V8.18531C21.5286 6.94975 21.6273 5.85085 21.4603 4.72254L21.4554 4.69098C21.4034 4.36529 21.2958 4.05089 21.1791 3.67334L20.7445 2.26709L20.7363 2.2395C20.5707 1.65965 20.8123 1.01039 21.4625 0.760688Z" fill="#171717"/>
<path d="M16.5783 7.67614C17.1481 7.54679 17.9508 7.42767 18.6787 7.45769C19.0526 7.47311 19.4456 7.52914 19.7862 7.66928C20.1339 7.8124 20.4725 8.06486 20.6229 8.48479L20.6331 8.51443C20.7358 8.82196 20.7355 9.16903 20.6068 9.47908C20.4684 9.81239 20.1804 10.0973 19.7541 10.2016C19.1073 10.3598 18.4738 10.3351 17.9198 10.3004L17.6874 10.2854C17.4601 10.2708 17.3352 10.275 17.0666 10.2616C16.8439 10.2505 16.59 10.2276 16.3352 10.1575C15.9942 10.0638 15.7407 9.8565 15.5931 9.58504C15.4532 9.32797 15.4253 9.0472 15.4509 8.80347C15.48 8.52483 15.5965 8.26934 15.8014 8.0672C16.0013 7.86999 16.2567 7.75124 16.5239 7.68867L16.5783 7.67614Z" fill="#171717"/>
<path d="M16.7337 19.3379C17.0979 19.1992 17.4891 18.863 17.9709 18.8974C18.5004 18.9353 18.9897 19.1389 19.284 19.5272L19.2979 19.5458C19.4398 19.7399 19.4692 19.9669 19.4661 20.1283C19.463 20.2933 19.4234 20.5142 19.2844 20.7038C19.0883 20.9712 18.7897 21.1317 18.5444 21.2348C18.4228 21.2859 18.3021 21.3278 18.2048 21.3609C18.0992 21.3967 18.0294 21.4196 17.9611 21.445L17.9578 21.4463C17.5077 21.6146 17.002 21.6363 16.5939 21.6233C16.1755 21.6101 15.75 21.5554 15.4175 21.5121C14.9974 21.4575 14.5767 21.3224 14.2625 21.0863C13.9347 20.8399 13.758 20.5074 13.8083 20.1346C13.9159 19.3367 15.0357 19.1504 16.0349 19.2641C16.1403 19.276 16.262 19.2939 16.3469 19.3056C16.4435 19.3189 16.5228 19.3288 16.5939 19.3344C16.677 19.3409 16.7191 19.3389 16.7337 19.3379Z" fill="#171717"/>
</svg>
