<svg width="2114" height="1020" viewBox="0 0 2114 1020" fill="none" xmlns="http://www.w3.org/2000/svg">
<g clip-path="url(#clip0_24_210)">
<path d="M349.45 990.696C328.932 990.963 309.576 988.688 290.955 979.288C276.893 981.22 263.112 978.829 251.267 969.962C226.081 960.985 211.616 939.759 206.219 914.046C198.329 922.374 202.297 931.899 198.511 938.521C193.925 938.459 187.182 935.52 183.831 937.216C171.951 943.244 164.48 979.356 170.18 1002.09C175.35 1022.9 189.522 1046.01 208.35 1058.04C234.082 1074.46 264.305 1074.38 292.816 1085.23C263.123 1083.13 230.711 1077.12 203.869 1060.83C201.761 1059.55 199.484 1057.73 197.172 1055.49C192.393 1055.42 188.64 1056.09 187.087 1058.54C180.837 1068.42 204.419 1087.87 206.367 1095.89C209.909 1110.51 217.609 1112.65 226.12 1120.38C251.363 1143.3 281.466 1148.73 316.659 1151.44C276.967 1161.17 239.568 1141.31 209.425 1114.72C205.266 1100.04 196.895 1088.57 186.685 1077.62C181.553 1067.46 180.344 1057.39 190.993 1050.55L170.762 1025.55C148.53 981.415 115.612 913.539 169.894 907.747C170.143 890.413 178.184 873.075 192.292 862.238C232.083 831.694 306.392 761.613 282.729 727.614C271.43 711.392 255.722 721.84 243.866 703.161C233.391 686.641 215.69 684.312 199.657 695.531C191.653 703.213 181.969 709.423 170.182 706.766C145.092 729.665 145.009 753.56 149.574 751.349L144.735 753.708C138.278 771.589 147.837 788.243 168.208 795.558C148.745 813.864 111.075 807.896 94.779 796.03L57.0004 768.473C46.8585 766.489 33.0356 771.329 22.8306 766.043C-5.25283 751.52 -25.2887 775.443 -47.2731 769.212C-56.1558 766.721 -66.4041 770.21 -75.1305 773.25L-113.829 786.742C-128.261 791.78 -146.714 787.023 -153.899 772.499C-154.153 767.031 -142.949 766.631 -138.9 766.816C-134.047 767.051 -130.54 756.118 -132.319 751.814C-141.702 728.878 -177.181 725.724 -205.101 733.827C-230.425 741.17 -236.433 752.311 -256.887 767.102C-270.967 777.237 -295.156 758.199 -329.169 799.369C-331.159 801.784 -331.036 803.524 -330.839 805.709C-330.689 807.089 -338.121 806.812 -338.86 808.275C-345.838 821.995 -363.042 827.572 -374.804 834.702C-395.811 847.363 -414.574 860.736 -439.496 862.631C-462.065 864.32 -484.051 858.154 -495.633 835.472C-482.015 834.997 -476.871 833.693 -472.064 823.903L-450.701 804.924C-439.532 788.098 -437.709 767.041 -441.058 748.019C-444.935 726.053 -459.548 713.709 -477.359 703.142C-489.542 695.934 -503.269 699.019 -517.996 698.975L-545.629 698.92C-568.533 698.871 -581.699 713.44 -587.13 735.88C-593.55 721.077 -581.826 707.422 -570.366 700.62C-555.59 691.876 -537.523 696.008 -521.298 695.184C-504.866 694.339 -491.113 690.341 -473.316 699.177C-476.334 687.42 -470.178 682.748 -462.324 677.541C-456.161 673.409 -450.801 674.594 -445.142 672.375C-429.534 666.217 -416.04 657.87 -400.73 661.833C-402.124 633.988 -425.723 656.096 -459.662 663.707C-470.595 666.152 -474.524 658.095 -482.443 655.381C-507.925 646.654 -531.339 637.246 -550.13 616.144C-556.593 608.881 -564.495 598.922 -558.64 588.562C-556.087 601.325 -554.885 607.277 -546.224 614.042C-533.666 623.838 -521.781 638.548 -505.313 642.227C-468.33 650.483 -472.912 672.98 -429.147 649.021C-414.983 641.255 -404.305 644.01 -391.42 649.734C-374.596 657.146 -362.395 626.065 -307.478 623.877C-300.272 623.597 -299.591 623.354 -293.56 626.503C-268.633 639.426 -243.864 627.123 -222.57 614.841C-204.833 604.586 -181.415 607.052 -162.192 602.98C-144.332 608.06 -129.526 599.445 -118.597 586.867C-101.718 588.226 -86.0241 583.446 -75.4902 571.277C-54.8882 564.777 -35.4507 555.614 -21.124 538.876C-18.0216 535.276 -15.0581 508.234 -28.638 499.265C-80.6122 465.017 -136.32 498.141 -191.727 485.043C-191.979 478.893 -185.63 474.226 -179.81 475.215C-149.014 480.435 -118.087 476.682 -90.8627 460.341C-75.9922 451.419 -89.3767 438.504 -81.9195 431.119C-79.9924 429.192 -74.6623 426.117 -71.897 426.178C-55.3251 426.577 -50.6255 415.234 -42.63 405.287C-34.1851 394.797 -31.5593 389.45 -33.1298 375.009C-34.1127 366.083 -24.8047 349.056 -17.6713 343.24C-8.55198 335.757 3.51884 331.896 13.8915 328.602C42.9571 319.314 71.2217 344.714 116.604 327.463C126.303 323.782 128.5 308.89 127.992 300.604C126.933 282.482 145.575 276.461 152.771 265.41C163.368 242.98 173.1 222.403 200.815 214.013C194.344 203.281 202.261 188.951 197.708 179.735C191.649 167.546 170.855 167.472 159.264 166.447C135.742 164.365 118.408 149.009 113.089 126.785C98.4293 111.571 81.671 100.242 61.5892 93.795C11.3974 91.1248 -8.5743 121.554 -47.5093 136.726C-49.206 127.488 -51.5746 123.1 -59.7977 123.706L-86.7025 125.661C-102.239 126.783 -101.499 98.4057 -146.99 89.0757C-174.553 83.4308 -202.794 91.2182 -229.213 102.732C-251.46 112.413 -271.098 125.471 -295.583 129.743C-290.438 123.042 -281.738 123.907 -275.132 120.416C-244.931 104.506 -215.034 92.7788 -182.489 81.4885C-225.426 73.945 -270.495 101.607 -305.862 97.1626C-237.515 86.6268 -205.351 63.5732 -130.312 81.9371C-116.674 85.2776 -108.646 99.2536 -96.3083 104.689C-71.9835 115.424 -37.3993 90.2802 -3.24276 93.907C24.6332 79.5682 55.0063 70.5146 85.2032 81.6474C105.15 88.9665 118.531 104.693 117.704 125.219C117.218 137.485 126.285 143.049 135.28 147.761C151.133 156.027 161.792 151.421 175.439 143.708C181.081 140.505 197.341 134.56 189.341 124.908C175.154 107.78 159.878 88.4027 163.217 65.0877C164.28 39.0272 179.818 16.8788 205.864 14.7955C226.087 -0.604389 252.194 -3.72854 276.631 1.27568C286.938 1.86705 298.234 6.68778 307.767 4.43129C321.006 1.28402 344.758 4.65843 357.515 13.275C350.69 16.472 346.413 11.6947 340.576 11.1686L295.995 7.29527L289.983 5.92891C288.164 5.52254 286.177 6.08405 285.87 7.77595C285.782 8.25017 285.822 8.79149 286.02 9.46494L286.189 9.94475L287.557 14.2274C307.354 11.5963 327.805 12.872 347.186 22.8682C366.403 14.3373 387.105 21.8916 402.087 35.8776C415.425 47.0933 421.476 62.2873 431.042 76.522L436.482 101.785C445.968 119.994 465.427 131.967 476.562 148.038C495.861 175.912 515.252 186.629 547.133 174.81L582.984 161.507C587.544 159.799 593.414 160.57 596.692 161.941C599.037 162.951 599.873 171.539 602.383 171.221C624.312 168.462 646.326 171.586 661.471 187.577C625.304 176.108 592.904 196.988 564.647 195.157C522.872 192.406 488.805 175.231 460.85 146.254C453.37 142.893 447.804 157.358 448.632 163.649C452.729 193.831 474.695 199.174 489.237 209.463C489.87 209.927 490.49 210.385 491.098 210.836C491.098 210.836 491.124 210.849 491.136 210.888C492.806 212.192 494.333 213.551 495.683 215.092L543.22 229.176C570.278 233.742 596.725 227.415 622.39 224.512C599.408 234.229 575.207 234.602 551.894 234.435L510.673 227.277C521.926 238.807 534.138 250.307 537.657 267.434C521.821 248.623 510.984 228.937 490.448 217.648L480.153 215.03C447.194 206.604 420.408 166.502 441.618 148.37C433.249 125.546 405.811 112.112 382.736 106.314C343.97 96.6289 308.065 93.5109 270.087 104.342C242.526 112.195 222.988 129.779 230.383 142.673C231.537 144.647 234.679 145.134 238.179 148.086C228.595 157.715 221.338 165.368 219.831 177.225C218.958 184.213 224.548 194.887 232.666 192.631C261.497 184.651 290.813 179.235 319.781 188.598C306.435 197.218 289.069 190.772 273.403 204.283C259.378 200.381 245.051 200.32 234.472 212.513C240.642 218.419 246.213 216.675 253.865 222.484C232.209 228.948 205.571 218.067 198.488 225.421L174.489 250.197C156.337 261.485 153.165 277.733 151.063 295.651C149.314 310.681 157.656 310.805 163.722 319.99C175.035 337.049 188.141 362.144 214.487 351.877C225.603 347.545 240.034 339.025 252.246 347.566C243.113 349.187 233.964 348.312 230.011 358.733C254.764 372.54 273.723 352.293 285.998 363.55L321.71 355.475C336.779 356.041 349.656 360.022 364.37 367.149C350.739 369.992 345.535 372.613 343.951 381.812C339.26 408.675 371.82 404.662 399.928 423.669C382.135 423.796 363.368 423.181 349.796 413.273C340.656 406.614 333.796 397.547 320.69 401.057C303.656 405.634 294.877 425.575 296.285 428.855C303.633 445.968 350.33 438.339 385.039 460.34C393.404 465.631 397.852 469.653 408.434 468.861C435.597 466.847 482.887 517.651 501.015 550.86C483.297 539.871 475.89 519.879 455.381 517.663C445.938 516.666 438.926 513.959 432.242 505.359C417.773 486.732 393.756 480.746 373.632 492.166C369.398 504.292 357.985 506.012 346.468 503.367C324.915 495.949 292.795 505.138 276.71 521.664C265.653 533.069 249.663 526.325 237.194 529.862C208.605 537.938 182.886 541.559 154.203 527.68C149.479 525.415 139.486 526.941 135.355 520.16C121.478 511.506 106.439 510.76 91.4977 518.799C61.7506 515.075 33.3966 524.185 9.70678 544.245C-3.53472 555.473 -18.2413 568.092 -28.9543 582.573C-55.0759 617.97 -98.1829 631.494 -139.628 612.737C-163.245 602.018 -178.09 625.41 -209.538 614.707L-232.169 626.316C-239.984 630.341 -242.402 638.286 -237.755 646.462C-248.668 649.73 -257.873 648.468 -267.919 648.275C-282.543 647.976 -291.725 660.11 -291.575 673.296C-291.397 689.019 -286.098 700.677 -274.252 711.545C-245.059 738.329 -199.587 738.541 -199.746 721.61C-199.78 717.575 -205.252 712.103 -211.934 711.976C-216.66 711.809 -215.863 707.155 -210.942 707.198C-149.392 735.749 -114.545 699.133 -75.8042 688.428C-65.5954 685.569 -57.0066 680.879 -53.3388 669.641C-33.0573 652.158 -7.53933 644.755 18.7186 649.452C42.2179 638.138 66.3986 633.64 91.8374 636.067C129.154 630.221 179.807 641.51 210.138 663.918C225.666 650.236 248.966 652.185 265.124 664.19C276.565 672.681 286.882 671.651 298.882 675.2C344.482 688.67 383.502 721.581 402.72 766.472L378.882 743.163C371.782 736.214 366.663 726.651 356.483 720.793C334.204 708.031 338.637 728.974 315.245 748.378C310.894 751.97 307.407 764.652 308.499 770.351C313.417 796.233 343.453 806.191 372.964 802.131C347.958 818.797 329.979 813.329 306.929 795.152C305.804 800.706 312.205 807.839 309.668 811.477C301.341 812.126 296.27 802.409 290.572 797.582L273.174 833.922C245.272 848.247 229.054 883.274 247.388 905.859C255.911 916.307 270.725 923.244 285.273 927.389C285.053 933.941 277.056 932.113 272.832 931.088C264.062 960.043 334.323 990.116 371.019 986.154L451.049 977.456C418.066 989.328 383.818 990.223 349.476 990.677L349.45 990.696ZM291.261 86.3375C290.668 81.0808 286.382 81.4056 283.386 77.7758C342.021 47.8871 429.234 130.258 430.17 98.2437C431.057 66.9999 395.62 22.92 362.959 23.5787C351.953 23.7892 343.31 25.93 332.342 22.3066C303.813 12.851 274.797 16.3428 249.667 31.3013C239.081 37.6204 229.69 41.3342 221.21 52.261C209.047 68.0103 202.738 88.2623 213.609 106.096C215.255 108.802 212.897 116.015 218.995 117.28C222.504 118.058 226.309 117.35 230.262 113.71C247.242 98.0146 267.843 91.5792 291.261 86.3375ZM273.598 387.272C259.152 386.449 247.86 381.712 234.371 375.962C199.367 361.057 154.094 383.896 158.07 406.663C160.529 420.775 200.774 399.789 228.902 405.472L253.589 419.991C267.539 423.789 280.887 417.382 293.229 409.061C294.895 394.93 284.992 387.868 273.604 387.26L273.598 387.272ZM113.556 482.689C113.396 498.558 124.353 503.005 138.438 509.476C154.312 516.809 168.785 533.209 188.538 531.401C195.094 530.81 203.064 532.689 209.55 531.492C229.389 527.794 249.789 520.537 266.885 509.585C296.953 490.321 288.429 439.493 285.146 436.59C282.142 433.932 276.329 434.654 272.029 435.037C260.258 438.145 250.302 435.316 245.61 423.555C229.341 418.143 213.197 418.165 197.453 423.162L140.168 441.306C135.899 442.648 135.378 452.976 135.591 456.487C121.026 461.716 113.666 469.965 113.53 482.675L113.556 482.689ZM69.0185 457.031C73.8008 434.217 41.2617 422.499 46.4487 410.046C62.0668 415.83 77.3916 425.036 85.4358 441.2C97.6832 433.367 96.7616 423.4 100.232 413.522C110.09 385.465 98.1639 354.033 66.9492 343.843C60.1136 341.603 52.3026 342.784 45.6643 347.136C51.5631 350.443 57.2204 351.834 63.576 356.618C59.1588 364.745 51.8546 363.639 44.2202 362.328C17.1134 357.606 -15.2339 371.636 -24.5924 398.069C-7.10125 396.14 9.26697 388.171 22.209 400.723C4.09127 406.305 -13.2587 405.592 -24.2849 419.681C-26.1321 422.073 -25.347 429.74 -27.5141 431.752C-31.8341 435.717 -66.2438 438.982 -58.4686 462.469C-54.7673 473.61 -42.2721 475.664 -33.6244 480.08C8.40915 501.636 62.4333 488.472 69.0185 457.031ZM-261.249 733.691C-264.061 723.702 -274.464 716.848 -286.526 715.607C-287.998 709.334 -288.336 702.976 -291.104 699.5C-295.933 693.456 -303.463 692.069 -310.664 690.954L-335.242 687.143C-338.679 686.598 -339.594 684.294 -340.475 681.309C-341.08 679.282 -337.42 677.554 -333.28 676.795C-334.015 657.412 -370.339 652.529 -380.113 658.203C-394.312 666.406 -407.946 665.523 -424.108 667.892C-435.707 669.595 -445.495 678.808 -457.456 679.41C-462.667 679.669 -468.994 685.097 -469.755 689.037C-473.177 706.682 -441.927 719.086 -433.063 741.65C-423.552 765.76 -438.449 797.175 -430.2 808.389C-420.659 821.407 -400.503 818.526 -389.195 809.514L-346.645 776.083C-346.645 776.083 -346.503 776.061 -346.439 776.062L-346.161 775.721C-322.855 757.313 -290.293 772.718 -273.488 760.621C-264.558 754.176 -258.089 744.871 -261.249 733.691ZM132.977 674.731C124.318 656.064 107.242 653.105 90.2846 650.046C72.5833 646.855 56.2448 657.295 38.6398 657.066C8.4018 656.677 -21.0224 662.052 -40.0255 689.658C-43.1744 694.209 -42.4208 704.803 -37.7641 708.122C-33.0124 711.507 -26.7241 708.157 -19.0116 707.655C-29.5867 717.282 -44.2275 718.031 -59.1158 715.365C-73.6524 712.802 -94.8217 727.622 -87.563 743.518C-81.5278 756.8 -56.6667 759.459 -44.0201 758.113L6.25358 752.891C42.3343 753.548 80.205 751.491 110.176 728.711C112.829 720.63 114.49 712.611 125.779 708.012C134.29 704.517 136.984 683.35 133.002 674.745L132.977 674.731Z" stroke="#8A9AA3" stroke-miterlimit="10"/>
<path d="M1764.55 990.696C1785.07 990.963 1804.42 988.688 1823.04 979.288C1837.11 981.22 1850.89 978.829 1862.73 969.962C1887.92 960.985 1902.38 939.759 1907.78 914.046C1915.67 922.374 1911.7 931.899 1915.49 938.521C1920.07 938.459 1926.82 935.52 1930.17 937.216C1942.05 943.244 1949.52 979.356 1943.82 1002.09C1938.65 1022.9 1924.48 1046.01 1905.65 1058.04C1879.92 1074.46 1849.7 1074.38 1821.18 1085.23C1850.88 1083.13 1883.29 1077.12 1910.13 1060.83C1912.24 1059.55 1914.52 1057.73 1916.83 1055.49C1921.61 1055.42 1925.36 1056.09 1926.91 1058.54C1933.16 1068.42 1909.58 1087.87 1907.63 1095.89C1904.09 1110.51 1896.39 1112.65 1887.88 1120.38C1862.64 1143.3 1832.53 1148.73 1797.34 1151.44C1837.03 1161.17 1874.43 1141.31 1904.58 1114.72C1908.73 1100.04 1917.11 1088.57 1927.32 1077.62C1932.45 1067.46 1933.66 1057.39 1923.01 1050.55L1943.24 1025.55C1965.47 981.415 1998.39 913.539 1944.11 907.747C1943.86 890.413 1935.82 873.075 1921.71 862.238C1881.92 831.694 1807.61 761.613 1831.27 727.614C1842.57 711.392 1858.28 721.84 1870.13 703.161C1880.61 686.641 1898.31 684.312 1914.34 695.531C1922.35 703.213 1932.03 709.423 1943.82 706.766C1968.91 729.665 1968.99 753.56 1964.43 751.349L1969.26 753.708C1975.72 771.589 1966.16 788.243 1945.79 795.558C1965.25 813.864 2002.92 807.896 2019.22 796.03L2057 768.473C2067.14 766.489 2080.96 771.329 2091.17 766.043C2119.25 751.52 2139.29 775.443 2161.27 769.212C2170.16 766.721 2180.4 770.21 2189.13 773.25L2227.83 786.742C2242.26 791.78 2260.71 787.023 2267.9 772.499C2268.15 767.031 2256.95 766.631 2252.9 766.816C2248.05 767.051 2244.54 756.118 2246.32 751.814C2255.7 728.878 2291.18 725.724 2319.1 733.827C2344.43 741.17 2350.43 752.311 2370.89 767.102C2384.97 777.237 2409.16 758.199 2443.17 799.369C2445.16 801.784 2445.04 803.524 2444.84 805.709C2444.69 807.089 2452.12 806.812 2452.86 808.275C2459.84 821.995 2477.04 827.572 2488.8 834.702C2509.81 847.363 2528.57 860.736 2553.5 862.631C2576.06 864.32 2598.05 858.154 2609.63 835.472C2596.01 834.997 2590.87 833.693 2586.06 823.903L2564.7 804.924C2553.53 788.098 2551.71 767.041 2555.06 748.019C2558.94 726.053 2573.55 713.709 2591.36 703.142C2603.54 695.934 2617.27 699.019 2632 698.975L2659.63 698.92C2682.53 698.871 2695.7 713.44 2701.13 735.88C2707.55 721.077 2695.83 707.422 2684.37 700.62C2669.59 691.876 2651.52 696.008 2635.3 695.184C2618.87 694.339 2605.11 690.341 2587.32 699.177C2590.33 687.42 2584.18 682.748 2576.32 677.541C2570.16 673.409 2564.8 674.594 2559.14 672.375C2543.53 666.217 2530.04 657.87 2514.73 661.833C2516.12 633.988 2539.72 656.096 2573.66 663.707C2584.59 666.152 2588.52 658.095 2596.44 655.381C2621.93 646.654 2645.34 637.246 2664.13 616.144C2670.59 608.881 2678.5 598.922 2672.64 588.562C2670.09 601.325 2668.88 607.277 2660.22 614.042C2647.67 623.838 2635.78 638.548 2619.31 642.227C2582.33 650.483 2586.91 672.98 2543.15 649.021C2528.98 641.255 2518.3 644.01 2505.42 649.734C2488.6 657.146 2476.39 626.065 2421.48 623.877C2414.27 623.597 2413.59 623.354 2407.56 626.503C2382.63 639.426 2357.86 627.123 2336.57 614.841C2318.83 604.586 2295.42 607.052 2276.19 602.98C2258.33 608.06 2243.53 599.445 2232.6 586.867C2215.72 588.226 2200.02 583.446 2189.49 571.277C2168.89 564.777 2149.45 555.614 2135.12 538.876C2132.02 535.276 2129.06 508.234 2142.64 499.265C2194.61 465.017 2250.32 498.141 2305.73 485.043C2305.98 478.893 2299.63 474.226 2293.81 475.215C2263.01 480.435 2232.09 476.682 2204.86 460.341C2189.99 451.419 2203.38 438.504 2195.92 431.119C2193.99 429.192 2188.66 426.117 2185.9 426.178C2169.33 426.577 2164.63 415.234 2156.63 405.287C2148.19 394.797 2145.56 389.45 2147.13 375.009C2148.11 366.083 2138.8 349.056 2131.67 343.24C2122.55 335.757 2110.48 331.896 2100.11 328.602C2071.04 319.314 2042.78 344.714 1997.4 327.463C1987.7 323.782 1985.5 308.89 1986.01 300.604C1987.07 282.482 1968.43 276.461 1961.23 265.41C1950.63 242.98 1940.9 222.403 1913.19 214.013C1919.66 203.281 1911.74 188.951 1916.29 179.735C1922.35 167.546 1943.14 167.472 1954.74 166.447C1978.26 164.365 1995.59 149.009 2000.91 126.785C2015.57 111.571 2032.33 100.242 2052.41 93.795C2102.6 91.1248 2122.57 121.554 2161.51 136.726C2163.21 127.488 2165.57 123.1 2173.8 123.706L2200.7 125.661C2216.24 126.783 2215.5 98.4057 2260.99 89.0757C2288.55 83.4308 2316.79 91.2182 2343.21 102.732C2365.46 112.413 2385.1 125.471 2409.58 129.743C2404.44 123.042 2395.74 123.907 2389.13 120.416C2358.93 104.506 2329.03 92.7788 2296.49 81.4885C2339.43 73.945 2384.49 101.607 2419.86 97.1626C2351.52 86.6268 2319.35 63.5732 2244.31 81.9371C2230.67 85.2776 2222.65 99.2536 2210.31 104.689C2185.98 115.424 2151.4 90.2802 2117.24 93.907C2089.37 79.5682 2058.99 70.5146 2028.8 81.6474C2008.85 88.9665 1995.47 104.693 1996.3 125.219C1996.78 137.485 1987.72 143.049 1978.72 147.761C1962.87 156.027 1952.21 151.421 1938.56 143.708C1932.92 140.505 1916.66 134.56 1924.66 124.908C1938.85 107.78 1954.12 88.4027 1950.78 65.0877C1949.72 39.0272 1934.18 16.8788 1908.14 14.7955C1887.91 -0.604389 1861.81 -3.72854 1837.37 1.27568C1827.06 1.86705 1815.77 6.68778 1806.23 4.43129C1792.99 1.28402 1769.24 4.65843 1756.48 13.275C1763.31 16.472 1767.59 11.6947 1773.42 11.1686L1818.01 7.29527L1824.02 5.92891C1825.84 5.52254 1827.82 6.08405 1828.13 7.77595C1828.22 8.25017 1828.18 8.79149 1827.98 9.46494L1827.81 9.94475L1826.44 14.2274C1806.65 11.5963 1786.19 12.872 1766.81 22.8682C1747.6 14.3373 1726.9 21.8916 1711.91 35.8776C1698.58 47.0933 1692.52 62.2873 1682.96 76.522L1677.52 101.785C1668.03 119.994 1648.57 131.967 1637.44 148.038C1618.14 175.912 1598.75 186.629 1566.87 174.81L1531.02 161.507C1526.46 159.799 1520.59 160.57 1517.31 161.941C1514.96 162.951 1514.13 171.539 1511.62 171.221C1489.69 168.462 1467.67 171.586 1452.53 187.577C1488.7 176.108 1521.1 196.988 1549.35 195.157C1591.13 192.406 1625.19 175.231 1653.15 146.254C1660.63 142.893 1666.2 157.358 1665.37 163.649C1661.27 193.831 1639.31 199.174 1624.76 209.463C1624.13 209.927 1623.51 210.385 1622.9 210.836C1622.9 210.836 1622.88 210.849 1622.86 210.888C1621.19 212.192 1619.67 213.551 1618.32 215.092L1570.78 229.176C1543.72 233.742 1517.27 227.415 1491.61 224.512C1514.59 234.229 1538.79 234.602 1562.11 234.435L1603.33 227.277C1592.07 238.807 1579.86 250.307 1576.34 267.434C1592.18 248.623 1603.02 228.937 1623.55 217.648L1633.85 215.03C1666.81 206.604 1693.59 166.502 1672.38 148.37C1680.75 125.546 1708.19 112.112 1731.26 106.314C1770.03 96.6289 1805.94 93.5109 1843.91 104.342C1871.47 112.195 1891.01 129.779 1883.62 142.673C1882.46 144.647 1879.32 145.134 1875.82 148.086C1885.41 157.715 1892.66 165.368 1894.17 177.225C1895.04 184.213 1889.45 194.887 1881.33 192.631C1852.5 184.651 1823.19 179.235 1794.22 188.598C1807.56 197.218 1824.93 190.772 1840.6 204.283C1854.62 200.381 1868.95 200.32 1879.53 212.513C1873.36 218.419 1867.79 216.675 1860.13 222.484C1881.79 228.948 1908.43 218.067 1915.51 225.421L1939.51 250.197C1957.66 261.485 1960.83 277.733 1962.94 295.651C1964.69 310.681 1956.34 310.805 1950.28 319.99C1938.97 337.049 1925.86 362.144 1899.51 351.877C1888.4 347.545 1873.97 339.025 1861.75 347.566C1870.89 349.187 1880.04 348.312 1883.99 358.733C1859.24 372.54 1840.28 352.293 1828 363.55L1792.29 355.475C1777.22 356.041 1764.34 360.022 1749.63 367.149C1763.26 369.992 1768.47 372.613 1770.05 381.812C1774.74 408.675 1742.18 404.662 1714.07 423.669C1731.86 423.796 1750.63 423.181 1764.2 413.273C1773.34 406.614 1780.2 397.547 1793.31 401.057C1810.34 405.634 1819.12 425.575 1817.71 428.855C1810.37 445.968 1763.67 438.339 1728.96 460.34C1720.6 465.631 1716.15 469.653 1705.57 468.861C1678.4 466.847 1631.11 517.651 1612.98 550.86C1630.7 539.871 1638.11 519.879 1658.62 517.663C1668.06 516.666 1675.07 513.959 1681.76 505.359C1696.23 486.732 1720.24 480.746 1740.37 492.166C1744.6 504.292 1756.01 506.012 1767.53 503.367C1789.09 495.949 1821.2 505.138 1837.29 521.664C1848.35 533.069 1864.34 526.325 1876.81 529.862C1905.39 537.938 1931.11 541.559 1959.8 527.68C1964.52 525.415 1974.51 526.941 1978.65 520.16C1992.52 511.506 2007.56 510.76 2022.5 518.799C2052.25 515.075 2080.6 524.185 2104.29 544.245C2117.53 555.473 2132.24 568.092 2142.95 582.573C2169.08 617.97 2212.18 631.494 2253.63 612.737C2277.25 602.018 2292.09 625.41 2323.54 614.707L2346.17 626.316C2353.98 630.341 2356.4 638.286 2351.75 646.462C2362.67 649.73 2371.87 648.468 2381.92 648.275C2396.54 647.976 2405.73 660.11 2405.58 673.296C2405.4 689.019 2400.1 700.677 2388.25 711.545C2359.06 738.329 2313.59 738.541 2313.75 721.61C2313.78 717.575 2319.25 712.103 2325.93 711.976C2330.66 711.809 2329.86 707.155 2324.94 707.198C2263.39 735.749 2228.55 699.133 2189.8 688.428C2179.6 685.569 2171.01 680.879 2167.34 669.641C2147.06 652.158 2121.54 644.755 2095.28 649.452C2071.78 638.138 2047.6 633.64 2022.16 636.067C1984.85 630.221 1934.19 641.51 1903.86 663.918C1888.33 650.236 1865.03 652.185 1848.88 664.19C1837.43 672.681 1827.12 671.651 1815.12 675.2C1769.52 688.67 1730.5 721.581 1711.28 766.472L1735.12 743.163C1742.22 736.214 1747.34 726.651 1757.52 720.793C1779.8 708.031 1775.36 728.974 1798.76 748.378C1803.11 751.97 1806.59 764.652 1805.5 770.351C1800.58 796.233 1770.55 806.191 1741.04 802.131C1766.04 818.797 1784.02 813.329 1807.07 795.152C1808.2 800.706 1801.79 807.839 1804.33 811.477C1812.66 812.126 1817.73 802.409 1823.43 797.582L1840.83 833.922C1868.73 848.247 1884.95 883.274 1866.61 905.859C1858.09 916.307 1843.27 923.244 1828.73 927.389C1828.95 933.941 1836.94 932.113 1841.17 931.088C1849.94 960.043 1779.68 990.116 1742.98 986.154L1662.95 977.456C1695.93 989.328 1730.18 990.223 1764.52 990.677L1764.55 990.696ZM1822.74 86.3375C1823.33 81.0808 1827.62 81.4056 1830.61 77.7758C1771.98 47.8871 1684.77 130.258 1683.83 98.2437C1682.94 66.9999 1718.38 22.92 1751.04 23.5787C1762.05 23.7892 1770.69 25.93 1781.66 22.3066C1810.19 12.851 1839.2 16.3428 1864.33 31.3013C1874.92 37.6204 1884.31 41.3342 1892.79 52.261C1904.95 68.0103 1911.26 88.2623 1900.39 106.096C1898.75 108.802 1901.1 116.015 1895.01 117.28C1891.5 118.058 1887.69 117.35 1883.74 113.71C1866.76 98.0146 1846.16 91.5792 1822.74 86.3375ZM1840.4 387.272C1854.85 386.449 1866.14 381.712 1879.63 375.962C1914.63 361.057 1959.91 383.896 1955.93 406.663C1953.47 420.775 1913.23 399.789 1885.1 405.472L1860.41 419.991C1846.46 423.789 1833.11 417.382 1820.77 409.061C1819.11 394.93 1829.01 387.868 1840.4 387.26L1840.4 387.272ZM2000.44 482.689C2000.6 498.558 1989.65 503.005 1975.56 509.476C1959.69 516.809 1945.22 533.209 1925.46 531.401C1918.91 530.81 1910.94 532.689 1904.45 531.492C1884.61 527.794 1864.21 520.537 1847.12 509.585C1817.05 490.321 1825.57 439.493 1828.85 436.59C1831.86 433.932 1837.67 434.654 1841.97 435.037C1853.74 438.145 1863.7 435.316 1868.39 423.555C1884.66 418.143 1900.8 418.165 1916.55 423.162L1973.83 441.306C1978.1 442.648 1978.62 452.976 1978.41 456.487C1992.97 461.716 2000.33 469.965 2000.47 482.675L2000.44 482.689ZM2044.98 457.031C2040.2 434.217 2072.74 422.499 2067.55 410.046C2051.93 415.83 2036.61 425.036 2028.56 441.2C2016.32 433.367 2017.24 423.4 2013.77 413.522C2003.91 385.465 2015.84 354.033 2047.05 343.843C2053.89 341.603 2061.7 342.784 2068.34 347.136C2062.44 350.443 2056.78 351.834 2050.42 356.618C2054.84 364.745 2062.15 363.639 2069.78 362.328C2096.89 357.606 2129.23 371.636 2138.59 398.069C2121.1 396.14 2104.73 388.171 2091.79 400.723C2109.91 406.305 2127.26 405.592 2138.28 419.681C2140.13 422.073 2139.35 429.74 2141.51 431.752C2145.83 435.717 2180.24 438.982 2172.47 462.469C2168.77 473.61 2156.27 475.664 2147.62 480.08C2105.59 501.636 2051.57 488.472 2044.98 457.031ZM2375.25 733.691C2378.06 723.702 2388.46 716.848 2400.53 715.607C2402 709.334 2402.34 702.976 2405.1 699.5C2409.93 693.456 2417.46 692.069 2424.66 690.954L2449.24 687.143C2452.68 686.598 2453.59 684.294 2454.47 681.309C2455.08 679.282 2451.42 677.554 2447.28 676.795C2448.02 657.412 2484.34 652.529 2494.11 658.203C2508.31 666.406 2521.95 665.523 2538.11 667.892C2549.71 669.595 2559.49 678.808 2571.46 679.41C2576.67 679.669 2582.99 685.097 2583.76 689.037C2587.18 706.682 2555.93 719.086 2547.06 741.65C2537.55 765.76 2552.45 797.175 2544.2 808.389C2534.66 821.407 2514.5 818.526 2503.2 809.514L2460.65 776.083C2460.65 776.083 2460.5 776.061 2460.44 776.062L2460.16 775.721C2436.85 757.313 2404.29 772.718 2387.49 760.621C2378.56 754.176 2372.09 744.871 2375.25 733.691ZM1981.02 674.731C1989.68 656.064 2006.76 653.105 2023.72 650.046C2041.42 646.855 2057.76 657.295 2075.36 657.066C2105.6 656.677 2135.02 662.052 2154.03 689.658C2157.17 694.209 2156.42 704.803 2151.76 708.122C2147.01 711.507 2140.72 708.157 2133.01 707.655C2143.59 717.282 2158.23 718.031 2173.12 715.365C2187.65 712.802 2208.82 727.622 2201.56 743.518C2195.53 756.8 2170.67 759.459 2158.02 758.113L2107.75 752.891C2071.67 753.548 2033.8 751.491 2003.82 728.711C2001.17 720.63 1999.51 712.611 1988.22 708.012C1979.71 704.517 1977.02 683.35 1981 674.745L1981.02 674.731Z" stroke="#8A9AA3" stroke-miterlimit="10"/>
</g>
<defs>
<clipPath id="clip0_24_210">
<rect width="2114" height="1020" fill="white"/>
</clipPath>
</defs>
</svg>
