<svg width="2114" height="818" viewBox="0 0 2114 818" fill="none" xmlns="http://www.w3.org/2000/svg">
<g clip-path="url(#clip0_24_210)">
<path d="M556.924 280.656C543.343 265.273 528.66 252.459 509.189 244.975C501.178 233.258 490.151 224.652 475.627 221.83C452.061 209.197 426.62 212.733 403.943 226.001C404.815 214.563 414.538 211.106 416.902 203.854C413.777 200.497 407.07 197.475 406.077 193.853C402.565 181.003 424.305 151.215 444.978 140.172C463.87 130.028 490.507 125.013 512.065 130.885C541.513 138.924 561.753 161.368 588.935 175.211C567.438 154.621 541.22 134.639 511.124 125.69C508.764 124.984 505.887 124.519 502.671 124.312C499.413 120.815 497.39 117.584 498.163 114.789C501.282 103.526 531.53 107.938 538.781 103.995C551.991 96.8027 558.75 101.069 570.19 102.187C604.131 105.494 628.365 124.157 654.007 148.413C634.563 112.468 594.732 98.0933 554.79 93.6121C541.118 100.391 526.995 101.894 512.026 101.681C501.055 104.698 492.781 110.565 494.866 123.048L462.756 124.846C415.12 138.014 342.721 159.206 374.882 203.316C362.205 215.141 354.758 232.743 356.203 250.473C360.292 300.468 358.267 402.592 317.184 407.89C297.576 410.412 294.769 391.757 272.967 395.516C253.692 398.848 240.079 387.296 237.625 367.881C237.942 356.792 236.04 345.447 226.156 338.497C226.274 304.529 243.923 288.421 245.351 293.288L243.849 288.118C252.762 271.326 271.521 267.225 290.622 277.407C291.115 250.692 261.396 226.788 241.66 222.682L195.872 213.195C187.591 207.012 181.894 193.52 171.124 189.508C141.504 178.452 145.775 147.541 126.395 135.436C118.584 130.527 114.287 120.59 110.679 112.083L94.6881 74.3478C88.7298 60.2706 72.8129 49.7934 57.2258 54.2226C53.0036 57.7065 60.2317 66.2763 63.088 69.1527C66.5204 72.5908 60.775 82.5307 56.3912 84.1036C33.0954 92.5538 6.93248 68.3828 -5.81305 42.2533C-17.3783 18.5584 -13.1574 6.62488 -15.9346 -18.4634C-17.8797 -35.7025 -48.2301 -40.8408 -40.566 -93.6911C-40.1129 -96.7865 -38.7411 -97.8638 -36.9896 -99.1855C-35.8662 -100.001 -41.0627 -105.321 -40.4749 -106.852C-34.9948 -121.236 -42.416 -137.728 -45.032 -151.232C-49.7573 -175.299 -52.4491 -198.183 -67.7808 -217.922C-81.6852 -235.779 -101.019 -247.929 -125.603 -241.279C-116.81 -230.869 -114.322 -226.183 -118.348 -216.046L-118.064 -187.472C-123.031 -167.896 -137.41 -152.404 -153.753 -142.112C-172.633 -130.234 -191.593 -132.772 -211.383 -138.873C-224.906 -143.06 -231.838 -155.303 -241.76 -166.185L-260.358 -186.623C-275.775 -203.561 -273.822 -223.101 -260.842 -242.194C-276.122 -237.01 -278.366 -219.153 -275.711 -206.094C-272.266 -189.273 -257.072 -178.661 -246.786 -166.086C-236.378 -153.343 -230.104 -140.467 -211.606 -133.214C-222.344 -127.556 -221.672 -119.857 -220.256 -110.54C-219.178 -103.199 -214.701 -100.023 -212.545 -94.3402C-206.627 -78.6397 -203.75 -63.0358 -190.532 -54.3524C-212.1 -36.6864 -211.567 -69.0191 -228.718 -99.2777C-234.249 -109.021 -242.858 -106.521 -250.187 -110.566C-273.765 -123.587 -296.46 -134.618 -324.715 -134.371C-334.436 -134.281 -347.122 -133.449 -350.866 -122.154C-339.695 -128.833 -334.477 -131.939 -323.649 -130.064C-307.957 -127.338 -289.077 -128.41 -275.292 -118.678C-244.338 -96.8196 -230.746 -115.322 -219.108 -66.8044C-215.351 -51.0946 -206.139 -45.0323 -193.245 -39.329C-176.454 -31.8403 -191.291 -1.92775 -156.032 40.2329C-151.401 45.7605 -151.123 46.4279 -144.74 48.7818C-118.426 58.5739 -110.908 85.1885 -105.708 109.215C-101.396 129.244 -83.8423 144.939 -73.95 161.918C-58.1926 171.74 -54.6326 188.495 -56.6135 205.04C-44.2716 216.635 -37.2739 231.473 -39.2165 247.45C-30.1975 267.08 -23.9339 287.636 -26.7151 309.492C-27.299 314.209 -45.346 334.564 -61.1113 330.525C-121.391 315.014 -134.257 251.492 -181.171 219.233C-185.897 223.176 -185.092 231.015 -180.451 234.664C-155.902 253.977 -137.914 279.412 -131.74 310.559C-128.364 327.568 -146.922 326.324 -147.386 336.809C-147.52 339.531 -146.219 345.545 -144.317 347.554C-132.892 359.565 -138.141 370.665 -140.142 383.269C-142.244 396.57 -144.443 402.107 -156.197 410.641C-163.471 415.907 -169.837 434.238 -169.355 443.429C-168.776 455.212 -163.531 466.749 -159.006 476.646C-146.369 504.42 -108.567 508.306 -90.8739 553.517C-87.0881 563.176 -96.6473 574.805 -103.127 579.992C-117.267 591.377 -109.209 609.234 -112.565 621.987C-122.069 644.902 -130.779 665.931 -118.385 692.101C-130.682 694.514 -135.983 710.003 -145.87 712.818C-158.971 716.515 -172.989 701.157 -181.532 693.256C-198.872 677.226 -221.89 674.695 -241.929 685.677C-263.047 685.032 -282.695 680.223 -300.958 669.672C-336.643 634.275 -327.508 599.042 -342.412 560.004C-350.397 564.95 -355.239 566.142 -360.312 559.643L-376.931 538.394C-386.534 526.128 -407.063 545.734 -444.525 518.292C-467.218 501.66 -480.413 475.504 -489.623 448.197C-497.39 425.212 -500.902 401.891 -514.179 380.88C-515.689 389.193 -509.206 395.058 -507.357 402.297C-498.864 435.359 -487.476 465.387 -473.986 497.084C-508.41 470.335 -518.179 418.364 -545.223 395.143C-507.132 452.861 -502.614 492.175 -438.615 535.444C-426.981 543.306 -411.234 539.868 -398.921 545.36C-374.632 556.175 -370.038 598.686 -344.413 621.559C-336.317 651.843 -322.629 680.428 -294.101 695.327C-275.283 705.192 -254.644 704.545 -239.99 690.149C-231.228 681.552 -221.017 684.533 -211.484 688.033C-194.713 694.229 -190.968 705.22 -187.519 720.512C-186.104 726.844 -179.589 742.884 -192.113 743.438C-214.331 744.428 -238.948 746.122 -253.982 764.253C-272.577 782.542 -278.554 808.929 -262.607 829.626C-260.436 854.953 -245.22 876.395 -225.101 891.141C-217.741 898.381 -206.583 903.514 -201.853 912.093C-195.295 924.016 -176.844 939.349 -161.892 943.016C-164.107 935.811 -170.519 935.85 -174.829 931.878L-207.637 901.447L-212.687 897.91C-214.209 896.835 -215.128 894.985 -214.08 893.622C-213.788 893.238 -213.36 892.904 -212.728 892.598L-212.259 892.402L-208.167 890.539C-196.822 906.975 -182.143 921.272 -161.721 928.919C-155.136 948.888 -135.637 959.153 -115.213 960.863C-97.9452 963.214 -82.6232 957.494 -65.6518 955.023L-43.28 942.088C-23.4174 936.889 -1.47784 943.267 17.9071 940.725C51.5218 936.306 72.4842 943.477 85.136 975.037L99.3546 1010.53C101.151 1015.06 105.665 1018.89 108.882 1020.4C111.205 1021.46 118.13 1016.31 119.58 1018.39C132.262 1036.49 149.36 1050.7 171.379 1051.18C138.593 1032.09 132.307 994.058 111.973 974.35C81.8821 945.244 46.2784 931.535 6.03441 930.281C-1.47917 926.995 5.50121 913.158 10.7188 909.547C35.8334 892.314 54.543 905.002 71.9328 908.867C72.7021 909.024 73.4577 909.177 74.1999 909.324C74.1999 909.324 74.2269 909.334 74.2638 909.317C76.3515 909.679 78.3841 909.898 80.4326 909.863L122.792 935.628C144.346 952.611 157.418 976.456 172.502 997.422C164.268 973.868 148.293 955.686 132.514 938.524L99.5272 912.787C115.628 913.382 132.35 914.708 147.404 905.814C122.831 906.713 100.966 911.903 78.8109 904.268L69.9574 898.397C41.5809 879.635 -6.12106 886.718 -5.31331 914.61C-27.8449 923.736 -56.2248 912.427 -76.0168 899.223C-109.227 877.003 -135.649 852.492 -153.128 817.078C-165.817 791.383 -165.909 765.098 -151.388 761.919C-149.151 761.447 -146.68 763.449 -142.142 764.06C-141.444 750.492 -140.647 739.975 -132.873 730.896C-128.281 725.557 -116.618 722.531 -112.838 730.06C-99.3897 756.783 -83.7156 782.141 -57.3251 797.318C-59.8999 781.641 -76.3384 773.101 -76.8472 752.421C-89.157 744.649 -98.8239 734.074 -96.8935 718.047C-88.374 718.653 -85.9252 723.952 -76.4818 725.721C-86.2355 705.334 -112.187 692.903 -111.494 682.716L-109.253 648.296C-113.078 627.265 -103.169 614.004 -91.3043 600.413C-81.3422 589.024 -75.6482 595.122 -64.7685 593.449C-44.5318 590.375 -17.1356 583.234 -7.05071 609.65C-2.79596 620.796 0.582282 637.21 15.1115 640.523C10.1799 632.667 3.38726 626.475 8.45436 616.548C35.3075 625.618 33.037 653.262 49.6214 654.798L67.6198 686.682C78.1592 697.467 89.7564 704.336 104.919 710.452C97.8712 698.442 96.3183 692.826 102.07 685.475C118.825 663.96 137.717 690.781 170.677 698.843C158.822 685.574 145.763 672.081 129.307 668.678C118.236 666.378 106.91 667.384 100.71 655.316C92.6622 639.621 101.542 619.724 104.918 618.565C122.533 612.517 148.239 652.242 187.85 663.184C197.387 665.829 203.355 666.424 209.874 674.797C226.623 696.277 296.025 697.199 332.805 688.33C312.764 682.582 292.977 690.518 277.562 676.811C270.482 670.484 263.767 667.106 252.906 667.928C229.387 669.716 208.824 655.94 203.771 633.361C209.913 622.08 203.523 612.468 193.829 605.71C173.858 594.722 159.097 564.752 160.541 541.735C161.565 525.883 145.831 518.564 140.078 506.95C126.863 480.343 112.275 458.855 82.7294 446.922C77.8784 444.942 72.2982 436.513 64.4993 438.006C48.7686 433.536 38.1162 422.893 34.0387 406.424C11.303 386.883 -0.987494 359.756 -2.03272 328.731C-2.60517 311.38 -3.13156 292.009 0.404193 274.346C9.09028 231.22 -9.83701 190.197 -51.5678 172.085C-75.3705 161.784 -68.0066 135.075 -97.056 118.961L-103.652 94.3961C-105.918 85.9027 -101.655 78.7753 -92.4759 76.7283C-97.3822 66.4473 -104.499 60.4741 -111.389 53.1603C-121.432 42.5252 -118.607 27.5731 -108.735 18.8289C-96.9657 8.40293 -84.7692 4.49993 -68.7611 5.97929C-29.3105 9.62347 1.38294 43.1734 -11.2692 54.4261C-14.2819 57.1103 -22.0114 56.7307 -26.5924 51.8643C-29.8897 48.4753 -32.8032 52.1906 -29.4667 55.8081C33.0222 82.2411 29.2925 132.651 47.3771 168.545C52.114 178.03 54.4067 187.543 48.5432 197.808C49.2088 224.576 60.86 248.455 81.9733 264.758C89.3711 289.767 102.277 310.705 121.158 327.925C141.886 359.501 184.267 389.452 221.239 396.878C221.529 417.571 238.621 433.527 258.366 437.438C272.341 440.213 278.507 448.549 289.195 455.057C329.798 479.8 380.387 486.61 426.556 470.704L393.276 468.694C383.359 468.1 372.836 470.729 361.659 467.12C337.241 459.182 355.736 448.402 354.405 418.039C354.145 412.403 361.2 401.303 366.156 398.285C388.636 384.548 416.185 400.116 432.995 424.709C428.552 394.989 412.426 385.339 383.478 380.466C386.838 375.903 396.422 375.856 397.414 371.533C392.303 364.927 381.698 367.695 374.294 366.715L389.537 329.42C381.415 299.125 396.478 263.586 425.524 262.004C438.989 261.303 454.077 267.621 466.918 275.616C471.625 271.054 464.9 266.356 461.304 263.915C476.869 237.972 546.335 269.837 568.043 299.688L615.342 364.828C601.99 332.417 579.653 306.439 556.928 280.688L556.924 280.656ZM-152.249 844.859C-156.542 847.949 -159.179 844.556 -163.881 844.773C-146.651 908.291 -27.0492 917.597 -50.1426 939.79C-72.6975 961.428 -129.157 964.773 -150.602 940.13C-157.837 931.833 -162.055 923.991 -172.105 918.298C-198.27 903.509 -215.168 879.664 -220.96 850.999C-223.387 838.911 -226.942 829.458 -224.541 815.837C-221.039 796.249 -210.27 777.974 -189.755 774.052C-186.645 773.455 -182.883 766.864 -177.851 770.533C-174.918 772.61 -172.888 775.905 -172.93 781.278C-173.157 804.4 -164.091 823.986 -152.249 844.859ZM58.8711 629.679C48.5602 619.528 37.4675 614.343 24.1483 608.209C-10.4029 592.281 -23.8827 543.399 -4.34371 531.056C7.76416 523.401 19.2412 567.314 42.3414 584.34L69.6776 592.881C81.8596 600.667 86.0766 614.861 88.1994 629.593C78.847 640.317 66.9645 637.722 58.8662 629.693L58.8711 629.679ZM22.0957 447.017C33.7473 436.242 44.4002 441.375 58.6533 447.466C74.747 454.303 96.6185 454.013 108.544 469.864C112.509 475.119 119.253 479.762 122.722 485.372C133.304 502.556 141.627 522.545 144.993 542.566C150.91 577.783 107.524 605.6 103.169 605.117C99.1818 604.676 95.8137 599.884 93.2095 596.441C87.6078 585.631 78.8254 580.154 66.9606 584.576C52.0249 576.155 41.1996 564.179 34.3297 549.157L9.30386 494.527C7.43103 490.462 14.7339 483.14 17.4787 480.94C11.572 466.637 12.7414 455.644 22.0687 447.008L22.0957 447.017ZM-26.8247 431.248C-40.5175 450.112 -71.0513 433.87 -76.795 446.076C-62.0213 453.765 -44.9084 458.937 -27.5295 454.043C-25.1091 468.378 -33.1133 474.389 -38.1016 483.594C-52.2708 509.739 -83.57 522.011 -112.082 505.725C-118.333 502.165 -122.703 495.584 -123.936 487.742C-117.524 489.892 -112.694 493.15 -104.882 494.647C-101.827 485.916 -107.551 481.246 -113.649 476.47C-135.351 459.556 -146.679 426.167 -133.378 401.481C-123.06 415.737 -117.973 433.216 -99.9816 434.377C-108.012 417.203 -120.191 404.826 -117.157 387.195C-116.625 384.22 -110.417 379.653 -110.382 376.697C-110.344 370.833 -131.033 343.144 -108.409 333.133C-97.6683 328.394 -87.7549 336.272 -78.6758 339.715C-34.4757 356.384 -7.9502 405.254 -26.8247 431.248ZM-43.6193 0.741893C-52.9097 5.36586 -64.9739 2.26062 -73.9939 -5.84399C-79.6304 -2.72186 -84.568 1.29755 -89.0031 1.58134C-96.7242 2.06201 -102.808 -2.58614 -108.471 -7.17273L-127.8 -22.8257C-130.511 -25.0065 -132.833 -24.1371 -135.636 -22.785C-137.545 -21.8725 -136.368 -17.9999 -134.15 -14.422C-149.005 -1.95092 -177.017 -25.5855 -179.377 -36.6386C-182.834 -52.6678 -192.643 -62.1773 -201.742 -75.7442C-208.269 -85.4825 -208.015 -98.9214 -215.602 -108.188C-218.909 -112.223 -219.136 -120.556 -216.728 -123.767C-205.952 -138.151 -175.775 -123.326 -153.103 -131.911C-128.851 -141.054 -115.579 -173.189 -101.73 -174.608C-85.6769 -176.281 -74.2755 -159.411 -73.3593 -144.98L-69.5559 -91.0022C-69.5559 -91.0022 -69.4773 -90.8818 -69.433 -90.8351L-69.4995 -90.4001C-67.488 -60.7689 -34.2069 -46.9872 -31.8842 -26.4115C-30.6635 -15.4668 -33.213 -4.4249 -43.6193 0.741893ZM177.434 332.443C157.788 338.563 144.128 327.897 130.474 317.386C116.222 306.413 112.986 287.296 100.993 274.405C80.3992 252.261 64.6218 226.849 72.3156 194.23C73.5731 188.84 81.9289 182.284 87.515 183.506C93.2141 184.754 94.9546 191.663 99.7626 197.715C99.7938 183.414 90.5168 172.063 78.5429 162.822C66.8824 153.771 63.6469 128.134 80.2997 122.837C94.1946 118.389 112.86 135.025 120.356 145.299L150.247 186.058C174.964 212.35 198.872 241.793 202.12 279.298C197.913 286.69 193.087 293.306 197.26 304.76C200.387 313.413 186.512 329.624 177.461 332.452L177.434 332.443Z" stroke="#8A9AA3" stroke-miterlimit="10"/>
<path d="M1557.08 280.656C1570.66 265.273 1585.34 252.459 1604.81 244.975C1612.82 233.258 1623.85 224.652 1638.37 221.83C1661.94 209.197 1687.38 212.733 1710.06 226.001C1709.19 214.563 1699.46 211.106 1697.1 203.854C1700.22 200.497 1706.93 197.475 1707.92 193.853C1711.44 181.003 1689.69 151.215 1669.02 140.172C1650.13 130.028 1623.49 125.013 1601.94 130.885C1572.49 138.924 1552.25 161.368 1525.07 175.211C1546.56 154.621 1572.78 134.639 1602.88 125.69C1605.24 124.984 1608.11 124.519 1611.33 124.312C1614.59 120.815 1616.61 117.584 1615.84 114.789C1612.72 103.526 1582.47 107.938 1575.22 103.995C1562.01 96.8027 1555.25 101.069 1543.81 102.187C1509.87 105.494 1485.64 124.157 1459.99 148.413C1479.44 112.468 1519.27 98.0933 1559.21 93.6121C1572.88 100.391 1587.01 101.894 1601.97 101.681C1612.95 104.698 1621.22 110.565 1619.13 123.048L1651.24 124.846C1698.88 138.014 1771.28 159.206 1739.12 203.316C1751.8 215.141 1759.24 232.743 1757.8 250.473C1753.71 300.468 1755.73 402.592 1796.82 407.89C1816.42 410.412 1819.23 391.757 1841.03 395.516C1860.31 398.848 1873.92 387.296 1876.38 367.881C1876.06 356.792 1877.96 345.447 1887.84 338.497C1887.73 304.529 1870.08 288.421 1868.65 293.288L1870.15 288.118C1861.24 271.326 1842.48 267.225 1823.38 277.407C1822.88 250.692 1852.6 226.788 1872.34 222.682L1918.13 213.195C1926.41 207.012 1932.11 193.52 1942.88 189.508C1972.5 178.452 1968.22 147.541 1987.61 135.436C1995.42 130.527 1999.71 120.59 2003.32 112.083L2019.31 74.3478C2025.27 60.2706 2041.19 49.7934 2056.77 54.2226C2061 57.7065 2053.77 66.2763 2050.91 69.1527C2047.48 72.5908 2053.23 82.5307 2057.61 84.1036C2080.9 92.5538 2107.07 68.3828 2119.81 42.2533C2131.38 18.5584 2127.16 6.62488 2129.93 -18.4634C2131.88 -35.7025 2162.23 -40.8408 2154.57 -93.6911C2154.11 -96.7865 2152.74 -97.8638 2150.99 -99.1855C2149.87 -100.001 2155.06 -105.321 2154.48 -106.852C2149 -121.236 2156.42 -137.728 2159.03 -151.232C2163.76 -175.299 2166.45 -198.183 2181.78 -217.922C2195.69 -235.779 2215.02 -247.929 2239.6 -241.279C2230.81 -230.869 2228.32 -226.183 2232.35 -216.046L2232.06 -187.472C2237.03 -167.896 2251.41 -152.404 2267.75 -142.112C2286.63 -130.234 2305.59 -132.772 2325.38 -138.873C2338.91 -143.06 2345.84 -155.303 2355.76 -166.185L2374.36 -186.623C2389.78 -203.561 2387.82 -223.101 2374.84 -242.194C2390.12 -237.01 2392.37 -219.153 2389.71 -206.094C2386.27 -189.273 2371.07 -178.661 2360.79 -166.086C2350.38 -153.343 2344.1 -140.467 2325.61 -133.214C2336.34 -127.556 2335.67 -119.857 2334.26 -110.54C2333.18 -103.199 2328.7 -100.023 2326.55 -94.3402C2320.63 -78.6397 2317.75 -63.0358 2304.53 -54.3524C2326.1 -36.6864 2325.57 -69.0191 2342.72 -99.2777C2348.25 -109.021 2356.86 -106.521 2364.19 -110.566C2387.77 -123.587 2410.46 -134.618 2438.71 -134.371C2448.44 -134.281 2461.12 -133.449 2464.87 -122.154C2453.7 -128.833 2448.48 -131.939 2437.65 -130.064C2421.96 -127.338 2403.08 -128.41 2389.29 -118.678C2358.34 -96.8196 2344.75 -115.322 2333.11 -66.8044C2329.35 -51.0946 2320.14 -45.0323 2307.25 -39.329C2290.45 -31.8403 2305.29 -1.92775 2270.03 40.2329C2265.4 45.7605 2265.12 46.4279 2258.74 48.7818C2232.43 58.5739 2224.91 85.1885 2219.71 109.215C2215.4 129.244 2197.84 144.939 2187.95 161.918C2172.19 171.74 2168.63 188.495 2170.61 205.04C2158.27 216.635 2151.27 231.473 2153.22 247.45C2144.2 267.08 2137.93 287.636 2140.72 309.492C2141.3 314.209 2159.35 334.564 2175.11 330.525C2235.39 315.014 2248.26 251.492 2295.17 219.233C2299.9 223.176 2299.09 231.015 2294.45 234.664C2269.9 253.977 2251.91 279.412 2245.74 310.559C2242.36 327.568 2260.92 326.324 2261.39 336.809C2261.52 339.531 2260.22 345.545 2258.32 347.554C2246.89 359.565 2252.14 370.665 2254.14 383.269C2256.24 396.57 2258.44 402.107 2270.2 410.641C2277.47 415.907 2283.84 434.238 2283.36 443.429C2282.78 455.212 2277.53 466.749 2273.01 476.646C2260.37 504.42 2222.57 508.306 2204.87 553.517C2201.09 563.176 2210.65 574.805 2217.13 579.992C2231.27 591.377 2223.21 609.234 2226.57 621.987C2236.07 644.902 2244.78 665.931 2232.39 692.101C2244.68 694.514 2249.98 710.003 2259.87 712.818C2272.97 716.515 2286.99 701.157 2295.53 693.256C2312.87 677.226 2335.89 674.695 2355.93 685.677C2377.05 685.032 2396.7 680.223 2414.96 669.672C2450.64 634.275 2441.51 599.042 2456.41 560.004C2464.4 564.95 2469.24 566.142 2474.31 559.643L2490.93 538.394C2500.53 526.128 2521.06 545.734 2558.53 518.292C2581.22 501.66 2594.41 475.504 2603.62 448.197C2611.39 425.212 2614.9 401.891 2628.18 380.88C2629.69 389.193 2623.21 395.058 2621.36 402.297C2612.86 435.359 2601.48 465.387 2587.99 497.084C2622.41 470.335 2632.18 418.364 2659.22 395.143C2621.13 452.861 2616.61 492.175 2552.61 535.444C2540.98 543.306 2525.23 539.868 2512.92 545.36C2488.63 556.175 2484.04 598.686 2458.41 621.559C2450.32 651.843 2436.63 680.428 2408.1 695.327C2389.28 705.192 2368.64 704.545 2353.99 690.149C2345.23 681.552 2335.02 684.533 2325.48 688.033C2308.71 694.229 2304.97 705.22 2301.52 720.512C2300.1 726.844 2293.59 742.884 2306.11 743.438C2328.33 744.428 2352.95 746.122 2367.98 764.253C2386.58 782.542 2392.55 808.929 2376.61 829.626C2374.44 854.953 2359.22 876.395 2339.1 891.141C2331.74 898.381 2320.58 903.514 2315.85 912.093C2309.29 924.016 2290.84 939.349 2275.89 943.016C2278.11 935.811 2284.52 935.85 2288.83 931.878L2321.64 901.447L2326.69 897.91C2328.21 896.835 2329.13 894.985 2328.08 893.622C2327.79 893.238 2327.36 892.904 2326.73 892.598L2326.26 892.402L2322.17 890.539C2310.82 906.975 2296.14 921.272 2275.72 928.919C2269.14 948.888 2249.64 959.153 2229.21 960.863C2211.95 963.214 2196.62 957.494 2179.65 955.023L2157.28 942.088C2137.42 936.889 2115.48 943.267 2096.09 940.725C2062.48 936.306 2041.52 943.477 2028.86 975.037L2014.65 1010.53C2012.85 1015.06 2008.34 1018.89 2005.12 1020.4C2002.8 1021.46 1995.87 1016.31 1994.42 1018.39C1981.74 1036.49 1964.64 1050.7 1942.62 1051.18C1975.41 1032.09 1981.69 994.058 2002.03 974.35C2032.12 945.244 2067.72 931.535 2107.97 930.281C2115.48 926.995 2108.5 913.158 2103.28 909.547C2078.17 892.314 2059.46 905.002 2042.07 908.867C2041.3 909.024 2040.54 909.177 2039.8 909.324C2039.8 909.324 2039.77 909.334 2039.74 909.317C2037.65 909.679 2035.62 909.898 2033.57 909.863L1991.21 935.628C1969.65 952.611 1956.58 976.456 1941.5 997.422C1949.73 973.868 1965.71 955.686 1981.49 938.524L2014.47 912.787C1998.37 913.382 1981.65 914.708 1966.6 905.814C1991.17 906.713 2013.03 911.903 2035.19 904.268L2044.04 898.397C2072.42 879.635 2120.12 886.718 2119.31 914.61C2141.85 923.736 2170.23 912.427 2190.02 899.223C2223.23 877.003 2249.65 852.492 2267.13 817.078C2279.82 791.383 2279.91 765.098 2265.39 761.919C2263.15 761.447 2260.68 763.449 2256.14 764.06C2255.44 750.492 2254.65 739.975 2246.87 730.896C2242.28 725.557 2230.62 722.531 2226.84 730.06C2213.39 756.783 2197.72 782.141 2171.33 797.318C2173.9 781.641 2190.34 773.101 2190.85 752.421C2203.16 744.649 2212.82 734.074 2210.89 718.047C2202.37 718.653 2199.93 723.952 2190.48 725.721C2200.24 705.334 2226.19 692.903 2225.49 682.716L2223.25 648.296C2227.08 627.265 2217.17 614.004 2205.3 600.413C2195.34 589.024 2189.65 595.122 2178.77 593.449C2158.53 590.375 2131.14 583.234 2121.05 609.65C2116.8 620.796 2113.42 637.21 2098.89 640.523C2103.82 632.667 2110.61 626.475 2105.55 616.548C2078.69 625.618 2080.96 653.262 2064.38 654.798L2046.38 686.682C2035.84 697.467 2024.24 704.336 2009.08 710.452C2016.13 698.442 2017.68 692.826 2011.93 685.475C1995.18 663.96 1976.28 690.781 1943.32 698.843C1955.18 685.574 1968.24 672.081 1984.69 668.678C1995.76 666.378 2007.09 667.384 2013.29 655.316C2021.34 639.621 2012.46 619.724 2009.08 618.565C1991.47 612.517 1965.76 652.242 1926.15 663.184C1916.61 665.829 1910.65 666.424 1904.13 674.797C1887.38 696.277 1817.98 697.199 1781.2 688.33C1801.24 682.582 1821.02 690.518 1836.44 676.811C1843.52 670.484 1850.23 667.106 1861.09 667.928C1884.61 669.716 1905.18 655.94 1910.23 633.361C1904.09 622.08 1910.48 612.468 1920.17 605.71C1940.14 594.722 1954.9 564.752 1953.46 541.735C1952.43 525.883 1968.17 518.564 1973.92 506.95C1987.14 480.343 2001.72 458.855 2031.27 446.922C2036.12 444.942 2041.7 436.513 2049.5 438.006C2065.23 433.536 2075.88 422.893 2079.96 406.424C2102.7 386.883 2114.99 359.756 2116.03 328.731C2116.61 311.38 2117.13 292.009 2113.6 274.346C2104.91 231.22 2123.84 190.197 2165.57 172.085C2189.37 161.784 2182.01 135.075 2211.06 118.961L2217.65 94.3961C2219.92 85.9027 2215.66 78.7753 2206.48 76.7283C2211.38 66.4473 2218.5 60.4741 2225.39 53.1603C2235.43 42.5252 2232.61 27.5731 2222.74 18.8289C2210.97 8.40293 2198.77 4.49993 2182.76 5.97929C2143.31 9.62347 2112.62 43.1734 2125.27 54.4261C2128.28 57.1103 2136.01 56.7307 2140.59 51.8643C2143.89 48.4753 2146.8 52.1906 2143.47 55.8081C2080.98 82.2411 2084.71 132.651 2066.62 168.545C2061.89 178.03 2059.59 187.543 2065.46 197.808C2064.79 224.576 2053.14 248.455 2032.03 264.758C2024.63 289.767 2011.72 310.705 1992.84 327.925C1972.11 359.501 1929.73 389.452 1892.76 396.878C1892.47 417.571 1875.38 433.527 1855.63 437.438C1841.66 440.213 1835.49 448.549 1824.81 455.057C1784.2 479.8 1733.61 486.61 1687.44 470.704L1720.72 468.694C1730.64 468.1 1741.16 470.729 1752.34 467.12C1776.76 459.182 1758.26 448.402 1759.6 418.039C1759.86 412.403 1752.8 401.303 1747.84 398.285C1725.36 384.548 1697.81 400.116 1681.01 424.709C1685.45 394.989 1701.57 385.339 1730.52 380.466C1727.16 375.903 1717.58 375.856 1716.59 371.533C1721.7 364.927 1732.3 367.695 1739.71 366.715L1724.46 329.42C1732.59 299.125 1717.52 263.586 1688.48 262.004C1675.01 261.303 1659.92 267.621 1647.08 275.616C1642.38 271.054 1649.1 266.356 1652.7 263.915C1637.13 237.972 1567.66 269.837 1545.96 299.688L1498.66 364.828C1512.01 332.417 1534.35 306.439 1557.07 280.688L1557.08 280.656ZM2266.25 844.859C2270.54 847.949 2273.18 844.556 2277.88 844.773C2260.65 908.291 2141.05 917.597 2164.14 939.79C2186.7 961.428 2243.16 964.773 2264.6 940.13C2271.84 931.833 2276.06 923.991 2286.11 918.298C2312.27 903.509 2329.17 879.664 2334.96 850.999C2337.39 838.911 2340.94 829.458 2338.54 815.837C2335.04 796.249 2324.27 777.974 2303.76 774.052C2300.64 773.455 2296.88 766.864 2291.85 770.533C2288.92 772.61 2286.89 775.905 2286.93 781.278C2287.16 804.4 2278.09 823.986 2266.25 844.859ZM2055.13 629.679C2065.44 619.528 2076.53 614.343 2089.85 608.209C2124.4 592.281 2137.88 543.399 2118.34 531.056C2106.24 523.401 2094.76 567.314 2071.66 584.34L2044.32 592.881C2032.14 600.667 2027.92 614.861 2025.8 629.593C2035.15 640.317 2047.04 637.722 2055.13 629.693L2055.13 629.679ZM2091.9 447.017C2080.25 436.242 2069.6 441.375 2055.35 447.466C2039.25 454.303 2017.38 454.013 2005.46 469.864C2001.49 475.119 1994.75 479.762 1991.28 485.372C1980.7 502.556 1972.37 522.545 1969.01 542.566C1963.09 577.783 2006.48 605.6 2010.83 605.117C2014.82 604.676 2018.19 599.884 2020.79 596.441C2026.39 585.631 2035.17 580.154 2047.04 584.576C2061.98 576.155 2072.8 564.179 2079.67 549.157L2104.7 494.527C2106.57 490.462 2099.27 483.14 2096.52 480.94C2102.43 466.637 2101.26 455.644 2091.93 447.008L2091.9 447.017ZM2140.82 431.248C2154.52 450.112 2185.05 433.87 2190.8 446.076C2176.02 453.765 2158.91 458.937 2141.53 454.043C2139.11 468.378 2147.11 474.389 2152.1 483.594C2166.27 509.739 2197.57 522.011 2226.08 505.725C2232.33 502.165 2236.7 495.584 2237.94 487.742C2231.52 489.892 2226.69 493.15 2218.88 494.647C2215.83 485.916 2221.55 481.246 2227.65 476.47C2249.35 459.556 2260.68 426.167 2247.38 401.481C2237.06 415.737 2231.97 433.216 2213.98 434.377C2222.01 417.203 2234.19 404.826 2231.16 387.195C2230.63 384.22 2224.42 379.653 2224.38 376.697C2224.34 370.833 2245.03 343.144 2222.41 333.133C2211.67 328.394 2201.76 336.272 2192.68 339.715C2148.48 356.384 2121.95 405.254 2140.82 431.248ZM2157.62 0.741893C2166.91 5.36586 2178.97 2.26062 2187.99 -5.84399C2193.63 -2.72186 2198.57 1.29755 2203 1.58134C2210.72 2.06201 2216.81 -2.58614 2222.47 -7.17273L2241.8 -22.8257C2244.51 -25.0065 2246.83 -24.1371 2249.64 -22.785C2251.55 -21.8725 2250.37 -17.9999 2248.15 -14.422C2263.01 -1.95092 2291.02 -25.5855 2293.38 -36.6386C2296.83 -52.6678 2306.64 -62.1773 2315.74 -75.7442C2322.27 -85.4825 2322.02 -98.9214 2329.6 -108.188C2332.91 -112.223 2333.14 -120.556 2330.73 -123.767C2319.95 -138.151 2289.78 -123.326 2267.1 -131.911C2242.85 -141.054 2229.58 -173.189 2215.73 -174.608C2199.68 -176.281 2188.28 -159.411 2187.36 -144.98L2183.56 -91.0022C2183.56 -91.0022 2183.48 -90.8818 2183.43 -90.8351L2183.5 -90.4001C2181.49 -60.7689 2148.21 -46.9872 2145.88 -26.4115C2144.66 -15.4668 2147.21 -4.4249 2157.62 0.741893ZM1936.57 332.443C1956.21 338.563 1969.87 327.897 1983.53 317.386C1997.78 306.413 2001.01 287.296 2013.01 274.405C2033.6 252.261 2049.38 226.849 2041.68 194.23C2040.43 188.84 2032.07 182.284 2026.49 183.506C2020.79 184.754 2019.05 191.663 2014.24 197.715C2014.21 183.414 2023.48 172.063 2035.46 162.822C2047.12 153.771 2050.35 128.134 2033.7 122.837C2019.81 118.389 2001.14 135.025 1993.64 145.299L1963.75 186.058C1939.04 212.35 1915.13 241.793 1911.88 279.298C1916.09 286.69 1920.91 293.306 1916.74 304.76C1913.61 313.413 1927.49 329.624 1936.54 332.452L1936.57 332.443Z" stroke="#8A9AA3" stroke-miterlimit="10"/>
</g>
<defs>
<clipPath id="clip0_24_210">
<rect width="2114" height="818" fill="white"/>
</clipPath>
</defs>
</svg>
